<svg width="58" height="49" viewBox="0 0 58 49" fill="none" xmlns="http://www.w3.org/2000/svg">
<path fill-rule="evenodd" clip-rule="evenodd" d="M1.5991 33.9771C0.578673 35.3341 0.336738 37.1294 0.983564 38.6992L3.80081 45.5368C4.61271 47.5073 6.63471 48.6951 8.75383 48.4682C10.2787 48.305 11.7486 48.1573 13.1743 48.0255C15.6537 47.7963 17.4702 45.6217 18.6348 43.421C18.6882 43.3202 18.7436 43.22 18.8011 43.1204L21.6927 38.112C24.2226 33.7301 29.8256 32.2288 34.2074 34.7587C38.5892 37.2885 40.0905 42.8915 37.5606 47.2733C37.5044 47.3707 37.5701 47.4933 37.6824 47.5003C41.0091 47.7059 44.4952 48.0272 48.3219 48.4692C50.3285 48.7009 52.2742 47.6675 53.18 45.862L56.7169 38.8121C57.5283 37.1948 57.3493 35.2585 56.2753 33.8023C48.7085 23.5422 44.3187 16.0674 38.2418 3.25143C37.4485 1.57854 35.7669 0.503165 33.9155 0.502881L24.2728 0.501404C22.4174 0.50112 20.733 1.58 19.9412 3.258C14.1021 15.6316 9.72743 23.1674 1.5991 33.9771Z" fill="#2F20BF"/>
</svg>
