<svg width="12" height="12" viewBox="0 0 12 12" fill="none" xmlns="http://www.w3.org/2000/svg">
<g id="iconamoon:heart-fill">
<path id="Vector" fill-rule="evenodd" clip-rule="evenodd" d="M2.11097 2.68199C2.61677 2.17637 3.28651 1.868 3.99953 1.81245C4.71255 1.75689 5.42197 1.95781 5.99997 2.37899C6.61059 1.9372 7.36509 1.74135 8.11349 1.83035C8.8619 1.91936 9.54941 2.28671 10.0394 2.85939C10.5293 3.43207 10.7859 4.16815 10.758 4.92131C10.7302 5.67448 10.4199 6.38958 9.88897 6.92449L7.06047 9.75299C6.77918 10.0342 6.39772 10.1922 5.99997 10.1922C5.60222 10.1922 5.22076 10.0342 4.93947 9.75299L2.11097 6.92499C1.5484 6.36238 1.23236 5.59935 1.23236 4.80374C1.23236 4.00812 1.5484 3.24459 2.11097 2.68199Z" fill="white"/>
</g>
</svg>
