<svg width="12" height="12" viewBox="0 0 12 12" fill="none" xmlns="http://www.w3.org/2000/svg">
<g id="ion:ticket" clip-path="url(#clip0_60_24683)">
<path id="Vector" d="M11.4886 4.25156L10.4543 3.21727C10.3709 3.13494 10.2596 3.08687 10.1425 3.08253C10.0253 3.0782 9.91081 3.1179 9.8215 3.19383C9.68362 3.31119 9.50668 3.37247 9.32575 3.36552C9.14482 3.35858 8.9731 3.28391 8.84462 3.15633C8.7171 3.02786 8.64248 2.85619 8.63554 2.67532C8.62859 2.49444 8.68983 2.31755 8.80712 2.17969C8.88305 2.09038 8.92276 1.97586 8.91842 1.85872C8.91408 1.74159 8.86601 1.63032 8.78369 1.54687L7.74845 0.511406C7.66097 0.424087 7.54241 0.375046 7.4188 0.375046C7.2952 0.375046 7.17664 0.424087 7.08916 0.511406L5.44033 2.16C5.33853 2.26216 5.26176 2.3865 5.21603 2.52328C5.20713 2.54958 5.19228 2.57347 5.17265 2.5931C5.15302 2.61273 5.12912 2.62758 5.10283 2.63648C4.96599 2.68221 4.84164 2.75907 4.73955 2.86102L0.511421 7.08914C0.424102 7.17663 0.375061 7.29518 0.375061 7.41879C0.375061 7.54239 0.424102 7.66095 0.511421 7.74844L1.54689 8.78273C1.63034 8.86506 1.7416 8.91313 1.85874 8.91746C1.97588 8.9218 2.09039 8.8821 2.1797 8.80617C2.31725 8.68786 2.49443 8.6259 2.67574 8.63271C2.85704 8.63952 3.02908 8.71459 3.15737 8.84288C3.28566 8.97117 3.36073 9.14321 3.36754 9.32451C3.37435 9.50582 3.31239 9.68299 3.19408 9.82055C3.11815 9.90985 3.07844 10.0244 3.08278 10.1415C3.08712 10.2586 3.13519 10.3699 3.21751 10.4534L4.25181 11.4877C4.3393 11.575 4.45785 11.624 4.58146 11.624C4.70507 11.624 4.82362 11.575 4.91111 11.4877L9.13923 7.25953C9.24112 7.15749 9.31797 7.03322 9.36376 6.89648C9.37263 6.8701 9.38749 6.84613 9.40717 6.82645C9.42685 6.80677 9.45082 6.79191 9.4772 6.78305C9.61391 6.73731 9.73817 6.66054 9.84025 6.55875L11.4888 4.90992C11.5758 4.82244 11.6247 4.70407 11.6246 4.58069C11.6246 4.45732 11.5757 4.33898 11.4886 4.25156ZM6.13619 3.55664C6.10136 3.59147 6.06002 3.6191 6.01452 3.63795C5.96901 3.6568 5.92024 3.66651 5.87099 3.6665C5.82174 3.66651 5.77297 3.6568 5.72746 3.63795C5.68196 3.6191 5.64062 3.59147 5.6058 3.55664L5.33603 3.28687C5.26742 3.21619 5.22937 3.12135 5.23011 3.02285C5.23085 2.92435 5.27032 2.83009 5.33999 2.76045C5.40966 2.69081 5.50394 2.65138 5.60244 2.65068C5.70095 2.64998 5.79577 2.68807 5.86642 2.75672L6.13619 3.02625C6.17102 3.06107 6.19865 3.10242 6.2175 3.14792C6.23635 3.19342 6.24605 3.24219 6.24605 3.29144C6.24605 3.3407 6.23635 3.38947 6.2175 3.43497C6.19865 3.48047 6.17102 3.52182 6.13619 3.55664ZM7.16744 4.58789C7.09712 4.65816 7.00177 4.69764 6.90236 4.69764C6.80294 4.69764 6.7076 4.65816 6.63728 4.58789L6.37947 4.33008C6.34464 4.29525 6.31702 4.25391 6.29817 4.20841C6.27932 4.1629 6.26962 4.11413 6.26962 4.06488C6.26962 4.01563 6.27932 3.96686 6.29817 3.92136C6.31702 3.87586 6.34464 3.83451 6.37947 3.79969C6.4498 3.72935 6.5452 3.68984 6.64466 3.68984C6.69391 3.68984 6.74268 3.69954 6.78819 3.71839C6.83369 3.73724 6.87503 3.76486 6.90986 3.79969L7.16767 4.0575C7.20262 4.09232 7.23036 4.1337 7.24929 4.17925C7.26823 4.22481 7.27798 4.27366 7.27801 4.323C7.27803 4.37233 7.26831 4.42119 7.24942 4.46677C7.23053 4.51234 7.20283 4.55374 7.1679 4.58859L7.16744 4.58789ZM8.19869 5.61914C8.16386 5.65397 8.12252 5.6816 8.07702 5.70045C8.03151 5.7193 7.98274 5.729 7.93349 5.729C7.88424 5.729 7.83547 5.7193 7.78996 5.70045C7.74446 5.6816 7.70312 5.65397 7.6683 5.61914L7.41048 5.36133C7.34187 5.29065 7.30382 5.19581 7.30456 5.0973C7.30531 4.9988 7.34478 4.90454 7.41445 4.8349C7.48412 4.76526 7.57839 4.72583 7.6769 4.72513C7.7754 4.72444 7.87022 4.76253 7.94087 4.83117L8.19869 5.08898C8.23374 5.12375 8.26158 5.16509 8.28061 5.21064C8.29964 5.25618 8.3095 5.30504 8.30961 5.3544C8.30972 5.40377 8.30008 5.45267 8.28124 5.4983C8.26241 5.54393 8.23475 5.58539 8.19986 5.62031L8.19869 5.61914ZM9.24001 6.66305C9.20519 6.69788 9.16385 6.72551 9.11835 6.74436C9.07284 6.76321 9.02407 6.77291 8.97482 6.77291C8.92557 6.77291 8.8768 6.76321 8.83129 6.74436C8.78579 6.72551 8.74445 6.69788 8.70962 6.66305L8.4415 6.39352C8.40594 6.3588 8.37763 6.31735 8.35823 6.2716C8.33882 6.22584 8.32871 6.17668 8.32847 6.12698C8.32824 6.07728 8.33788 6.02803 8.35684 5.98209C8.37581 5.93615 8.40372 5.89444 8.43895 5.85938C8.47418 5.82432 8.51602 5.79662 8.56205 5.77788C8.60809 5.75914 8.65738 5.74973 8.70708 5.75021C8.75678 5.75069 8.80589 5.76104 8.85155 5.78067C8.89721 5.80029 8.93851 5.8288 8.97306 5.86453L9.24142 6.13383C9.27624 6.16867 9.30385 6.21002 9.32268 6.25553C9.34151 6.30104 9.35119 6.34982 9.35117 6.39907C9.35115 6.44832 9.34142 6.49709 9.32255 6.54258C9.30368 6.58808 9.27603 6.62941 9.24119 6.66422L9.24001 6.66305Z" fill="white"/>
</g>
<defs>
<clipPath id="clip0_60_24683">
<rect width="12" height="12" fill="white"/>
</clipPath>
</defs>
</svg>
