<svg width="156" height="50" viewBox="0 0 156 50" fill="none" xmlns="http://www.w3.org/2000/svg">
<path d="M39.8325 1.79297C44.2531 1.79297 47.2836 4.90686 47.2836 9.24406C47.2836 13.5813 44.2531 16.6952 39.8325 16.6952H33.01C32.325 16.6952 31.7698 17.2504 31.7698 17.9354V20.0146C31.7698 20.6995 31.2145 21.2548 30.5295 21.2548H25.7813C25.0964 21.2548 24.5411 20.6995 24.5411 20.0146V3.03319C24.5411 2.34824 25.0964 1.79297 25.7813 1.79297H39.8325ZM38.4424 10.5786C39.1652 10.5786 40.0549 10.5786 40.0549 9.24406C40.0549 7.90954 39.1652 7.90954 38.4424 7.90954H33.01C32.325 7.90954 31.7698 8.46481 31.7698 9.14976V9.33836C31.7698 10.0233 32.325 10.5786 33.01 10.5786H38.4424Z" fill="#E1EF9A"/>
<path d="M54.0965 1.79297C54.7815 1.79297 55.3368 2.34824 55.3368 3.03319V20.0146C55.3368 20.6995 54.7815 21.2548 54.0965 21.2548H49.3483C48.6634 21.2548 48.1081 20.6995 48.1081 20.0146V3.03319C48.1081 2.34824 48.6634 1.79297 49.3483 1.79297H54.0965Z" fill="#E1EF9A"/>
<path fill-rule="evenodd" clip-rule="evenodd" d="M0.398581 14.5735C-0.0189504 15.1288 -0.11795 15.8634 0.146709 16.5057L1.30251 19.3109C1.63471 20.1171 2.46204 20.6031 3.32911 20.5103C3.95581 20.4432 4.55986 20.3825 5.14573 20.3284C6.15993 20.2346 6.90312 19.3454 7.37908 18.445C7.40122 18.4031 7.42424 18.3614 7.44812 18.32L8.63298 16.2678C9.66959 14.4723 11.9654 13.8572 13.7609 14.8938C15.5564 15.9304 16.1715 18.2262 15.1349 20.0217C15.1122 20.0611 15.1387 20.1106 15.1841 20.1134C16.548 20.1977 17.9773 20.3294 19.5464 20.5107C20.3674 20.6055 21.1635 20.1827 21.5341 19.444L22.985 16.5519C23.317 15.8901 23.2438 15.0979 22.8044 14.502C19.7029 10.2968 17.904 7.23366 15.4133 1.98071C15.0887 1.29622 14.4006 0.856191 13.6431 0.856075L9.6884 0.855469C8.92922 0.855352 8.24003 1.29677 7.91605 1.98336C5.52285 7.05497 3.73017 10.1431 0.398581 14.5735Z" fill="#E1EF9A"/>
<path fill-rule="evenodd" clip-rule="evenodd" d="M64.0079 1.77978C63.2712 2.04136 63.2119 3.19371 63.0743 3.9632C62.7157 5.96954 62.7125 7.54151 63.0718 9.54992C63.2333 10.4529 62.5647 11.3109 61.6474 11.3109H58.8328C58.7809 11.3109 58.7297 11.3081 58.6793 11.3027C58.5069 11.2841 58.3315 11.4107 58.3389 11.584C58.3458 11.7465 58.5099 11.8504 58.6715 11.8321C58.7244 11.8261 58.7782 11.823 58.8328 11.823H61.6509C62.5671 11.823 63.2356 12.679 63.0743 13.5809C62.7157 15.5872 62.7125 17.1592 63.0718 19.1676C63.1142 19.4044 63.2349 19.6354 63.4568 19.7284C65.287 20.4953 67.6375 20.8733 70.5565 20.8733C77.7982 20.8733 81.7911 18.5084 82.5795 13.2471C82.6846 12.5459 82.1121 11.9487 81.403 11.9487H76.3796C75.7653 11.9487 75.2769 12.4189 74.998 12.9662C74.392 14.1552 72.9962 14.7568 70.5565 14.7568C66.3027 14.7568 65.552 12.9218 65.552 10.8366C65.552 8.77921 66.2749 6.97204 70.5565 6.97204C72.9879 6.97204 74.3825 7.55194 74.9918 8.71175C75.2769 9.25461 75.764 9.7245 76.3772 9.7245H81.4027C82.1119 9.7245 82.6845 9.12707 82.5781 8.42593C81.7841 3.19465 77.7695 0.855469 70.5565 0.855469C67.9225 0.855469 65.7515 1.16061 64.0079 1.77978ZM83.2751 10.8366C83.2751 17.6204 86.945 20.8733 95.5082 20.8733C104.044 20.8733 107.741 17.5926 107.741 10.8366C107.741 4.10837 104.044 0.855469 95.5082 0.855469C86.945 0.855469 83.2751 4.08057 83.2751 10.8366ZM100.513 10.8366C100.513 12.894 99.762 14.7568 95.5082 14.7568C91.2544 14.7568 90.5037 12.9218 90.5037 10.8366C90.5037 8.77921 91.2266 6.97204 95.5082 6.97204C99.7898 6.97204 100.513 8.80701 100.513 10.8366ZM126.435 2.37372C126.435 1.68876 126.991 1.1335 127.676 1.1335H132.424C133.109 1.1335 133.664 1.68876 133.664 2.37372V19.3551C133.664 20.04 133.109 20.5953 132.424 20.5953H124.841C124.445 20.5953 124.073 20.4065 123.84 20.0871L116.775 10.4265C116.472 10.0115 115.815 10.2261 115.815 10.7402V19.3551C115.815 20.04 115.26 20.5953 114.575 20.5953H109.826C109.142 20.5953 108.586 20.04 108.586 19.3551V2.37372C108.586 1.68876 109.142 1.1335 109.826 1.1335H117.41C117.805 1.1335 118.177 1.32228 118.411 1.64166L125.475 11.3023C125.778 11.7173 126.435 11.5027 126.435 10.9886V2.37372ZM154.121 7.25006C154.806 7.25006 155.361 6.69479 155.361 6.00984V2.37372C155.361 1.68876 154.806 1.1335 154.121 1.1335H136.027C135.342 1.1335 134.787 1.68876 134.787 2.37372V19.3551C134.787 20.04 135.342 20.5953 136.027 20.5953H140.775C141.46 20.5953 142.016 20.04 142.016 19.3551V16.6921C142.016 16.0071 142.571 15.4518 143.256 15.4518H152.452C153.137 15.4518 153.693 14.8966 153.693 14.2116V10.5755C153.693 9.89053 153.137 9.33526 152.452 9.33526H143.058C142.482 9.33526 142.016 8.86847 142.016 8.29266C142.016 7.71685 142.482 7.25006 143.058 7.25006H154.121Z" fill="#E1EF9A"/>
<rect x="56.8938" y="3.38477" width="4.34079" height="7.17559" rx="1.4174" fill="#E1EF9A"/>
<rect x="56.8938" y="12.332" width="4.34079" height="7.17559" rx="1.4174" fill="#E1EF9A"/>
<path fill-rule="evenodd" clip-rule="evenodd" d="M56.0292 25.24C50.4794 24.7592 45.6365 29.0753 45.6365 34.6458C45.6365 40.2141 50.4755 44.5296 56.023 44.0489C71.5348 42.7049 83.2892 42.7091 98.9192 44.0564C104.474 44.5352 109.317 40.2118 109.317 34.6362C109.317 29.0653 104.482 24.7431 98.9315 25.2195C83.3504 26.5569 71.6115 26.59 56.0292 25.24ZM64.286 34.94H59.5066V29.9527H56.8052V37.2258H64.286V34.94ZM72.7852 34.1399C72.7644 31.7606 71.3098 30.8878 68.7538 30.8878C67.6005 30.8878 66.2498 31.1164 65.003 31.5216L65.8134 33.2879C66.9563 33.0386 67.8706 32.9658 68.6707 32.9658C69.5019 32.9658 70.2915 32.997 70.2915 33.7451C69.7201 33.5373 69.0551 33.423 68.1823 33.423C66.3641 33.423 64.4938 33.849 64.4938 35.4699C64.4938 36.8206 65.7407 37.3297 67.1641 37.3297C68.2447 37.3297 69.3252 37.1738 70.2915 36.4673V37.2258H72.7852V34.1399ZM70.2915 34.9296V35.1893C69.6681 35.4595 68.7538 35.6673 67.9122 35.6673C67.2784 35.6673 66.9875 35.6153 66.9875 35.2724C66.9875 34.8776 67.4862 34.7737 68.6395 34.7737C69.3564 34.7737 69.8967 34.8257 70.2915 34.9296ZM81.475 30.9917H78.9814V31.9268C78.4411 31.2722 77.558 30.8878 76.3007 30.8878C74.3786 30.8878 72.9967 31.8021 72.9967 33.9009C72.9967 35.9997 74.3786 36.9141 76.3007 36.9141C77.558 36.9141 78.4411 36.5296 78.9814 35.8751C78.9606 37.4544 78.306 37.7453 77.0904 37.7453C75.8957 37.7453 74.6848 37.5096 73.9249 37.3616C73.8256 37.3423 73.7341 37.3245 73.6513 37.3089V39.335C74.2435 39.4908 75.7709 39.8233 77.5476 39.8233C79.6879 39.8233 81.475 38.9194 81.475 36.4257V30.9917ZM78.9814 33.9009C78.9814 34.6075 78.5554 34.8361 77.2359 34.8361C75.9163 34.8361 75.4903 34.6075 75.4903 33.9009C75.4903 33.1944 75.9163 32.9658 77.2359 32.9658C78.5554 32.9658 78.9814 33.1944 78.9814 33.9009ZM81.7836 34.1087C81.7836 36.4154 83.3733 37.3297 86.0228 37.3297C88.6723 37.3297 90.262 36.4154 90.262 34.1087C90.262 31.8021 88.6723 30.8878 86.0228 30.8878C83.3733 30.8878 81.7836 31.8021 81.7836 34.1087ZM87.7683 34.1087C87.7683 35.0231 87.1345 35.2517 86.0228 35.2517C84.9111 35.2517 84.2773 35.0231 84.2773 34.1087C84.2773 33.1944 84.9111 32.9658 86.0228 32.9658C87.1345 32.9658 87.7683 33.1944 87.7683 34.1087ZM92.8613 35.075H90.3677C90.3677 37.0284 92.4457 37.3297 94.8042 37.3297C97.1628 37.3297 98.8252 37.0284 98.8252 35.127C98.8252 33.4957 97.2563 33.3503 94.8042 33.2256C94.6722 33.2186 94.5493 33.2123 94.4351 33.2065C93.1833 33.1423 92.9652 33.1311 92.9652 32.8931C92.9652 32.6541 93.3288 32.6541 94.5964 32.6541C95.7082 32.6541 96.1238 32.6541 96.1238 32.9866H98.6174C98.6174 31.1891 97.0069 30.8878 94.7003 30.8878C92.3937 30.8878 90.4716 31.1891 90.4716 32.9658C90.4716 34.5555 91.7288 34.7737 94.5964 34.888C94.7677 34.8951 94.9225 34.9011 95.0624 34.9064C96.1442 34.9477 96.3316 34.9549 96.3316 35.2309C96.3316 35.501 96.0926 35.5634 94.7003 35.5634C93.1938 35.5634 92.8613 35.4283 92.8613 35.075Z" fill="#E1EF9A"/>
<path d="M23.4375 32.5278C23.4375 37.4471 16.0044 36.6886 14.9209 38.3789H23.2208V43.1465H6.23087V40.546C6.23087 34.8682 17.8031 35.41 17.8031 33.2863C17.8031 32.6361 17.2613 32.5278 15.3759 32.5278C13.3822 32.5278 12.082 32.5278 12.082 33.9364H6.44758C6.44758 28.7571 10.0016 27.7602 15.1592 27.7602C20.3819 27.7602 23.4375 28.7571 23.4375 32.5278ZM32.7658 43.3632C26.7413 43.3632 23.8807 40.8277 23.8807 35.54C23.8807 30.274 26.7413 27.7602 32.7658 27.7602C38.7686 27.7602 41.6508 30.2957 41.6508 35.54C41.6508 40.806 38.7686 43.3632 32.7658 43.3632ZM32.7658 38.5956C35.4313 38.5956 36.0164 37.1437 36.0164 35.54C36.0164 33.9581 35.4529 32.5278 32.7658 32.5278C30.0786 32.5278 29.5151 33.9364 29.5151 35.54C29.5151 37.1653 30.1002 38.5956 32.7658 38.5956Z" fill="#E1EF9A"/>
<path d="M129.925 31.4672C129.925 36.3865 122.492 35.628 121.408 37.3184H129.708V42.0859H112.718V39.4854C112.718 33.8077 124.29 34.3495 124.29 32.2257C124.29 31.5756 123.749 31.4672 121.863 31.4672C119.869 31.4672 118.569 31.4672 118.569 32.8758H112.935C112.935 27.6965 116.489 26.6997 121.646 26.6997C126.869 26.6997 129.925 27.6965 129.925 31.4672ZM141.122 32.2257C145.044 32.2257 147.363 34.1111 147.363 37.1017C147.363 40.8724 144.416 42.3026 139.085 42.3026C133.819 42.3026 130.156 41.3058 130.156 36.4515H135.791C135.791 37.5351 137.091 37.5351 139.193 37.5351C141.187 37.5351 141.729 37.0366 141.729 36.0398C141.729 35.0863 141.208 34.5662 139.475 34.5662C138.088 34.5662 136.831 34.8479 135.097 35.5197L130.785 34.8045L132.735 26.9164H146.279V31.2505H136.658L135.942 33.2226C137.546 32.6591 138.673 32.2257 141.122 32.2257Z" fill="#E1EF9A"/>
</svg>
