<svg width="222" height="45" viewBox="0 0 222 45" fill="none" xmlns="http://www.w3.org/2000/svg">
<path d="M5.53076 2.72363L5.53076 12.3984L5.4458 12.4844L4.44189 13.4883L5.4458 14.4922L5.53076 14.5781L5.53076 23.4238L9.38721 23.4238V26.082L2.71436 26.082L2.71436 15.4893L0.92041 13.6953L0.712402 13.4883L0.92041 13.2812L2.71436 11.4863L2.71436 0.066406L9.38721 0.0664062V2.72363L5.53076 2.72363Z" fill="#000626" fill-opacity="0.9"/>
<path d="M15.861 13.584C15.8609 14.7974 14.8692 15.7889 13.6559 15.7891C12.4042 15.7891 11.4509 14.7592 11.4508 13.584C11.4509 12.3705 12.4424 11.3789 13.6559 11.3789C14.7926 11.3791 15.8608 12.2944 15.861 13.584ZM13.8395 11.6807L13.8199 11.6797C13.8402 11.6815 13.8603 11.6841 13.8805 11.6865C13.8668 11.6848 13.8532 11.682 13.8395 11.6807ZM14.0319 11.71C14.0189 11.7073 14.0058 11.7055 13.9928 11.7031C14.0058 11.7055 14.0189 11.7073 14.0319 11.71Z" fill="#000626" fill-opacity="0.9"/>
<path d="M35.2249 13.5449C35.2248 14.755 34.268 15.7497 33.0198 15.75C31.8063 15.75 30.8148 14.7584 30.8147 13.5449C30.8147 12.3314 31.8063 11.3398 33.0198 11.3398C34.268 11.3402 35.2249 12.3348 35.2249 13.5449ZM33.7747 15.3057C33.6597 15.3542 33.5387 15.3924 33.4124 15.418L33.5979 15.3711C33.6584 15.3524 33.7171 15.3299 33.7747 15.3057Z" fill="#000626" fill-opacity="0.9"/>
<path d="M25.5891 13.584C25.589 14.7972 24.5972 15.7887 23.384 15.7891C22.1706 15.7891 21.179 14.7975 21.179 13.584C21.1791 12.3324 22.2088 11.3789 23.384 11.3789C24.5206 11.3793 25.589 12.2945 25.5891 13.584ZM22.2864 15.1445C22.2969 15.1521 22.3059 15.1617 22.3167 15.1689C22.332 15.1793 22.3489 15.1873 22.3645 15.1973C22.338 15.1803 22.312 15.1627 22.2864 15.1445ZM22.4211 15.2314C22.4468 15.2465 22.4719 15.2624 22.4983 15.2764C22.4719 15.2624 22.4468 15.2466 22.4211 15.2314ZM24.8372 12.3437C24.8105 12.3128 24.7817 12.2839 24.7532 12.2549C24.7881 12.2905 24.8225 12.3268 24.8547 12.3652C24.8488 12.3581 24.8432 12.3507 24.8372 12.3437ZM24.9514 12.4893C24.9332 12.4634 24.9133 12.4388 24.8938 12.4141C24.9212 12.449 24.9479 12.4845 24.9729 12.5215C24.9657 12.5108 24.9589 12.4998 24.9514 12.4893ZM25.0774 12.6973C25.0577 12.6599 25.0369 12.6235 25.0149 12.5879C25.0369 12.6235 25.0577 12.66 25.0774 12.6973ZM25.136 12.8154C25.1277 12.7967 25.1174 12.7791 25.1086 12.7607C25.129 12.8031 25.148 12.8463 25.1653 12.8906C25.1555 12.8655 25.1468 12.84 25.136 12.8154ZM25.2346 13.1045C25.2208 13.0506 25.205 12.9979 25.1868 12.9463C25.205 12.9979 25.2208 13.0506 25.2346 13.1045ZM25.2542 13.1816C25.2515 13.1692 25.2482 13.1569 25.2454 13.1445C25.2607 13.2103 25.2722 13.2778 25.2805 13.3467C25.2737 13.2907 25.2656 13.2356 25.2542 13.1816ZM25.2961 13.584C25.2961 13.5059 25.2913 13.4293 25.2825 13.3545C25.2912 13.4293 25.2952 13.5059 25.2952 13.584C25.2952 13.6495 25.2927 13.7144 25.2864 13.7783C25.2929 13.7144 25.2961 13.6495 25.2961 13.584Z" fill="#000626" fill-opacity="0.9"/>
<path d="M44.9045 15.4893V26.082L38.2317 26.082V23.4238L42.0872 23.4238V14.5781L43.177 13.4883L42.0872 12.3984V2.72363L38.2317 2.72363V0.0664059L44.9045 0.0664062V11.4863L46.6985 13.2812L46.9055 13.4883L44.9045 15.4893Z" fill="#000626" fill-opacity="0.9"/>
<path d="M73.2788 13.9627C73.2788 12.2844 73.5974 10.8079 74.2347 9.53328C74.8933 8.25863 75.7961 7.26015 76.9432 6.53785C78.0903 5.7943 79.4074 5.42253 80.8944 5.42253C82.3602 5.42253 83.656 5.7943 84.7819 6.53785C85.9078 7.26015 86.7893 8.25863 87.4266 9.53328C88.0639 10.8079 88.3826 12.2844 88.3826 13.9627C88.3826 15.6198 88.0639 17.0962 87.4266 18.3921C86.8106 19.6668 85.9502 20.6759 84.8456 21.4194C83.741 22.1417 82.4664 22.5029 81.0219 22.5029C79.4924 22.5029 78.1434 22.1417 76.9751 21.4194C75.828 20.6759 74.9251 19.6668 74.2666 18.3921C73.6081 17.0962 73.2788 15.6198 73.2788 13.9627ZM81.0219 20.2722C81.999 20.2722 82.8594 20.0067 83.6029 19.4756C84.3464 18.9232 84.9306 18.1797 85.3554 17.2449C85.7803 16.2889 85.9927 15.1949 85.9927 13.9627C85.9927 12.7305 85.7697 11.6471 85.3236 10.7123C84.8987 9.75635 84.3039 9.0128 83.5392 8.48169C82.7744 7.92934 81.8928 7.65317 80.8944 7.65317C79.8535 7.65317 78.9294 7.92934 78.1222 8.48169C77.3362 9.0128 76.7202 9.75635 76.2741 10.7123C75.8492 11.6471 75.6474 12.7305 75.6686 13.9627C75.6899 15.1949 75.9235 16.2889 76.3697 17.2449C76.837 18.1797 77.4743 18.9232 78.2815 19.4756C79.0888 20.0067 80.0022 20.2722 81.0219 20.2722Z" fill="#000626" fill-opacity="0.9"/>
<path d="M93.2772 22.0886L93.2772 6.15545L106.756 6.15545L106.788 22.0886L104.398 22.0886L104.366 8.38609L95.6671 8.38609L95.6671 22.0886L93.2772 22.0886Z" fill="#000626" fill-opacity="0.9"/>
<path d="M111.491 13.9627C111.491 12.2844 111.81 10.8079 112.447 9.53328C113.106 8.25863 114.009 7.26015 115.156 6.53785C116.303 5.7943 117.62 5.42253 119.107 5.42253C120.573 5.42253 121.868 5.7943 122.994 6.53785C124.12 7.26015 125.002 8.25863 125.639 9.53328C126.276 10.8079 126.595 12.2844 126.595 13.9627C126.595 15.6198 126.276 17.0962 125.639 18.3921C125.023 19.6668 124.163 20.6759 123.058 21.4194C121.953 22.1417 120.679 22.5029 119.234 22.5029C117.705 22.5029 116.356 22.1417 115.188 21.4194C114.04 20.6759 113.138 19.6668 112.479 18.3921C111.821 17.0962 111.491 15.6198 111.491 13.9627ZM119.234 20.2722C120.212 20.2722 121.072 20.0067 121.815 19.4756C122.559 18.9232 123.143 18.1797 123.568 17.2449C123.993 16.2889 124.205 15.1949 124.205 13.9627C124.205 12.7305 123.982 11.6471 123.536 10.7123C123.111 9.75635 122.516 9.0128 121.752 8.48169C120.987 7.92934 120.105 7.65317 119.107 7.65317C118.066 7.65317 117.142 7.92934 116.335 8.48169C115.549 9.0128 114.933 9.75635 114.487 10.7123C114.062 11.6471 113.86 12.7305 113.881 13.9627C113.902 15.1949 114.136 16.2889 114.582 17.2449C115.049 18.1797 115.687 18.9232 116.494 19.4756C117.301 20.0067 118.215 20.2722 119.234 20.2722Z" fill="#000626" fill-opacity="0.9"/>
<path d="M138.755 22.5347C136.524 22.5347 134.74 21.9718 133.402 20.8458C132.063 19.7199 131.373 18.2009 131.33 16.2889L133.72 16.2889C133.763 17.5211 134.23 18.509 135.122 19.2525C136.014 19.9748 137.204 20.3253 138.691 20.3041C139.775 20.2829 140.656 20.0492 141.336 19.603C142.037 19.1569 142.377 18.5939 142.356 17.9141C142.334 17.298 142.058 16.7669 141.527 16.3208C140.996 15.8747 140.104 15.4392 138.85 15.0143L136.843 14.3132C135.207 13.7396 134.028 13.1236 133.306 12.465C132.605 11.7852 132.233 10.9566 132.191 9.97941C132.17 9.08715 132.393 8.30112 132.86 7.6213C133.327 6.94149 133.986 6.41038 134.836 6.02799C135.706 5.62435 136.716 5.42253 137.863 5.42253C139.838 5.40128 141.421 5.90052 142.61 6.92024C143.8 7.91872 144.416 9.2996 144.459 11.0629L142.069 11.0947C141.92 10.0325 141.474 9.19338 140.73 8.57729C139.987 7.96121 139.052 7.65317 137.926 7.65317C136.907 7.65317 136.089 7.87623 135.473 8.32236C134.857 8.76849 134.559 9.33146 134.581 10.0113C134.602 10.4787 134.836 10.8929 135.282 11.2541C135.749 11.6152 136.524 11.987 137.608 12.3694L139.647 13.0704C141.41 13.6653 142.674 14.3132 143.439 15.0143C144.204 15.6941 144.597 16.5439 144.618 17.5636C144.66 18.5408 144.437 19.4012 143.949 20.1448C143.46 20.8883 142.77 21.4725 141.878 21.8974C140.985 22.3223 139.944 22.5347 138.755 22.5347Z" fill="#000626" fill-opacity="0.9"/>
<path d="M157.383 20.2722C158.53 20.2722 159.518 19.9217 160.347 19.2206C161.196 18.5196 161.759 17.5742 162.035 16.3845L164.361 16.3845C164 18.254 163.193 19.7411 161.94 20.8458C160.686 21.9505 159.168 22.5029 157.383 22.5029C155.832 22.5029 154.483 22.163 153.336 21.4832C152.189 20.7821 151.297 19.7942 150.66 18.5196C150.044 17.2237 149.736 15.7047 149.736 13.9627C149.736 12.1994 150.033 10.6805 150.628 9.40582C151.244 8.13116 152.104 7.15393 153.209 6.47411C154.335 5.77306 155.662 5.42253 157.192 5.42253C159.083 5.42253 160.676 6.00674 161.972 7.17517C163.267 8.32236 164.064 9.88381 164.361 11.8595L162.035 11.8595C161.823 10.5636 161.271 9.5439 160.378 8.80036C159.507 8.03556 158.445 7.65317 157.192 7.65317C155.599 7.65317 154.345 8.21614 153.432 9.34208C152.54 10.468 152.104 12.0082 152.125 13.9627C152.168 15.8959 152.657 17.4361 153.591 18.5833C154.547 19.7093 155.811 20.2722 157.383 20.2722Z" fill="#000626" fill-opacity="0.9"/>
<path d="M168.81 13.9627C168.81 12.2844 169.129 10.8079 169.766 9.53328C170.424 8.25863 171.327 7.26015 172.474 6.53785C173.622 5.7943 174.939 5.42253 176.426 5.42253C177.891 5.42253 179.187 5.7943 180.313 6.53785C181.439 7.26015 182.321 8.25863 182.958 9.53328C183.595 10.8079 183.914 12.2844 183.914 13.9627C183.914 15.6198 183.595 17.0962 182.958 18.3921C182.342 19.6668 181.481 20.6759 180.377 21.4194C179.272 22.1417 177.998 22.5029 176.553 22.5029C175.024 22.5029 173.675 22.1417 172.506 21.4194C171.359 20.6759 170.456 19.6668 169.798 18.3921C169.139 17.0962 168.81 15.6198 168.81 13.9627ZM176.553 20.2722C177.53 20.2722 178.391 20.0067 179.134 19.4756C179.878 18.9232 180.462 18.1797 180.887 17.2449C181.312 16.2889 181.524 15.1949 181.524 13.9627C181.524 12.7305 181.301 11.6471 180.855 10.7123C180.43 9.75635 179.835 9.0128 179.07 8.48169C178.306 7.92934 177.424 7.65317 176.426 7.65317C175.385 7.65317 174.461 7.92934 173.653 8.48169C172.867 9.0128 172.251 9.75635 171.805 10.7123C171.38 11.6471 171.179 12.7305 171.2 13.9627C171.221 15.1949 171.455 16.2889 171.901 17.2449C172.368 18.1797 173.006 18.9232 173.813 19.4756C174.62 20.0067 175.533 20.2722 176.553 20.2722Z" fill="#000626" fill-opacity="0.9"/>
<path d="M188.394 6.15545L190.784 6.15545L190.784 7.78063C191.4 7.03709 192.154 6.46349 193.046 6.05985C193.939 5.63497 194.937 5.42253 196.042 5.42253C198.315 5.42253 200.11 6.16607 201.427 7.65317C202.744 9.14026 203.402 11.1585 203.402 13.7078C203.402 15.5135 203.105 17.075 202.51 18.3921C201.915 19.7093 201.066 20.729 199.961 21.4513C198.856 22.1524 197.55 22.5029 196.042 22.5029C193.79 22.5029 192.037 21.6637 190.784 19.9854L190.784 29.3223L188.394 29.3223L188.394 6.15545ZM201.013 13.7078C201.013 11.817 200.556 10.3299 199.642 9.24648C198.75 8.14179 197.529 7.58944 195.978 7.58944C194.385 7.58944 193.121 8.14179 192.186 9.24648C191.251 10.3299 190.784 11.817 190.784 13.7078C190.784 15.7472 191.251 17.3618 192.186 18.5515C193.121 19.7411 194.385 20.336 195.978 20.336C197.529 20.336 198.75 19.7411 199.642 18.5515C200.556 17.3618 201.013 15.7472 201.013 13.7078Z" fill="#000626" fill-opacity="0.9"/>
<path d="M206.831 13.9627C206.831 12.1994 207.129 10.6805 207.724 9.40582C208.34 8.13116 209.2 7.15393 210.305 6.47411C211.43 5.77306 212.748 5.42253 214.256 5.42253C215.7 5.42253 216.954 5.77306 218.016 6.47411C219.078 7.17517 219.896 8.18427 220.469 9.50142C221.043 10.7973 221.33 12.3375 221.33 14.122L221.33 14.377L209.189 14.377C209.296 16.1827 209.827 17.6167 210.783 18.6789C211.738 19.7411 212.971 20.2722 214.479 20.2722C215.838 20.2722 216.911 19.9323 217.697 19.2525C218.504 18.5727 218.972 17.6167 219.099 16.3845L221.33 16.3845C221.117 18.339 220.416 19.8474 219.227 20.9096C218.058 21.9718 216.476 22.5029 214.479 22.5029C212.928 22.5029 211.579 22.163 210.432 21.4832C209.285 20.7821 208.393 19.7942 207.755 18.5196C207.139 17.2237 206.831 15.7047 206.831 13.9627ZM214.256 7.65317C212.896 7.61068 211.781 7.99308 210.91 8.80036C210.06 9.60764 209.582 10.723 209.476 12.1463L218.844 12.1463C218.759 10.8079 218.303 9.7351 217.474 8.92782C216.646 8.12054 215.573 7.69566 214.256 7.65317Z" fill="#000626" fill-opacity="0.9"/>
<path d="M53.6946 6.15545L53.6946 22.0886L56.0844 22.0886L56.0844 8.38609L60.641 8.38609L60.641 22.0886L62.8716 22.0886L62.8716 8.38609L67.3963 8.38609L67.4282 22.0886L69.818 22.0886L69.7861 6.15545L53.6946 6.15545Z" fill="#000626" fill-opacity="0.9"/>
<path d="M203.396 13.6973C203.396 11.1879 202.758 9.19307 201.482 7.71288L201.421 7.6428C200.103 6.1557 198.308 5.41206 196.035 5.41206C194.931 5.41207 193.932 5.62456 193.04 6.04944L192.957 6.08773C192.101 6.48905 191.374 7.04992 190.778 7.77024L190.778 6.1451L188.388 6.1451L188.388 29.3118L190.778 29.3118L190.778 19.9751C192.011 21.6271 193.729 22.4661 195.93 22.4919L196.035 22.4925C197.496 22.4925 198.768 22.1636 199.851 21.5056L199.955 21.4409C201.025 20.7411 201.856 19.7623 202.447 18.5043L202.504 18.3817C203.08 17.1058 203.377 15.6005 203.395 13.8659L203.396 13.6973ZM137.853 5.10223C139.883 5.08039 141.545 5.59405 142.806 6.6744C144.072 7.73804 144.718 9.20734 144.762 11.0451L144.77 11.3582L141.793 11.3979L141.755 11.1272C141.616 10.1325 141.203 9.36668 140.526 8.80554C139.847 8.24299 138.986 7.95279 137.92 7.95278C136.944 7.95278 136.196 8.16637 135.648 8.56306C135.105 8.95621 134.868 9.42513 134.884 9.98675C134.9 10.3457 135.076 10.683 135.469 11.0019C135.897 11.3306 136.631 11.6878 137.702 12.0658L139.74 12.7663C141.514 13.3649 142.826 14.0285 143.638 14.7721L143.715 14.8419C144.492 15.566 144.897 16.471 144.921 17.5397L144.925 17.6364C144.951 18.6329 144.713 19.5263 144.201 20.3046C143.678 21.1006 142.942 21.7205 142.004 22.1669C141.063 22.6153 139.975 22.8343 138.748 22.8343C136.465 22.8343 134.604 22.2573 133.196 21.0726C131.782 19.8836 131.058 18.2771 131.014 16.2854L131.007 15.9686L134.013 15.9686L134.024 16.2679C134.063 17.417 134.494 18.3191 135.312 19.0022C136.133 19.6658 137.244 20.0039 138.679 19.9837C139.723 19.9633 140.542 19.7386 141.159 19.3335L141.163 19.3311C141.795 18.9287 142.056 18.4587 142.039 17.9143C142.021 17.3976 141.794 16.9452 141.321 16.5477C140.836 16.1398 139.988 15.7191 138.745 15.2975L138.742 15.2966L136.734 14.5955L136.734 14.5953C135.085 14.017 133.859 13.3842 133.091 12.6837L133.087 12.6805L133.084 12.6772C132.326 11.9421 131.921 11.0387 131.875 9.98251L131.874 9.97948L131.874 9.9763C131.852 9.0245 132.091 8.17329 132.598 7.43528C133.102 6.70289 133.807 6.1375 134.702 5.73491C135.619 5.31038 136.672 5.10263 137.853 5.10223ZM88.3762 13.9524C88.3762 12.3265 88.077 10.89 87.479 9.64301L87.4202 9.52283C86.783 8.24818 85.9013 7.24973 84.7754 6.52743C83.6495 5.7839 82.3537 5.41206 80.888 5.41206C79.401 5.41207 78.0839 5.78389 76.9368 6.52743L76.8299 6.59599C75.7335 7.31245 74.8662 8.28802 74.2282 9.52283C73.5909 10.7975 73.2723 12.2741 73.2723 13.9524L73.2734 14.107C73.2933 15.7014 73.6222 17.1263 74.2602 18.3817C74.9187 19.6564 75.8215 20.6655 76.9686 21.4091C78.1004 22.1088 79.4018 22.4696 80.8725 22.4914L81.0154 22.4925C82.4148 22.4925 83.6547 22.1535 84.7351 21.4757L84.8391 21.4091C85.9437 20.6655 86.8042 19.6564 87.4202 18.3817C88.0376 17.1263 88.356 15.7014 88.3753 14.107L88.3762 13.9524ZM126.589 13.9524C126.589 12.3265 126.29 10.89 125.691 9.64301L125.633 9.52283C124.995 8.24818 124.114 7.24973 122.988 6.52743C121.897 5.80713 120.647 5.43564 119.237 5.41312L119.1 5.41206C117.613 5.41206 116.296 5.7839 115.149 6.52743L115.042 6.59599C113.946 7.31245 113.079 8.28802 112.441 9.52283C111.803 10.7975 111.485 12.2741 111.485 13.9524L111.486 14.107C111.506 15.7014 111.835 17.1263 112.473 18.3817C113.131 19.6564 114.034 20.6655 115.181 21.4091C116.313 22.1088 117.614 22.4696 119.085 22.4914L119.228 22.4925C120.627 22.4925 121.867 22.1536 122.948 21.4757L123.052 21.4091C124.156 20.6655 125.017 19.6564 125.633 18.3817C126.25 17.1263 126.568 15.7014 126.588 14.107L126.589 13.9524ZM149.419 13.9524C149.419 12.155 149.722 10.589 150.341 9.26431L150.342 9.26234L150.342 9.26052C150.982 7.93818 151.88 6.91411 153.039 6.20049C154.221 5.46436 155.607 5.10208 157.186 5.10208C159.145 5.10209 160.813 5.70971 162.17 6.93262C163.529 8.13532 164.355 9.76702 164.662 11.8029L164.715 12.1591L161.766 12.1591L161.723 11.8993C161.521 10.6667 161.001 9.71762 160.174 9.02804L160.167 9.02289C159.358 8.31198 158.37 7.95279 157.186 7.95278C155.677 7.95278 154.517 8.48044 153.668 9.52419L153.591 9.62409C152.808 10.6691 152.409 12.0996 152.429 13.9489C152.471 15.8314 152.946 17.2964 153.823 18.3748C154.716 19.4247 155.89 19.9518 157.377 19.9518L157.377 20.2618L157.23 20.2601C155.726 20.226 154.511 19.6637 153.585 18.5729C152.65 17.4257 152.162 15.8855 152.119 13.9524C152.098 11.9979 152.533 10.4576 153.426 9.33166C154.339 8.20574 155.592 7.6428 157.186 7.6428L157.302 7.64386C158.505 7.667 159.528 8.04905 160.372 8.78995C161.236 9.51026 161.782 10.4897 162.008 11.7284L162.029 11.8491L164.355 11.8491C164.067 9.93511 163.31 8.40989 162.085 7.27348L161.965 7.1648C160.71 6.03289 159.175 5.44925 157.362 5.41388L157.186 5.41206C155.656 5.41206 154.328 5.76265 153.202 6.46371L153.1 6.52834C152.044 7.20491 151.218 8.1606 150.622 9.39539L150.567 9.51556C150.008 10.7652 149.729 12.2442 149.729 13.9524L149.73 14.1149C149.749 15.789 150.056 17.2538 150.653 18.5092C151.291 19.7838 152.183 20.7717 153.33 21.4728C154.441 22.1314 155.742 22.4709 157.232 22.4914L157.377 22.4925C159.105 22.4925 160.585 21.9741 161.815 20.9373L161.933 20.8354C163.187 19.7307 163.994 18.2436 164.355 16.3741L162.029 16.3741C161.753 17.5638 161.19 18.5092 160.34 19.2103C159.512 19.9113 158.524 20.2618 157.377 20.2618L157.377 19.9518C158.455 19.9518 159.371 19.6244 160.14 18.9736L160.141 18.9723L160.143 18.9711C160.934 18.3181 161.464 17.435 161.727 16.304L161.783 16.0641L164.731 16.0641L164.659 16.433C164.287 18.3599 163.45 19.9117 162.138 21.0679C160.824 22.2261 159.231 22.8025 157.377 22.8025C155.78 22.8025 154.374 22.452 153.172 21.7395L153.17 21.7383L153.168 21.7372C151.969 21.004 151.038 19.9712 150.376 18.6478L150.375 18.6451L150.373 18.6422C149.734 17.2968 149.419 15.7307 149.419 13.9524ZM183.907 13.9524C183.907 12.3265 183.608 10.89 183.01 9.64301L182.951 9.52283C182.314 8.24818 181.433 7.24973 180.307 6.52743C179.181 5.7839 177.885 5.41206 176.419 5.41206C174.932 5.41207 173.615 5.78389 172.468 6.52743L172.361 6.59599C171.265 7.31244 170.398 8.28805 169.76 9.52283L169.701 9.64301C169.103 10.89 168.804 12.3265 168.804 13.9524L168.805 14.107C168.825 15.7014 169.153 17.1263 169.791 18.3817C170.45 19.6564 171.353 20.6655 172.5 21.4091C173.632 22.1088 174.933 22.4696 176.404 22.4914L176.547 22.4925C177.946 22.4925 179.186 22.1535 180.266 21.4757L180.37 21.4091C181.475 20.6655 182.335 19.6564 182.951 18.3817C183.569 17.1263 183.887 15.7014 183.907 14.107L183.907 13.9524ZM206.515 13.9524C206.515 12.155 206.818 10.589 207.436 9.26431L207.437 9.26234L207.438 9.26052C208.077 7.93816 208.975 6.91411 210.134 6.20049L210.246 6.13268C211.402 5.44252 212.74 5.10208 214.249 5.10208C215.746 5.10209 217.061 5.46617 218.18 6.20503C219.298 6.94297 220.152 8.00156 220.746 9.36557L220.801 9.49226C221.359 10.8091 221.633 12.3515 221.633 14.1116L221.633 14.6765L209.517 14.6765C209.662 16.2736 210.166 17.5269 211.007 18.4612C211.9 19.454 213.047 19.9518 214.472 19.9518L214.472 20.2618C213.011 20.2618 211.809 19.7633 210.867 18.7665L210.776 18.6686C209.82 17.6064 209.289 16.1722 209.183 14.3665L221.323 14.3665L221.323 14.1116C221.323 12.3828 221.054 10.8834 220.516 9.61319L220.463 9.49104C219.907 8.21507 219.122 7.22811 218.108 6.53031L218.009 6.46371C216.98 5.78456 215.772 5.43435 214.384 5.41312L214.249 5.41206C212.741 5.41206 211.424 5.76265 210.298 6.46371L210.195 6.52834C209.14 7.20491 208.314 8.16057 207.717 9.39539C207.122 10.67 206.825 12.1891 206.825 13.9524L206.826 14.1149C206.844 15.789 207.152 17.2538 207.749 18.5092C208.386 19.7838 209.278 20.7717 210.426 21.4728C211.537 22.1314 212.838 22.4709 214.328 22.4914L214.472 22.4925C216.469 22.4925 218.052 21.9614 219.22 20.8991C220.41 19.8369 221.111 18.3286 221.323 16.3741L219.093 16.3741C218.965 17.6063 218.498 18.5622 217.691 19.2421C216.905 19.9219 215.832 20.2618 214.472 20.2618L214.472 19.9518C215.781 19.9518 216.774 19.6253 217.488 19.0076L217.49 19.0062L217.491 19.005C218.226 18.3859 218.664 17.5093 218.784 16.3422L218.813 16.0641L221.669 16.0641L221.631 16.4076C221.413 18.4197 220.686 20.006 219.427 21.1304L219.427 21.1303C218.187 22.2557 216.524 22.8025 214.472 22.8025C212.875 22.8025 211.47 22.452 210.268 21.7395L210.266 21.7383L210.264 21.7372C209.064 21.004 208.133 19.9712 207.472 18.6478L207.47 18.6451L207.469 18.6422C206.829 17.2968 206.515 15.7307 206.515 13.9524ZM137.749 5.41267C136.646 5.42488 135.673 5.62648 134.829 6.0175C133.979 6.39989 133.321 6.93107 132.854 7.61086L132.81 7.67488C132.372 8.3399 132.164 9.10464 132.184 9.96904C132.227 10.9462 132.599 11.7747 133.3 12.4545C134.022 13.1131 135.201 13.7292 136.836 14.3028L138.844 15.0039C140.097 15.4287 140.99 15.8643 141.521 16.3104C142.052 16.7565 142.328 17.2877 142.349 17.9037C142.37 18.5835 142.03 19.1465 141.329 19.5926L141.265 19.6338C140.594 20.0531 139.734 20.2731 138.685 20.2937L138.546 20.2946C137.124 20.2927 135.98 19.9418 135.116 19.2421C134.224 18.4985 133.756 17.5107 133.714 16.2786L131.324 16.2786C131.367 18.1905 132.057 19.7095 133.395 20.8354C134.734 21.9613 136.518 22.5243 138.748 22.5243C139.901 22.5243 140.914 22.325 141.787 21.9263L141.871 21.8871C142.735 21.4755 143.41 20.9143 143.896 20.2036L143.942 20.1343C144.431 19.3908 144.654 18.5304 144.612 17.5532C144.59 16.5335 144.197 15.6837 143.433 15.0039C142.692 14.3247 141.482 13.6954 139.804 13.1159L139.641 13.0601L137.601 12.359C136.518 11.9766 135.743 11.6048 135.275 11.2436C134.829 10.8825 134.595 10.4682 134.574 10.0008C134.554 9.34228 134.832 8.79343 135.41 8.35418L135.466 8.31196C136.082 7.86583 136.9 7.6428 137.92 7.6428L138.025 7.6437C139.104 7.66235 140.004 7.97001 140.724 8.56684C141.468 9.18291 141.914 10.0221 142.062 11.0843L144.452 11.0525C144.41 9.2892 143.794 7.90824 142.604 6.90976C141.414 5.89008 139.832 5.39083 137.856 5.41206L137.749 5.41267ZM70.0891 5.83511L70.1222 22.3882L67.1125 22.3882L67.0807 8.68566L63.1751 8.68566L63.1751 22.3882L60.3247 22.3882L60.3247 8.68566L56.3879 8.68566L56.3879 22.3882L53.3782 22.3882L53.3782 5.83511L70.0891 5.83511ZM107.059 5.83511L107.092 22.3882L104.082 22.3882L104.05 8.68566L95.9706 8.68566L95.9706 22.3882L92.9609 22.3882L92.9609 5.83511L107.059 5.83511ZM200.696 13.6973C200.696 11.8551 200.252 10.4472 199.399 9.43595L199.395 9.4308C198.567 8.40633 197.438 7.88906 195.972 7.88906C194.459 7.88906 193.286 8.40876 192.416 9.43625L192.415 9.43746L192.414 9.43852C191.542 10.4497 191.088 11.8567 191.088 13.6973C191.088 15.6913 191.544 17.2307 192.423 18.3495C193.296 19.4599 194.468 20.0155 195.972 20.0155L195.972 20.3255C194.428 20.3255 193.194 19.7673 192.268 18.6509L192.18 18.541C191.245 17.3513 190.778 15.7368 190.778 13.6973C190.778 11.8657 191.216 10.4128 192.094 9.33878L192.18 9.236C193.114 8.13136 194.378 7.57908 195.972 7.57907L196.116 7.58059C197.598 7.61402 198.772 8.16582 199.636 9.236C200.55 10.3195 201.006 11.8066 201.006 13.6973L201.005 13.8873C200.977 15.8372 200.521 17.3885 199.636 18.541L199.551 18.6509C198.667 19.7674 197.474 20.3255 195.972 20.3255L195.972 20.0155C197.43 20.0155 198.557 19.4629 199.388 18.3551L199.389 18.3536L199.39 18.3522C200.249 17.2332 200.696 15.6928 200.696 13.6973ZM85.6764 13.9524C85.6764 12.7577 85.4602 11.7213 85.0374 10.8354L85.0356 10.8316L85.0339 10.8278C84.6292 9.91713 84.0685 9.2208 83.3559 8.72592L83.3536 8.72426L83.3512 8.72259C82.6424 8.21071 81.8252 7.95278 80.888 7.95278C79.9053 7.95278 79.0431 8.21238 78.2908 8.72713L78.2893 8.72819C77.5549 9.22443 76.9737 9.92206 76.5486 10.833C76.1471 11.7176 75.9515 12.753 75.9721 13.9469C75.9927 15.1415 76.2187 16.1907 76.6427 17.1005C77.0874 17.9881 77.6891 18.6878 78.4471 19.2073C79.2005 19.7025 80.0535 19.9518 81.0154 19.9518L81.0154 20.2618C80.0276 20.2618 79.1394 20.0126 78.351 19.5142L78.275 19.4652C77.4678 18.9128 76.8305 18.1693 76.3632 17.2346C75.931 16.3085 75.6983 15.2527 75.6648 14.0674L75.6623 13.9524C75.641 12.7202 75.8428 11.6367 76.2677 10.7019C76.6998 9.77583 77.2914 9.04911 78.0426 8.52174L78.1158 8.47134C78.923 7.91899 79.8471 7.6428 80.888 7.6428L80.9812 7.64355C81.9413 7.66027 82.7919 7.93624 83.5328 8.47134C84.2975 9.00243 84.8922 9.74597 85.3171 10.7019C85.7632 11.6367 85.9863 12.7202 85.9863 13.9524L85.9857 14.0674C85.9729 15.2527 85.7606 16.3085 85.349 17.2346C84.9242 18.1693 84.34 18.9128 83.5965 19.4652L83.5264 19.5142C82.7991 20.0126 81.962 20.2618 81.0154 20.2618L81.0154 19.9518C81.9322 19.9518 82.7281 19.7039 83.4151 19.2136C84.1097 18.6966 84.6609 17.9983 85.0657 17.1087L85.1031 17.0228C85.4828 16.1329 85.6764 15.1113 85.6764 13.9524ZM123.889 13.9524C123.889 12.7577 123.673 11.7213 123.25 10.8354L123.248 10.8316L123.246 10.8278C122.842 9.91713 122.281 9.2208 121.568 8.72592L121.566 8.72426L121.564 8.72259C120.855 8.2107 120.038 7.95278 119.1 7.95278C118.118 7.95278 117.256 8.21238 116.503 8.72713L116.502 8.72819C115.768 9.22392 115.187 9.92056 114.762 10.8301L114.725 10.9137C114.348 11.7804 114.165 12.7891 114.185 13.9469C114.205 15.1415 114.431 16.1907 114.855 17.1005C115.3 17.988 115.902 18.6876 116.66 19.2071C117.413 19.7024 118.266 19.9518 119.228 19.9518L119.228 20.2618C118.24 20.2618 117.352 20.0126 116.564 19.5142L116.488 19.4652C115.68 18.9128 115.043 18.1693 114.576 17.2346C114.144 16.3085 113.911 15.2527 113.877 14.0674L113.875 13.9524C113.853 12.7202 114.055 11.6367 114.48 10.7019C114.912 9.77581 115.504 9.04911 116.255 8.52174L116.328 8.47134C117.135 7.91899 118.06 7.6428 119.1 7.6428L119.194 7.64355C120.154 7.66027 121.004 7.93624 121.745 8.47134C122.51 9.00244 123.105 9.74594 123.53 10.7019C123.976 11.6367 124.199 12.7202 124.199 13.9524L124.198 14.0674C124.185 15.2527 123.973 16.3085 123.562 17.2346C123.137 18.1693 122.552 18.9128 121.809 19.4652L121.739 19.5142C121.012 20.0127 120.175 20.2618 119.228 20.2618L119.228 19.9518C120.145 19.9518 120.941 19.704 121.628 19.2136C122.323 18.6961 122.874 17.997 123.279 17.1062C123.683 16.1969 123.889 15.1477 123.889 13.9524ZM181.208 13.9524C181.208 12.7577 180.991 11.7213 180.569 10.8354L180.567 10.8316L180.565 10.8278C180.16 9.91713 179.6 9.2208 178.887 8.72592L178.885 8.72426L178.882 8.72259C178.174 8.21071 177.356 7.95278 176.419 7.95278C175.437 7.95278 174.574 8.21238 173.822 8.72713L173.821 8.72819C173.086 9.22443 172.505 9.92206 172.08 10.833C171.678 11.7176 171.483 12.753 171.503 13.9469C171.524 15.1415 171.75 16.1907 172.174 17.1005C172.619 17.9881 173.22 18.6878 173.978 19.2073C174.732 19.7025 175.585 19.9518 176.547 19.9518L176.547 20.2618C175.559 20.2618 174.671 20.0126 173.882 19.5142L173.806 19.4652C172.999 18.9128 172.362 18.1693 171.894 17.2346C171.462 16.3085 171.23 15.2527 171.196 14.0674L171.194 13.9524C171.172 12.7202 171.374 11.6367 171.799 10.7019C172.231 9.77583 172.823 9.04911 173.574 8.52174L173.647 8.47134C174.454 7.91899 175.378 7.6428 176.419 7.6428L176.512 7.64355C177.473 7.66026 178.323 7.93624 179.064 8.47134C179.829 9.00243 180.423 9.74597 180.848 10.7019C181.294 11.6367 181.518 12.7202 181.518 13.9524L181.517 14.0674C181.504 15.2527 181.292 16.3085 180.88 17.2346C180.455 18.1693 179.871 18.9128 179.128 19.4652L179.058 19.5142C178.33 20.0126 177.493 20.2618 176.547 20.2618L176.547 19.9518C177.463 19.9518 178.259 19.7039 178.946 19.2136C179.642 18.6961 180.193 17.997 180.598 17.1062C181.002 16.1969 181.208 15.1477 181.208 13.9524ZM210.904 8.78995C211.774 7.98267 212.89 7.60031 214.249 7.6428C215.566 7.68529 216.639 8.11012 217.468 8.91739C218.296 9.72467 218.753 10.7975 218.838 12.1359L209.47 12.1359C209.576 10.7126 210.054 9.59723 210.904 8.78995ZM214.239 7.95248C212.949 7.91221 211.918 8.2732 211.116 9.01593C210.399 9.69737 209.958 10.6254 209.812 11.8259L218.499 11.8259C218.369 10.7077 217.949 9.81917 217.251 9.13944C216.486 8.39372 215.491 7.99285 214.239 7.95248ZM88.6861 13.9524C88.6861 15.649 88.3596 17.1726 87.6992 18.5164L87.6993 18.5166C87.061 19.8374 86.1653 20.8901 85.0123 21.6662L85.0106 21.6673L85.0088 21.6685C83.849 22.4269 82.5142 22.8025 81.0154 22.8025C79.4351 22.8025 78.0285 22.4286 76.8057 21.6727L76.8028 21.6709L76.8001 21.6691C75.6055 20.8948 74.6667 19.8441 73.9847 18.524L73.9838 18.5222C73.3002 17.1771 72.9623 15.6513 72.9623 13.9524C72.9623 12.2345 73.2888 10.7089 73.9511 9.38418L73.9529 9.38055C74.6346 8.06102 75.5732 7.02057 76.7682 6.26724L76.8814 6.1955C78.0562 5.46467 79.3948 5.10208 80.888 5.10208C82.4075 5.10208 83.7626 5.4881 84.9428 6.26649C86.1187 7.02089 87.0368 8.06305 87.6974 9.38418C88.3597 10.7089 88.6861 12.2345 88.6861 13.9524ZM126.899 13.9524C126.899 15.6498 126.572 17.1743 125.911 18.5186C125.272 19.8385 124.377 20.8905 123.225 21.6662L123.223 21.6673L123.221 21.6685C122.062 22.4269 120.727 22.8025 119.228 22.8025C117.648 22.8025 116.241 22.4287 115.018 21.6727L115.015 21.6709L115.013 21.6691C113.818 20.8948 112.879 19.8441 112.197 18.524L112.196 18.5222C111.513 17.1771 111.175 15.6513 111.175 13.9524C111.175 12.2345 111.501 10.7089 112.163 9.38418L112.165 9.38237L112.165 9.38055C112.848 8.05979 113.787 7.01862 114.984 6.26512C116.185 5.48764 117.561 5.10208 119.1 5.10208C120.62 5.10208 121.975 5.48809 123.155 6.26649L123.265 6.33808C124.388 7.08632 125.27 8.10431 125.91 9.38418C126.572 10.7089 126.899 12.2345 126.899 13.9524ZM184.217 13.9524C184.217 15.6498 183.891 17.1743 183.23 18.5186C182.591 19.8385 181.696 20.8905 180.544 21.6662L180.542 21.6673L180.54 21.6685C179.38 22.4269 178.045 22.8025 176.547 22.8025C174.966 22.8025 173.56 22.4286 172.337 21.6727L172.334 21.6709L172.331 21.6691C171.137 20.8948 170.198 19.8441 169.516 18.524L169.515 18.5222C168.831 17.1771 168.494 15.6513 168.494 13.9524C168.494 12.2345 168.82 10.7089 169.482 9.38418L169.484 9.38055C170.166 8.06102 171.104 7.02057 172.299 6.26724C173.501 5.48831 174.878 5.10208 176.419 5.10208C177.939 5.10208 179.294 5.4881 180.474 6.26649C181.65 7.0209 182.568 8.06302 183.229 9.38418C183.891 10.7089 184.217 12.2345 184.217 13.9524ZM53.6881 22.0782L56.078 22.0782L56.078 8.37568L60.6347 8.37568L60.6347 22.0782L62.8651 22.0782L62.8651 8.37568L67.3899 8.37568L67.4217 22.0782L69.8115 22.0782L69.7797 6.1451L53.6881 6.1451L53.6881 22.0782ZM93.2708 22.0782L95.6607 22.0782L95.6607 8.37568L104.36 8.37568L104.391 22.0782L106.781 22.0782L106.75 6.1451L93.2708 6.1451L93.2708 22.0782ZM191.088 6.9859C191.617 6.48487 192.224 6.07922 192.907 5.76957C193.845 5.32264 194.89 5.10208 196.035 5.10208C198.383 5.10208 200.268 5.8738 201.653 7.43725C203.033 8.99561 203.706 11.0944 203.706 13.6973C203.706 15.5364 203.403 17.1434 202.786 18.5093C202.17 19.8749 201.283 20.9426 200.124 21.7003L200.123 21.7015L200.121 21.7026C198.959 22.4397 197.593 22.8025 196.035 22.8025C194.008 22.8025 192.351 22.1434 191.088 20.8218L191.088 29.6218L188.078 29.6218L188.078 5.83511L191.088 5.83511L191.088 6.9859Z" fill="#000626" fill-opacity="0.9"/>
<g clip-path="url(#clip0_2654_1191)">
<path d="M170.917 35.5C171.718 35.5 172.519 35.5 173.345 35.5C174.361 37.7338 175.098 40.1995 175.325 42.6473C174.798 42.6473 174.271 42.6473 173.728 42.6473C173.582 42.0635 173.582 42.0635 173.528 41.7699C173.517 41.7123 173.507 41.6547 173.496 41.5954C173.472 41.4348 173.472 41.4348 173.472 41.1796C172.587 41.1796 171.701 41.1796 170.789 41.1796C170.768 41.4112 170.747 41.6429 170.725 41.8815C170.706 42.0122 170.686 42.1426 170.661 42.2724C170.651 42.3305 170.64 42.3886 170.629 42.4484C170.598 42.5835 170.598 42.5835 170.534 42.6473C170.415 42.6529 170.297 42.6542 170.178 42.6536C170.106 42.6534 170.034 42.6532 169.96 42.6529C169.885 42.6524 169.809 42.6519 169.731 42.6513C169.655 42.651 169.579 42.6507 169.501 42.6505C169.313 42.6497 169.125 42.6486 168.937 42.6473C169.238 40.1842 169.908 37.7675 170.917 35.5ZM172.003 36.9039C171.767 37.3867 171.592 37.8668 171.448 38.3837C171.429 38.4493 171.41 38.5149 171.391 38.5825C171.338 38.7672 171.287 38.9522 171.236 39.1375C171.223 39.1875 171.209 39.2376 171.195 39.2892C171.138 39.5038 171.109 39.6794 171.109 39.9033C171.804 39.9033 172.5 39.9033 173.217 39.9033C172.974 38.8774 172.688 37.8926 172.322 36.9039C172.217 36.9039 172.112 36.9039 172.003 36.9039Z" fill="#000626" fill-opacity="0.9"/>
<path d="M175.19 35.5016C175.684 35.4958 176.177 35.4911 176.671 35.4884C176.9 35.487 177.13 35.4852 177.359 35.4823C177.581 35.4795 177.803 35.478 178.025 35.4774C178.15 35.4767 178.274 35.4747 178.399 35.4727C179.199 35.4725 179.909 35.6284 180.492 36.2035C181.01 36.75 181.099 37.3465 181.094 38.0741C181.074 38.7081 180.877 39.2546 180.428 39.7134C179.589 40.4814 178.435 40.4669 177.362 40.543C177.362 41.238 177.362 41.9329 177.362 42.6489C176.835 42.6489 176.308 42.6489 175.765 42.6489C175.762 41.966 175.76 41.2831 175.758 40.6002C175.757 40.2831 175.757 39.966 175.755 39.6489C175.754 39.3427 175.753 39.0365 175.753 38.7303C175.752 38.6137 175.752 38.497 175.751 38.3804C175.75 38.2166 175.75 38.0529 175.75 37.8892C175.75 37.8412 175.749 37.7933 175.749 37.7439C175.75 37.4415 175.797 37.1929 175.893 36.9055C175.843 36.9213 175.843 36.9213 175.793 36.9374C175.637 36.9693 175.637 36.9693 175.19 36.9693C175.19 36.485 175.19 36.0006 175.19 35.5016ZM177.362 36.8417C177.362 37.5998 177.362 38.358 177.362 39.1391C178.36 39.1764 178.36 39.1764 179.215 38.7562C179.468 38.4476 179.559 38.1818 179.52 37.7817C179.461 37.4418 179.371 37.2475 179.087 37.0331C178.709 36.8306 178.397 36.8179 177.973 36.8297C177.771 36.8337 177.57 36.8376 177.362 36.8417Z" fill="#000626" fill-opacity="0.9"/>
<path d="M207.513 34.9846C207.595 34.9845 207.677 34.9845 207.762 34.9844C207.804 34.9845 207.847 34.9846 207.89 34.9848C208.021 34.9851 208.152 34.9848 208.282 34.9844C208.405 34.9845 208.405 34.9845 208.531 34.9846C208.606 34.9847 208.681 34.9848 208.759 34.9848C208.931 34.9931 208.931 34.9931 208.995 35.0569C209.001 35.1998 209.002 35.3429 209.002 35.4859C209.002 35.5308 209.002 35.5756 209.002 35.6218C209.002 35.7706 209.002 35.9194 209.001 36.0682C209.001 36.1712 209.001 36.2741 209.001 36.377C209.001 36.6484 209 36.9198 208.999 37.1912C208.999 37.468 208.998 37.7447 208.998 38.0215C208.997 38.5649 208.996 39.1082 208.995 39.6516C209.087 39.5815 209.179 39.5112 209.271 39.4407C209.322 39.4015 209.373 39.3623 209.426 39.322C210.083 38.7863 210.492 37.9591 210.72 37.1628C211.247 37.1628 211.774 37.1628 212.317 37.1628C212.204 38.0605 211.733 39.0942 211.039 39.7154C211.131 39.9737 211.258 40.1822 211.41 40.4094C211.688 40.8301 211.94 41.2637 212.189 41.7017C212.226 41.766 212.263 41.8303 212.301 41.8966C212.335 41.9575 212.369 42.0184 212.405 42.0811C212.435 42.1356 212.466 42.19 212.498 42.2462C212.572 42.3957 212.572 42.3957 212.636 42.651C212.046 42.651 211.456 42.651 210.847 42.651C210.789 42.5288 210.731 42.4066 210.67 42.2808C210.613 42.1623 210.557 42.0438 210.5 41.9253C210.46 41.8431 210.421 41.7608 210.381 41.6785C210.325 41.5601 210.268 41.4418 210.211 41.3235C210.177 41.2524 210.143 41.1812 210.108 41.1078C210.018 40.9216 210.018 40.9216 209.889 40.7365C209.824 40.7768 209.824 40.7768 209.758 40.818C209.701 40.853 209.644 40.8879 209.586 40.924C209.529 40.9587 209.473 40.9935 209.415 41.0294C209.25 41.1194 209.25 41.1194 208.995 41.1832C208.995 41.6676 208.995 42.1519 208.995 42.651C208.489 42.651 207.983 42.651 207.462 42.651C207.462 40.5661 207.462 38.4813 207.462 36.3332C207.419 36.3543 207.377 36.3753 207.334 36.397C207.144 36.397 206.954 36.397 206.759 36.397C206.759 35.9548 206.759 35.5126 206.759 35.0569C207.027 35.0034 207.242 34.9849 207.513 34.9846Z" fill="#000626" fill-opacity="0.9"/>
<path d="M201.864 37.4853C202.167 37.7155 202.362 37.9684 202.539 38.303C202.576 38.3724 202.576 38.3724 202.614 38.4433C203.022 39.3193 202.975 40.3222 202.687 41.2225C202.446 41.8335 202.009 42.3272 201.403 42.5926C200.504 42.9301 199.621 42.933 198.728 42.5744C198.048 42.2645 197.698 41.8026 197.428 41.1108C197.151 40.1669 197.148 39.233 197.584 38.3309C197.915 37.7336 198.375 37.3588 199.022 37.1264C199.975 36.8667 201.024 36.9501 201.864 37.4853ZM199.169 38.6699C198.887 39.077 198.799 39.3995 198.806 39.8864C198.807 39.937 198.807 39.9875 198.808 40.0396C198.822 40.5028 198.876 40.8879 199.207 41.234C199.539 41.4949 199.841 41.5424 200.257 41.5182C200.656 41.4622 200.874 41.2764 201.117 40.9712C201.422 40.532 201.417 39.9453 201.345 39.4357C201.249 38.9393 201.023 38.6584 200.623 38.3668C200.096 38.1966 199.566 38.2735 199.169 38.6699Z" fill="#000626" fill-opacity="0.9"/>
<path d="M195.911 37.4737C195.99 37.5406 196.067 37.6098 196.143 37.6811C196.182 37.7178 196.221 37.7544 196.262 37.7922C196.939 38.4904 197.004 39.3578 196.991 40.2768C196.962 41.0775 196.654 41.7015 196.091 42.2638C195.298 42.8076 194.476 42.9744 193.52 42.8182C192.82 42.6437 192.209 42.347 191.82 41.7231C191.334 40.8194 191.227 39.8912 191.48 38.9008C191.732 38.1036 192.149 37.6223 192.885 37.2344C193.781 36.8356 195.106 36.9129 195.911 37.4737ZM193.284 38.6503C192.902 39.1273 192.848 39.7381 192.898 40.3329C192.98 40.7803 193.175 41.1268 193.527 41.4143C193.906 41.6009 194.369 41.5655 194.761 41.4422C195.112 41.1837 195.331 40.9149 195.44 40.4889C195.501 39.9207 195.542 39.2433 195.184 38.7659C194.954 38.5125 194.694 38.3417 194.35 38.3053C193.926 38.2881 193.621 38.3826 193.284 38.6503Z" fill="#000626" fill-opacity="0.9"/>
<path d="M181.391 35.5C182.909 35.5 184.427 35.5 185.991 35.5C185.991 35.9422 185.991 36.3845 185.991 36.8401C185.485 36.8401 184.979 36.8401 184.457 36.8401C184.457 38.3143 184.457 39.7884 184.457 41.3072C184.963 41.3072 185.469 41.3072 185.991 41.3072C185.991 41.7495 185.991 42.1917 185.991 42.6473C184.473 42.6473 182.955 42.6473 181.391 42.6473C181.34 42.3426 181.319 42.0674 181.323 41.7619C181.324 41.6118 181.326 41.4618 181.327 41.3072C181.833 41.3072 182.339 41.3072 182.86 41.3072C182.86 39.8331 182.86 38.3589 182.86 36.8401C182.354 36.8401 181.848 36.8401 181.327 36.8401C181.326 36.6901 181.324 36.54 181.323 36.3854C181.323 36.339 181.322 36.2925 181.321 36.2446C181.32 35.9828 181.347 35.7624 181.391 35.5Z" fill="#000626" fill-opacity="0.9"/>
<path d="M187.209 35.5664C187.757 35.5664 188.306 35.5664 188.87 35.5664C188.838 36.0799 188.799 36.5862 188.742 37.098C189.48 37.119 190.218 37.1401 190.978 37.1618C191.02 37.413 191.051 37.6126 191.05 37.8598C191.051 37.9357 191.051 37.9357 191.051 38.0131C191.04 38.2197 191.008 38.4247 190.978 38.6295C190.262 38.5874 189.545 38.5453 188.806 38.5019C188.81 38.8313 188.814 39.1604 188.82 39.4897C188.821 39.6016 188.823 39.7135 188.824 39.8254C188.825 39.9867 188.828 40.1479 188.831 40.3092C188.831 40.3589 188.831 40.4085 188.832 40.4597C188.84 40.7915 188.909 40.981 189.126 41.246C189.49 41.512 189.935 41.4313 190.355 41.3706C190.478 41.3514 190.6 41.3306 190.723 41.3098C190.849 41.2887 190.976 41.2677 191.106 41.246C191.169 41.604 191.233 41.962 191.298 42.3308C190.468 42.8147 189.392 43.0116 188.455 42.7656C187.929 42.5751 187.686 42.3235 187.418 41.8335C187.147 41.1466 187.194 40.4322 187.201 39.7064C187.202 39.5894 187.203 39.4724 187.203 39.3555C187.204 39.0709 187.207 38.7864 187.209 38.5019C186.703 38.5651 186.703 38.5651 186.187 38.6295C186.187 38.1452 186.187 37.6608 186.187 37.1618C186.546 37.1618 186.904 37.1618 187.273 37.1618C187.242 36.3721 187.242 36.3721 187.209 35.5664Z" fill="#000626" fill-opacity="0.9"/>
<path d="M217.49 35.5664C218.038 35.5664 218.586 35.5664 219.151 35.5664C219.131 35.7941 219.112 36.0218 219.091 36.2564C219.085 36.328 219.079 36.3995 219.073 36.4732C219.065 36.558 219.065 36.558 219.058 36.6445C219.053 36.7024 219.048 36.7602 219.042 36.8197C219.023 36.9703 219.023 36.9703 218.96 37.1618C219.718 37.1618 220.477 37.1618 221.259 37.1618C221.259 37.6462 221.259 38.1305 221.259 38.6295C220.521 38.5874 219.784 38.5453 219.023 38.5019C219.031 38.8402 219.039 39.1784 219.047 39.527C219.05 39.6328 219.052 39.7387 219.054 39.8478C219.056 39.933 219.059 40.0183 219.061 40.1035C219.062 40.1683 219.062 40.1683 219.063 40.2344C219.074 40.5856 219.109 40.9199 219.331 41.2021C219.751 41.5259 220.185 41.4314 220.684 41.3736C220.92 41.3372 221.154 41.295 221.387 41.246C221.466 41.6332 221.532 41.9989 221.515 42.3947C220.607 42.798 219.555 43.0588 218.585 42.7117C218.148 42.5143 217.888 42.2536 217.682 41.8203C217.429 41.1424 217.468 40.4413 217.478 39.7304C217.479 39.6109 217.48 39.4914 217.481 39.3719C217.483 39.0819 217.486 38.7919 217.49 38.5019C217.428 38.5111 217.366 38.5203 217.301 38.5298C217.22 38.5417 217.139 38.5535 217.055 38.5657C216.974 38.5776 216.893 38.5894 216.81 38.6016C216.596 38.6295 216.596 38.6295 216.404 38.6295C216.404 38.1452 216.404 37.6608 216.404 37.1618C216.784 37.1618 217.163 37.1618 217.554 37.1618C217.538 37.0157 217.538 37.0157 217.522 36.8666C217.482 36.4325 217.486 36.0022 217.49 35.5664Z" fill="#000626" fill-opacity="0.9"/>
<path d="M205.731 34.9961C205.731 37.102 205.731 39.2079 205.731 41.3776C205.879 41.3566 206.026 41.3355 206.178 41.3138C206.413 41.3064 206.646 41.3109 206.881 41.3138C206.881 41.756 206.881 42.1983 206.881 42.6539C205.616 42.6539 204.351 42.6539 203.048 42.6539C202.989 42.4774 202.977 42.3742 202.978 42.1925C202.978 42.1157 202.978 42.1157 202.978 42.0373C202.979 41.9842 202.98 41.931 202.98 41.8762C202.981 41.7953 202.981 41.7953 202.981 41.7128C202.982 41.5798 202.983 41.4468 202.984 41.3138C203.115 41.3121 203.245 41.3108 203.375 41.3098C203.448 41.3091 203.521 41.3083 203.595 41.3076C203.815 41.3138 203.815 41.3138 204.198 41.3776C204.198 39.7139 204.198 38.0503 204.198 36.3362C204.008 36.3783 203.818 36.4204 203.623 36.4638C203.433 36.4849 203.243 36.5059 203.048 36.5276C203.048 36.0433 203.048 35.5589 203.048 35.0599C203.93 34.913 204.836 34.9961 205.731 34.9961Z" fill="#000626" fill-opacity="0.9"/>
<path d="M213.06 37.1641C213.168 37.1641 213.276 37.1644 213.383 37.1651C213.459 37.1652 213.459 37.1652 213.535 37.1653C213.724 37.1656 213.912 37.1665 214.1 37.1673C214.52 37.1686 214.941 37.17 215.374 37.1713C215.374 38.5612 215.374 39.9511 215.374 41.3831C215.532 41.3515 215.532 41.3515 215.693 41.3193C215.817 41.3151 215.941 41.3138 216.064 41.3153C216.158 41.3162 216.158 41.3162 216.253 41.3171C216.3 41.3178 216.347 41.3186 216.396 41.3193C216.397 41.4709 216.399 41.6224 216.4 41.774C216.4 41.8164 216.401 41.8589 216.401 41.9026C216.403 42.1683 216.376 42.3934 216.332 42.6594C215.151 42.6594 213.971 42.6594 212.754 42.6594C212.754 42.2172 212.754 41.775 212.754 41.3193C212.934 41.3173 212.934 41.3173 213.118 41.3153C213.185 41.3146 213.253 41.3138 213.322 41.3131C213.521 41.3193 213.521 41.3193 213.84 41.3831C213.84 40.4355 213.84 39.4878 213.84 38.5114C213.334 38.6062 213.334 38.6062 212.818 38.7029C212.713 38.5973 212.746 38.4729 212.746 38.328C212.746 38.2651 212.746 38.2023 212.746 38.1375C212.746 38.0714 212.746 38.0052 212.746 37.9371C212.746 37.8379 212.746 37.8379 212.746 37.7367C212.746 37.6738 212.746 37.611 212.746 37.5462C212.746 37.4881 212.746 37.4301 212.746 37.3702C212.761 37.1323 212.809 37.1716 213.06 37.1641Z" fill="#000626" fill-opacity="0.9"/>
<path d="M215.11 34.8492C215.348 35.0876 215.462 35.3045 215.482 35.6409C215.47 35.9125 215.376 36.0734 215.198 36.2807C214.837 36.544 214.475 36.5197 214.045 36.4726C213.78 36.3929 213.631 36.2666 213.472 36.0367C213.366 35.7194 213.364 35.4902 213.484 35.177C213.827 34.6388 214.562 34.6038 215.11 34.8492Z" fill="#000626" fill-opacity="0.9"/>
</g>
<path d="M145.597 38.5898L145.597 39.0505L144.103 39.0505L144.103 38.5898L145.597 38.5898ZM144.477 41.1172L144.477 38.3512C144.477 38.1811 144.512 38.0396 144.582 37.9266C144.654 37.8137 144.749 37.7292 144.869 37.6732C144.988 37.6173 145.121 37.5893 145.267 37.5893C145.37 37.5893 145.461 37.5976 145.542 37.614C145.622 37.6305 145.681 37.6453 145.719 37.6584L145.601 38.1192C145.576 38.1115 145.544 38.1038 145.505 38.0961C145.467 38.0874 145.424 38.083 145.377 38.083C145.266 38.083 145.188 38.1098 145.142 38.1636C145.097 38.2162 145.074 38.2919 145.074 38.3907L145.074 41.1172L144.477 41.1172ZM147.071 41.1666C146.825 41.1666 146.611 41.1123 146.43 41.0037C146.249 40.8951 146.108 40.7431 146.008 40.5479C145.91 40.3526 145.86 40.1244 145.86 39.8634C145.86 39.6023 145.91 39.3736 146.008 39.1772C146.108 38.9808 146.249 38.8284 146.43 38.7198C146.611 38.6112 146.825 38.5569 147.071 38.5569C147.318 38.5569 147.532 38.6112 147.713 38.7198C147.894 38.8284 148.034 38.9808 148.133 39.1772C148.233 39.3736 148.282 39.6023 148.282 39.8634C148.282 40.1244 148.233 40.3526 148.133 40.5479C148.034 40.7431 147.894 40.8951 147.713 41.0037C147.532 41.1123 147.318 41.1666 147.071 41.1666ZM147.075 40.6894C147.208 40.6894 147.32 40.6526 147.41 40.5791C147.5 40.5045 147.567 40.4047 147.611 40.2797C147.656 40.1546 147.679 40.0153 147.679 39.8617C147.679 39.707 147.656 39.5672 147.611 39.4421C147.567 39.316 147.5 39.2156 147.41 39.141C147.32 39.0664 147.208 39.0291 147.075 39.0291C146.938 39.0291 146.823 39.0664 146.732 39.141C146.642 39.2156 146.575 39.316 146.53 39.4421C146.486 39.5672 146.464 39.707 146.464 39.8617C146.464 40.0153 146.486 40.1546 146.53 40.2797C146.575 40.4047 146.642 40.5045 146.732 40.5791C146.823 40.6526 146.938 40.6894 147.075 40.6894ZM148.788 41.1172L148.788 38.5898L149.366 38.5898L149.366 39.011L149.392 39.011C149.438 38.8651 149.517 38.7527 149.629 38.6737C149.742 38.5936 149.871 38.5536 150.015 38.5536C150.048 38.5536 150.085 38.5552 150.126 38.5585C150.167 38.5607 150.202 38.5645 150.229 38.57L150.229 39.118C150.204 39.1092 150.164 39.1015 150.109 39.0949C150.056 39.0872 150.003 39.0834 149.953 39.0834C149.844 39.0834 149.747 39.107 149.66 39.1542C149.575 39.2002 149.507 39.2644 149.458 39.3467C149.408 39.4289 149.384 39.5238 149.384 39.6313L149.384 41.1172L148.788 41.1172ZM150.625 41.1172L150.625 38.5898L151.194 38.5898L151.194 39.0192L151.224 39.0192C151.277 38.8744 151.364 38.7614 151.486 38.6803C151.607 38.598 151.753 38.5569 151.922 38.5569C152.093 38.5569 152.237 38.5985 152.355 38.6819C152.473 38.7642 152.556 38.8766 152.605 39.0192L152.631 39.0192C152.687 38.8788 152.781 38.7669 152.914 38.6836C153.048 38.5991 153.206 38.5569 153.39 38.5569C153.622 38.5569 153.812 38.6304 153.959 38.7773C154.106 38.9243 154.179 39.1388 154.179 39.4207L154.179 41.1172L153.582 41.1172L153.582 39.5129C153.582 39.356 153.54 39.2414 153.457 39.169C153.374 39.0955 153.272 39.0587 153.151 39.0587C153.007 39.0587 152.895 39.1037 152.814 39.1936C152.734 39.2825 152.693 39.3982 152.693 39.5408L152.693 41.1172L152.109 41.1172L152.109 39.4882C152.109 39.3576 152.07 39.2534 151.991 39.1755C151.913 39.0977 151.811 39.0587 151.685 39.0587C151.599 39.0587 151.521 39.0807 151.451 39.1245C151.381 39.1673 151.325 39.2282 151.283 39.3072C151.242 39.3851 151.221 39.4761 151.221 39.5803L151.221 41.1172L150.625 41.1172ZM155.903 41.1666C155.649 41.1666 155.43 41.1139 155.246 41.0086C155.063 40.9022 154.922 40.7519 154.823 40.5577C154.724 40.3625 154.675 40.1327 154.675 39.8683C154.675 39.6083 154.724 39.3801 154.823 39.1838C154.923 38.9863 155.062 38.8327 155.241 38.723C155.42 38.6123 155.63 38.5569 155.871 38.5569C156.027 38.5569 156.174 38.5821 156.312 38.6325C156.452 38.6819 156.574 38.7587 156.681 38.8629C156.788 38.9671 156.873 39.0999 156.934 39.2611C156.996 39.4213 157.026 39.6121 157.026 39.8337L157.026 40.0164L154.955 40.0164L154.955 39.6149L156.455 39.6149C156.454 39.5008 156.43 39.3993 156.381 39.3105C156.333 39.2205 156.266 39.1498 156.179 39.0982C156.093 39.0467 155.994 39.0209 155.879 39.0209C155.758 39.0209 155.651 39.0505 155.559 39.1097C155.466 39.1679 155.395 39.2447 155.343 39.3401C155.293 39.4344 155.267 39.5381 155.266 39.6511L155.266 40.0016C155.266 40.1486 155.293 40.2747 155.346 40.38C155.4 40.4842 155.475 40.5643 155.572 40.6203C155.668 40.6751 155.781 40.7025 155.911 40.7025C155.997 40.7025 156.076 40.6905 156.146 40.6663C156.216 40.6411 156.277 40.6044 156.329 40.5561C156.38 40.5078 156.419 40.448 156.446 40.3767L157.002 40.4393C156.967 40.5863 156.9 40.7146 156.801 40.8243C156.703 40.9329 156.578 41.0174 156.426 41.0777C156.273 41.1369 156.099 41.1666 155.903 41.1666ZM157.53 41.1172L157.53 38.5898L158.108 38.5898L158.108 39.011L158.134 39.011C158.18 38.8651 158.259 38.7527 158.371 38.6737C158.484 38.5936 158.613 38.5536 158.758 38.5536C158.791 38.5536 158.827 38.5552 158.868 38.5585C158.91 38.5607 158.944 38.5645 158.972 38.57L158.972 39.118C158.946 39.1092 158.906 39.1015 158.852 39.0949C158.798 39.0872 158.746 39.0834 158.695 39.0834C158.587 39.0834 158.489 39.107 158.402 39.1542C158.317 39.2002 158.249 39.2644 158.2 39.3467C158.151 39.4289 158.126 39.5238 158.126 39.6313L158.126 41.1172L157.53 41.1172ZM159.963 37.7473L159.963 41.1172L159.367 41.1172L159.367 37.7473L159.963 37.7473ZM160.946 42.065C160.865 42.065 160.79 42.0584 160.72 42.0452C160.652 42.0332 160.598 42.0189 160.558 42.0024L160.696 41.5384C160.782 41.5637 160.86 41.5757 160.928 41.5746C160.996 41.5735 161.056 41.5521 161.107 41.5105C161.16 41.4699 161.204 41.4019 161.24 41.3064L161.291 41.1698L160.375 38.5898L161.007 38.5898L161.589 40.4985L161.616 40.4985L162.2 38.5898L162.833 38.5898L161.821 41.4232C161.774 41.5571 161.712 41.6717 161.634 41.7671C161.556 41.8637 161.46 41.9372 161.347 41.9876C161.235 42.0392 161.102 42.065 160.946 42.065Z" fill="#000626" fill-opacity="0.9"/>
<defs>
<clipPath id="clip0_2654_1191">
<rect width="53.086" height="11.4233" fill="white" transform="translate(168.428 33.0859)"/>
</clipPath>
</defs>
</svg>
