<svg width="558" height="564" viewBox="0 0 558 564" fill="none" xmlns="http://www.w3.org/2000/svg">
<g filter="url(#filter0_d_919_476)">
<g clip-path="url(#clip0_919_476)">
<rect x="39" y="20" width="480" height="480" rx="14.2222" fill="#3819CB"/>
<g filter="url(#filter1_f_919_476)">
<g filter="url(#filter2_f_919_476)">
<ellipse cx="270.856" cy="420.901" rx="80.3008" ry="79.3095" fill="#E1EF9A"/>
</g>
<g filter="url(#filter3_bf_919_476)">
<ellipse cx="445.276" cy="345.532" rx="80.3008" ry="79.3095" fill="#E1EF9A"/>
</g>
</g>
<mask id="path-5-inside-1_919_476" fill="white">
<path fill-rule="evenodd" clip-rule="evenodd" d="M58.1105 13.1706C58.1105 0.987582 67.9868 -8.88867 80.1698 -8.88867C92.3528 -8.88867 102.229 0.987559 102.229 13.1705V55.1075C102.229 73.8508 117.423 89.0453 136.167 89.0453H143.682C158.275 89.0453 170.105 77.2155 170.105 62.6226C170.105 48.0297 181.934 36.1999 196.527 36.1999H253.058C267.757 36.1999 279.674 48.1163 279.674 62.816C279.674 77.5156 291.59 89.4321 306.29 89.4321H412.83C415.773 89.4321 417.244 89.4321 418.486 89.5191C436.163 90.7585 450.228 104.824 451.468 122.501C451.555 123.743 451.555 125.214 451.555 128.157V135.159C451.555 152.679 465.758 166.881 483.277 166.881C500.797 166.881 515 181.084 515 198.604V304.36C515 321.88 500.797 336.083 483.277 336.083C465.758 336.083 451.555 350.285 451.555 367.805V560.833C451.555 594.355 451.555 611.116 441.141 621.53C430.727 631.944 413.966 631.944 380.444 631.944H309.806C279.596 631.944 264.49 631.944 254.496 623.355C253.137 622.188 251.87 620.92 250.703 619.562C242.113 609.567 242.113 594.461 242.113 564.251V517.439C242.113 505.907 232.765 496.558 221.232 496.558C209.7 496.558 200.351 505.907 200.351 517.439V530.495C200.351 549.238 185.157 564.433 166.414 564.433H124.72C105.977 564.433 90.7825 549.238 90.7825 530.495V517.404C90.7825 505.891 81.4495 496.558 69.9366 496.558C58.4238 496.558 49.0907 505.891 49.0907 517.404V562.251C49.0907 590.537 49.0907 604.68 41.4989 614.347C39.7446 616.581 37.7289 618.597 35.4948 620.351C25.8273 627.943 11.6843 627.943 -16.6019 627.943H-64.9987C-98.5208 627.943 -115.282 627.943 -125.696 617.529C-136.11 607.115 -136.11 590.354 -136.11 556.832V438.222C-136.11 404.7 -136.11 387.939 -125.696 377.525C-115.282 367.111 -98.5209 367.111 -64.9988 367.111H12.4855C28.9525 367.111 42.3016 353.762 42.3016 337.295C42.3016 320.828 55.6507 307.479 72.1177 307.479H198.347C205.976 307.479 209.791 307.479 212.971 306.896C227.499 304.231 238.866 292.864 241.53 278.337C242.113 275.156 242.113 271.342 242.113 263.712V255.95C242.113 255.534 242.113 255.325 242.112 255.149C241.92 235.788 226.271 220.14 206.91 219.948C206.734 219.946 206.526 219.946 206.109 219.946H196.527C181.934 219.946 170.105 208.116 170.105 193.524C170.105 178.931 158.275 167.101 143.682 167.101H136.167C117.423 167.101 102.229 182.296 102.229 201.039V229.884C102.229 242.067 92.3528 251.944 80.1698 251.944C67.9868 251.944 58.1105 242.067 58.1105 229.884V13.1706Z"/>
</mask>
<path fill-rule="evenodd" clip-rule="evenodd" d="M58.1105 13.1706C58.1105 0.987582 67.9868 -8.88867 80.1698 -8.88867C92.3528 -8.88867 102.229 0.987559 102.229 13.1705V55.1075C102.229 73.8508 117.423 89.0453 136.167 89.0453H143.682C158.275 89.0453 170.105 77.2155 170.105 62.6226C170.105 48.0297 181.934 36.1999 196.527 36.1999H253.058C267.757 36.1999 279.674 48.1163 279.674 62.816C279.674 77.5156 291.59 89.4321 306.29 89.4321H412.83C415.773 89.4321 417.244 89.4321 418.486 89.5191C436.163 90.7585 450.228 104.824 451.468 122.501C451.555 123.743 451.555 125.214 451.555 128.157V135.159C451.555 152.679 465.758 166.881 483.277 166.881C500.797 166.881 515 181.084 515 198.604V304.36C515 321.88 500.797 336.083 483.277 336.083C465.758 336.083 451.555 350.285 451.555 367.805V560.833C451.555 594.355 451.555 611.116 441.141 621.53C430.727 631.944 413.966 631.944 380.444 631.944H309.806C279.596 631.944 264.49 631.944 254.496 623.355C253.137 622.188 251.87 620.92 250.703 619.562C242.113 609.567 242.113 594.461 242.113 564.251V517.439C242.113 505.907 232.765 496.558 221.232 496.558C209.7 496.558 200.351 505.907 200.351 517.439V530.495C200.351 549.238 185.157 564.433 166.414 564.433H124.72C105.977 564.433 90.7825 549.238 90.7825 530.495V517.404C90.7825 505.891 81.4495 496.558 69.9366 496.558C58.4238 496.558 49.0907 505.891 49.0907 517.404V562.251C49.0907 590.537 49.0907 604.68 41.4989 614.347C39.7446 616.581 37.7289 618.597 35.4948 620.351C25.8273 627.943 11.6843 627.943 -16.6019 627.943H-64.9987C-98.5208 627.943 -115.282 627.943 -125.696 617.529C-136.11 607.115 -136.11 590.354 -136.11 556.832V438.222C-136.11 404.7 -136.11 387.939 -125.696 377.525C-115.282 367.111 -98.5209 367.111 -64.9988 367.111H12.4855C28.9525 367.111 42.3016 353.762 42.3016 337.295C42.3016 320.828 55.6507 307.479 72.1177 307.479H198.347C205.976 307.479 209.791 307.479 212.971 306.896C227.499 304.231 238.866 292.864 241.53 278.337C242.113 275.156 242.113 271.342 242.113 263.712V255.95C242.113 255.534 242.113 255.325 242.112 255.149C241.92 235.788 226.271 220.14 206.91 219.948C206.734 219.946 206.526 219.946 206.109 219.946H196.527C181.934 219.946 170.105 208.116 170.105 193.524C170.105 178.931 158.275 167.101 143.682 167.101H136.167C117.423 167.101 102.229 182.296 102.229 201.039V229.884C102.229 242.067 92.3528 251.944 80.1698 251.944C67.9868 251.944 58.1105 242.067 58.1105 229.884V13.1706Z" fill="#4223D5"/>
<path fill-rule="evenodd" clip-rule="evenodd" d="M58.1105 13.1706C58.1105 0.987582 67.9868 -8.88867 80.1698 -8.88867C92.3528 -8.88867 102.229 0.987559 102.229 13.1705V55.1075C102.229 73.8508 117.423 89.0453 136.167 89.0453H143.682C158.275 89.0453 170.105 77.2155 170.105 62.6226C170.105 48.0297 181.934 36.1999 196.527 36.1999H253.058C267.757 36.1999 279.674 48.1163 279.674 62.816C279.674 77.5156 291.59 89.4321 306.29 89.4321H412.83C415.773 89.4321 417.244 89.4321 418.486 89.5191C436.163 90.7585 450.228 104.824 451.468 122.501C451.555 123.743 451.555 125.214 451.555 128.157V135.159C451.555 152.679 465.758 166.881 483.277 166.881C500.797 166.881 515 181.084 515 198.604V304.36C515 321.88 500.797 336.083 483.277 336.083C465.758 336.083 451.555 350.285 451.555 367.805V560.833C451.555 594.355 451.555 611.116 441.141 621.53C430.727 631.944 413.966 631.944 380.444 631.944H309.806C279.596 631.944 264.49 631.944 254.496 623.355C253.137 622.188 251.87 620.92 250.703 619.562C242.113 609.567 242.113 594.461 242.113 564.251V517.439C242.113 505.907 232.765 496.558 221.232 496.558C209.7 496.558 200.351 505.907 200.351 517.439V530.495C200.351 549.238 185.157 564.433 166.414 564.433H124.72C105.977 564.433 90.7825 549.238 90.7825 530.495V517.404C90.7825 505.891 81.4495 496.558 69.9366 496.558C58.4238 496.558 49.0907 505.891 49.0907 517.404V562.251C49.0907 590.537 49.0907 604.68 41.4989 614.347C39.7446 616.581 37.7289 618.597 35.4948 620.351C25.8273 627.943 11.6843 627.943 -16.6019 627.943H-64.9987C-98.5208 627.943 -115.282 627.943 -125.696 617.529C-136.11 607.115 -136.11 590.354 -136.11 556.832V438.222C-136.11 404.7 -136.11 387.939 -125.696 377.525C-115.282 367.111 -98.5209 367.111 -64.9988 367.111H12.4855C28.9525 367.111 42.3016 353.762 42.3016 337.295C42.3016 320.828 55.6507 307.479 72.1177 307.479H198.347C205.976 307.479 209.791 307.479 212.971 306.896C227.499 304.231 238.866 292.864 241.53 278.337C242.113 275.156 242.113 271.342 242.113 263.712V255.95C242.113 255.534 242.113 255.325 242.112 255.149C241.92 235.788 226.271 220.14 206.91 219.948C206.734 219.946 206.526 219.946 206.109 219.946H196.527C181.934 219.946 170.105 208.116 170.105 193.524C170.105 178.931 158.275 167.101 143.682 167.101H136.167C117.423 167.101 102.229 182.296 102.229 201.039V229.884C102.229 242.067 92.3528 251.944 80.1698 251.944C67.9868 251.944 58.1105 242.067 58.1105 229.884V13.1706Z" fill="url(#paint0_linear_919_476)"/>
<path d="M242.112 255.149L242.556 255.145L242.112 255.149ZM206.91 219.948L206.906 220.392L206.91 219.948ZM212.971 306.896L212.891 306.458L212.971 306.896ZM241.53 278.337L241.093 278.256L241.53 278.337ZM-125.696 377.525L-125.382 377.839L-125.696 377.525ZM-125.696 617.529L-126.01 617.844L-125.696 617.529ZM41.4989 614.347L41.1494 614.073L41.4989 614.347ZM35.4948 620.351L35.2203 620.002L35.4948 620.351ZM254.496 623.355L254.206 623.692L254.496 623.355ZM250.703 619.562L251.04 619.272L250.703 619.562ZM441.141 621.53L441.455 621.844L441.141 621.53ZM418.486 89.5191L418.455 89.9625L418.486 89.5191ZM451.468 122.501L451.911 122.47L451.468 122.501ZM101.785 55.1075V13.1705H102.673V55.1075H101.785ZM143.682 89.4898H136.167V88.6009H143.682V89.4898ZM253.058 36.6443H196.527V35.7554H253.058V36.6443ZM412.83 89.8765H306.29V88.9876H412.83V89.8765ZM451.111 135.159V128.157H451.999V135.159H451.111ZM514.556 304.36V198.604H515.444V304.36H514.556ZM451.111 560.833V367.805H451.999V560.833H451.111ZM309.806 631.499H380.444V632.388H309.806V631.499ZM242.558 517.439V564.251H241.669V517.439H242.558ZM199.907 530.495V517.439H200.796V530.495H199.907ZM124.72 563.988H166.414V564.877H124.72V563.988ZM91.227 517.404V530.495H90.3381V517.404H91.227ZM48.6463 562.251V517.404H49.5352V562.251H48.6463ZM-64.9987 627.499H-16.6019V628.388H-64.9987V627.499ZM-135.665 438.222V556.832H-136.554V438.222H-135.665ZM12.4855 367.555H-64.9988V366.667H12.4855V367.555ZM198.347 307.923H72.1177V307.034H198.347V307.923ZM242.558 255.95V263.712H241.669V255.95H242.558ZM196.527 219.502H206.109V220.39H196.527V219.502ZM136.167 166.657H143.682V167.546H136.167V166.657ZM101.785 229.884V201.039H102.673V229.884H101.785ZM58.555 13.1706V229.884H57.6661V13.1706H58.555ZM80.1698 252.388C67.7413 252.388 57.6661 242.313 57.6661 229.884H58.555C58.555 241.822 68.2323 251.499 80.1698 251.499V252.388ZM102.673 229.884C102.673 242.313 92.5982 252.388 80.1698 252.388V251.499C92.1073 251.499 101.785 241.822 101.785 229.884H102.673ZM136.167 167.546C117.669 167.546 102.673 182.541 102.673 201.039H101.785C101.785 182.05 117.178 166.657 136.167 166.657V167.546ZM169.66 193.524C169.66 179.176 158.029 167.546 143.682 167.546V166.657C158.52 166.657 170.549 178.685 170.549 193.524H169.66ZM196.527 220.39C181.689 220.39 169.66 208.362 169.66 193.524H170.549C170.549 207.871 182.18 219.502 196.527 219.502V220.39ZM241.669 255.95C241.669 255.533 241.669 255.327 241.667 255.153L242.556 255.145C242.558 255.324 242.558 255.535 242.558 255.95H241.669ZM206.109 219.502C206.525 219.502 206.736 219.502 206.915 219.503L206.906 220.392C206.732 220.39 206.527 220.39 206.109 220.39V219.502ZM241.667 255.153C241.478 236.034 226.025 220.582 206.906 220.392L206.915 219.503C226.518 219.698 242.362 235.542 242.556 255.145L241.667 255.153ZM198.347 307.034C205.996 307.034 209.761 307.032 212.891 306.458L213.051 307.333C209.821 307.925 205.957 307.923 198.347 307.923V307.034ZM242.558 263.712C242.558 271.322 242.56 275.187 241.967 278.417L241.093 278.256C241.667 275.126 241.669 271.361 241.669 263.712H242.558ZM212.891 306.458C227.237 303.828 238.462 292.602 241.093 278.256L241.967 278.417C239.27 293.126 227.76 304.635 213.051 307.333L212.891 306.458ZM41.8572 337.295C41.8572 320.582 55.4052 307.034 72.1177 307.034V307.923C55.8961 307.923 42.7461 321.073 42.7461 337.295H41.8572ZM12.4855 366.667C28.707 366.667 41.8572 353.516 41.8572 337.295H42.7461C42.7461 354.007 29.1979 367.555 12.4855 367.555V366.667ZM-136.554 438.222C-136.554 421.474 -136.555 408.867 -135.249 399.149C-133.94 389.417 -131.313 382.514 -126.01 377.211L-125.382 377.839C-130.492 382.95 -133.073 389.634 -134.368 399.267C-135.664 408.913 -135.665 421.448 -135.665 438.222H-136.554ZM-64.9988 367.555C-81.7724 367.555 -94.3079 367.556 -103.954 368.853C-113.587 370.148 -120.271 372.729 -125.382 377.839L-126.01 377.211C-120.707 371.907 -113.804 369.281 -104.072 367.972C-94.3533 366.666 -81.7473 366.667 -64.9988 366.667V367.555ZM-64.9987 628.388C-81.7472 628.388 -94.3533 628.389 -104.072 627.082C-113.804 625.774 -120.707 623.147 -126.01 617.844L-125.382 617.215C-120.271 622.326 -113.587 624.906 -103.954 626.201C-94.3079 627.498 -81.7723 627.499 -64.9987 627.499V628.388ZM-135.665 556.832C-135.665 573.606 -135.664 586.141 -134.368 595.787C-133.073 605.42 -130.492 612.104 -125.382 617.215L-126.01 617.844C-131.313 612.54 -133.94 605.637 -135.249 595.905C-136.555 586.187 -136.554 573.581 -136.554 556.832H-135.665ZM49.5352 562.251C49.5352 576.383 49.5359 587.02 48.5833 595.332C47.6297 603.652 45.7158 609.697 41.8484 614.622L41.1494 614.073C44.8738 609.33 46.7559 603.47 47.7002 595.23C48.6456 586.982 48.6463 576.404 48.6463 562.251H49.5352ZM-16.6019 627.499C-2.4483 627.499 8.12906 627.498 16.3779 626.553C24.6174 625.608 30.4776 623.726 35.2203 620.002L35.7693 620.701C30.8446 624.568 24.7995 626.482 16.4791 627.436C8.16791 628.388 -2.46936 628.388 -16.6019 628.388V627.499ZM41.8484 614.622C40.0722 616.884 38.0313 618.925 35.7693 620.701L35.2203 620.002C37.4264 618.269 39.417 616.279 41.1494 614.073L41.8484 614.622ZM69.9366 497.002C58.6692 497.002 49.5352 506.136 49.5352 517.404H48.6463C48.6463 505.646 58.1783 496.113 69.9366 496.113V497.002ZM90.3381 517.404C90.3381 506.136 81.204 497.002 69.9366 497.002V496.113C81.6949 496.113 91.227 505.645 91.227 517.404H90.3381ZM124.72 564.877C105.731 564.877 90.3381 549.484 90.3381 530.495H91.227C91.227 548.993 106.222 563.988 124.72 563.988V564.877ZM200.796 530.495C200.796 549.484 185.403 564.877 166.414 564.877V563.988C184.912 563.988 199.907 548.993 199.907 530.495H200.796ZM221.232 497.002C209.946 497.002 200.796 506.152 200.796 517.439H199.907C199.907 505.661 209.455 496.113 221.232 496.113V497.002ZM241.669 517.439C241.669 506.152 232.519 497.002 221.232 497.002V496.113C233.01 496.113 242.558 505.661 242.558 517.439H241.669ZM309.806 632.388C294.712 632.388 283.351 632.389 274.516 631.311C265.671 630.232 259.297 628.067 254.206 623.692L254.785 623.018C259.689 627.232 265.865 629.361 274.624 630.429C283.393 631.499 294.69 631.499 309.806 631.499V632.388ZM242.558 564.251C242.558 579.367 242.559 590.664 243.628 599.433C244.697 608.192 246.825 614.368 251.04 619.272L250.365 619.851C245.991 614.76 243.825 608.387 242.746 599.541C241.668 590.706 241.669 579.345 241.669 564.251H242.558ZM254.206 623.692C252.831 622.51 251.547 621.226 250.365 619.851L251.04 619.272C252.192 620.613 253.444 621.865 254.785 623.018L254.206 623.692ZM451.999 560.833C451.999 577.581 452 590.187 450.694 599.906C449.385 609.638 446.759 616.541 441.455 621.844L440.827 621.216C445.937 616.105 448.518 609.421 449.813 599.788C451.11 590.142 451.111 577.606 451.111 560.833H451.999ZM380.444 631.499C397.217 631.499 409.753 631.498 419.399 630.202C429.032 628.906 435.716 626.326 440.827 621.216L441.455 621.844C436.152 627.147 429.249 629.774 419.517 631.083C409.798 632.389 397.192 632.388 380.444 632.388V631.499ZM483.277 336.527C466.003 336.527 451.999 350.531 451.999 367.805H451.111C451.111 350.04 465.512 335.638 483.277 335.638V336.527ZM515.444 304.36C515.444 322.126 501.043 336.527 483.277 336.527V335.638C500.552 335.638 514.556 321.635 514.556 304.36H515.444ZM483.277 166.437C501.043 166.437 515.444 180.838 515.444 198.604H514.556C514.556 181.329 500.552 167.326 483.277 167.326V166.437ZM451.999 135.159C451.999 152.433 466.003 166.437 483.277 166.437V167.326C465.512 167.326 451.111 152.924 451.111 135.159H451.999ZM412.83 88.9876C415.766 88.9876 417.256 88.9873 418.517 89.0758L418.455 89.9625C417.233 89.8768 415.781 89.8765 412.83 89.8765V88.9876ZM451.111 128.157C451.111 125.206 451.11 123.754 451.025 122.532L451.911 122.47C452 123.731 451.999 125.222 451.999 128.157H451.111ZM418.517 89.0758C436.415 90.3307 450.656 104.572 451.911 122.47L451.025 122.532C449.801 105.076 435.911 91.1864 418.455 89.9625L418.517 89.0758ZM280.118 62.816C280.118 77.2702 291.835 88.9876 306.29 88.9876V89.8765C291.345 89.8765 279.229 77.7611 279.229 62.816H280.118ZM253.058 35.7554C268.003 35.7554 280.118 47.8708 280.118 62.816H279.229C279.229 48.3618 267.512 36.6443 253.058 36.6443V35.7554ZM169.66 62.6226C169.66 47.7843 181.689 35.7554 196.527 35.7554V36.6443C182.18 36.6443 170.549 48.2752 170.549 62.6226H169.66ZM143.682 88.6009C158.029 88.6009 169.66 76.97 169.66 62.6226H170.549C170.549 77.4609 158.52 89.4898 143.682 89.4898V88.6009ZM102.673 55.1075C102.673 73.6054 117.669 88.6009 136.167 88.6009V89.4898C117.178 89.4898 101.785 74.0963 101.785 55.1075H102.673ZM80.1698 -8.44423C68.2323 -8.44423 58.555 1.23304 58.555 13.1706H57.6661C57.6661 0.742122 67.7413 -9.33312 80.1698 -9.33312V-8.44423ZM80.1698 -9.33312C92.5982 -9.33312 102.673 0.742098 102.673 13.1705H101.785C101.785 1.23302 92.1073 -8.44423 80.1698 -8.44423V-9.33312Z" fill="url(#paint1_radial_919_476)" mask="url(#path-5-inside-1_919_476)"/>
<path d="M78.5089 458.428L79.0853 485.465L100.288 502.879L72.852 503.123L55.4304 523.807L54.854 496.77L33.6512 479.356L61.0873 479.112L78.5089 458.428Z" fill="#E1EF9A"/>
<path d="M542.676 -21.3503L544.222 51.1519L601.079 97.8483L527.507 98.5043L480.79 153.97L479.244 81.4678L422.387 34.7715L495.959 34.1154L542.676 -21.3503Z" fill="#E1EF9A"/>
<path d="M46.5789 416.744L46.848 429.367L56.747 437.497L43.9378 437.611L35.8042 447.268L35.5351 434.645L25.6361 426.515L38.4452 426.401L46.5789 416.744Z" fill="#E1EF9A"/>
<g filter="url(#filter4_d_919_476)">
<path d="M477.106 305.689L465.236 295.1L449.471 297.219L460.059 285.348L457.941 269.583L469.811 280.172L485.576 278.053L474.988 289.924L477.106 305.689Z" fill="#ECC89D"/>
<path d="M477.106 305.689L465.236 295.1L449.471 297.219L460.059 285.348L457.941 269.583L469.811 280.172L485.576 278.053L474.988 289.924L477.106 305.689Z" fill="#90EAF2"/>
</g>
<g filter="url(#filter5_d_919_476)">
<path d="M451.329 226.577L439.459 215.989L423.693 218.107L434.282 206.237L432.163 190.472L444.034 201.06L459.799 198.942L449.21 210.812L451.329 226.577Z" fill="#ECC89D"/>
</g>
<g filter="url(#filter6_d_919_476)">
<path d="M441.873 256.723L437.413 252.744L431.489 253.54L435.468 249.08L434.672 243.156L439.132 247.135L445.056 246.339L441.077 250.799L441.873 256.723Z" fill="#E1EF9A"/>
</g>
<g filter="url(#filter7_f_919_476)">
</g>
<rect x="338.111" y="220.444" width="21.2991" height="35.2088" rx="6.95482" fill="white"/>
<rect x="338.111" y="264.348" width="21.2991" height="35.2088" rx="6.95482" fill="white"/>
<g filter="url(#filter8_f_919_476)">
<g filter="url(#filter9_f_919_476)">
<ellipse cx="64.2906" cy="113.329" rx="32.8463" ry="32.4408" fill="#E2EF9C"/>
</g>
<g filter="url(#filter10_bf_919_476)">
<ellipse cx="96.7315" cy="137.66" rx="32.8463" ry="32.4408" fill="#81E7F0" fill-opacity="0.9"/>
</g>
</g>
<g filter="url(#filter11_bf_919_476)">
<ellipse cx="94.6333" cy="125.33" rx="17.7295" ry="11.2431" transform="rotate(20.1712 94.6333 125.33)" fill="#D3F8FB"/>
</g>
<g filter="url(#filter12_bf_919_476)">
<ellipse cx="99.6289" cy="126.846" rx="6.55387" ry="4.15612" transform="rotate(20.1712 99.6289 126.846)" fill="#E7FFFF"/>
</g>
<g filter="url(#filter13_bf_919_476)">
<ellipse cx="87.871" cy="121.871" rx="5.11058" ry="3.24086" transform="rotate(20.1712 87.871 121.871)" fill="#E7FFFF"/>
</g>
<path d="M406.544 429.725C409.996 429.725 412.362 432.137 412.362 435.495C412.362 438.854 409.996 441.266 406.544 441.266H401.209C400.678 441.266 400.248 441.696 400.248 442.226V443.837C400.248 444.367 399.818 444.797 399.288 444.797H395.564C395.034 444.797 394.604 444.367 394.604 443.837V430.686C394.604 430.155 395.034 429.725 395.564 429.725H406.544ZM405.459 436.529C406.023 436.529 406.718 436.529 406.718 435.495C406.718 434.462 406.023 434.462 405.459 434.462H401.209C400.678 434.462 400.248 434.892 400.248 435.422V435.569C400.248 436.099 400.678 436.529 401.209 436.529H405.459Z" fill="#90EAF2"/>
<path d="M417.69 429.725C418.22 429.725 418.65 430.155 418.65 430.686V443.837C418.65 444.367 418.22 444.797 417.69 444.797H413.967C413.436 444.797 413.006 444.367 413.006 443.837V430.686C413.006 430.155 413.436 429.725 413.967 429.725H417.69Z" fill="#90EAF2"/>
<path fill-rule="evenodd" clip-rule="evenodd" d="M375.759 439.62C375.432 440.052 375.354 440.625 375.562 441.126L376.465 443.298C376.723 443.92 377.362 444.294 378.031 444.223C378.53 444.17 379.011 444.122 379.477 444.079C380.263 444.007 380.84 443.318 381.209 442.62C381.228 442.584 381.247 442.548 381.268 442.513L382.181 440.944C382.994 439.548 384.789 439.067 386.191 439.87C387.593 440.673 388.071 442.455 387.258 443.851C387.243 443.878 387.261 443.912 387.291 443.913C388.363 443.979 389.487 444.082 390.721 444.223C391.355 444.296 391.969 443.971 392.257 443.402L393.39 441.161C393.651 440.646 393.593 440.028 393.249 439.564C390.828 436.309 389.424 433.936 387.479 429.867C387.226 429.339 386.695 429.001 386.11 429L382.999 429C382.413 429 381.88 429.34 381.628 429.869C379.759 433.798 378.36 436.19 375.759 439.62Z" fill="#90EAF2"/>
<path fill-rule="evenodd" clip-rule="evenodd" d="M425.421 429.715C424.848 429.917 424.798 430.811 424.691 431.409C424.411 432.962 424.409 434.178 424.689 435.732C424.815 436.432 424.297 437.098 423.585 437.098H421.37C421.331 437.098 421.292 437.096 421.254 437.092C421.121 437.078 420.987 437.175 420.993 437.308C420.998 437.433 421.124 437.513 421.248 437.499C421.288 437.495 421.329 437.492 421.37 437.492H423.588C424.299 437.492 424.816 438.157 424.691 438.856C424.411 440.408 424.409 441.625 424.689 443.178C424.722 443.363 424.817 443.544 424.99 443.616C426.419 444.21 428.254 444.503 430.533 444.503C436.187 444.503 439.305 442.671 439.921 438.597C440.003 438.054 439.559 437.591 439.01 437.591H435.072C434.597 437.591 434.219 437.955 434.002 438.378C433.529 439.299 432.439 439.766 430.533 439.766C427.211 439.766 426.625 438.345 426.625 436.73C426.625 435.136 427.19 433.737 430.533 433.737C432.432 433.737 433.522 434.186 433.997 435.086C434.219 435.505 434.596 435.868 435.07 435.868H439.01C439.559 435.868 440.003 435.406 439.92 434.863C439.3 430.811 436.165 429 430.533 429C428.477 429 426.783 429.236 425.421 429.715ZM440.464 436.73C440.464 441.983 443.33 444.503 450.016 444.503C456.681 444.503 459.568 441.962 459.568 436.73C459.568 431.519 456.681 429 450.016 429C443.33 429 440.464 431.498 440.464 436.73ZM453.924 436.73C453.924 438.323 453.338 439.766 450.016 439.766C446.695 439.766 446.108 438.345 446.108 436.73C446.108 435.136 446.673 433.737 450.016 433.737C453.359 433.737 453.924 435.158 453.924 436.73ZM474.165 430.176C474.165 429.645 474.595 429.215 475.126 429.215H478.849C479.38 429.215 479.81 429.645 479.81 430.176V443.327C479.81 443.857 479.38 444.287 478.849 444.287H472.914C472.609 444.287 472.322 444.142 472.141 443.897L466.615 436.403C466.38 436.083 465.872 436.249 465.872 436.647V443.327C465.872 443.857 465.442 444.287 464.912 444.287H461.188C460.658 444.287 460.228 443.857 460.228 443.327V430.176C460.228 429.645 460.658 429.215 461.188 429.215H467.124C467.429 429.215 467.716 429.36 467.897 429.606L473.422 437.1C473.658 437.42 474.165 437.253 474.165 436.856V430.176ZM495.791 433.952C496.321 433.952 496.751 433.522 496.751 432.992V430.176C496.751 429.645 496.321 429.215 495.791 429.215H481.647C481.117 429.215 480.686 429.645 480.686 430.176V443.327C480.686 443.857 481.117 444.287 481.647 444.287H485.37C485.901 444.287 486.331 443.857 486.331 443.327V441.264C486.331 440.734 486.761 440.304 487.291 440.304H494.488C495.019 440.304 495.449 439.874 495.449 439.343V436.528C495.449 435.997 495.019 435.567 494.488 435.567H487.138C486.692 435.567 486.331 435.206 486.331 434.76C486.331 434.314 486.692 433.952 487.138 433.952H495.791Z" fill="#90EAF2"/>
<rect x="419.868" y="430.956" width="3.38946" height="5.55704" rx="1.0977" fill="#90EAF2"/>
<rect x="419.868" y="437.885" width="3.38946" height="5.55704" rx="1.0977" fill="#90EAF2"/>
<path fill-rule="evenodd" clip-rule="evenodd" d="M419.129 447.88C414.83 447.509 411.08 450.854 411.08 455.17C411.08 459.483 414.827 462.828 419.124 462.457C431.291 461.409 440.491 461.412 452.751 462.463C457.054 462.832 460.804 459.481 460.804 455.162C460.804 450.847 457.06 447.497 452.76 447.864C440.539 448.907 431.351 448.933 419.129 447.88ZM425.593 455.427H421.892V451.565H419.8V457.198H425.593V455.427ZM432.175 454.808C432.159 452.965 431.033 452.289 429.053 452.289C428.16 452.289 427.114 452.466 426.148 452.78L426.776 454.148C427.661 453.955 428.369 453.899 428.989 453.899C429.633 453.899 430.244 453.923 430.244 454.502C429.801 454.341 429.287 454.253 428.611 454.253C427.202 454.253 425.754 454.583 425.754 455.838C425.754 456.884 426.72 457.278 427.822 457.278C428.659 457.278 429.496 457.157 430.244 456.61V457.198H432.175V454.808ZM430.244 455.419V455.621C429.761 455.83 429.053 455.991 428.401 455.991C427.911 455.991 427.685 455.95 427.685 455.685C427.685 455.379 428.071 455.299 428.965 455.299C429.52 455.299 429.938 455.339 430.244 455.419ZM438.905 452.37H436.974V453.094C436.555 452.587 435.871 452.289 434.898 452.289C433.409 452.289 432.339 452.997 432.339 454.623C432.339 456.248 433.409 456.956 434.898 456.956C435.871 456.956 436.555 456.659 436.974 456.152C436.958 457.375 436.451 457.6 435.509 457.6C434.584 457.6 433.646 457.417 433.058 457.303C432.981 457.288 432.91 457.274 432.846 457.262V458.831C433.305 458.952 434.487 459.209 435.863 459.209C437.521 459.209 438.905 458.509 438.905 456.578V452.37ZM436.974 454.623C436.974 455.17 436.644 455.347 435.622 455.347C434.6 455.347 434.27 455.17 434.27 454.623C434.27 454.076 434.6 453.899 435.622 453.899C436.644 453.899 436.974 454.076 436.974 454.623ZM439.144 454.784C439.144 456.57 440.375 457.278 442.427 457.278C444.479 457.278 445.71 456.57 445.71 454.784C445.71 452.997 444.479 452.289 442.427 452.289C440.375 452.289 439.144 452.997 439.144 454.784ZM443.779 454.784C443.779 455.492 443.288 455.669 442.427 455.669C441.566 455.669 441.075 455.492 441.075 454.784C441.075 454.076 441.566 453.899 442.427 453.899C443.288 453.899 443.779 454.076 443.779 454.784ZM447.723 455.532H445.792C445.792 457.045 447.401 457.278 449.228 457.278C451.054 457.278 452.342 457.045 452.342 455.572C452.342 454.309 451.127 454.196 449.228 454.1C449.125 454.094 449.03 454.089 448.942 454.085C447.972 454.035 447.804 454.027 447.804 453.842C447.804 453.657 448.085 453.657 449.067 453.657C449.928 453.657 450.25 453.657 450.25 453.915H452.181C452.181 452.523 450.934 452.289 449.147 452.289C447.361 452.289 445.872 452.523 445.872 453.899C445.872 455.13 446.846 455.299 449.067 455.387C449.199 455.393 449.319 455.397 449.428 455.401C450.265 455.433 450.411 455.439 450.411 455.653C450.411 455.862 450.226 455.91 449.147 455.91C447.981 455.91 447.723 455.806 447.723 455.532Z" fill="#90EAF2"/>
<path d="M393.632 453.038C393.632 456.847 387.876 456.26 387.036 457.569H393.464V461.261H380.306V459.247C380.306 454.85 389.269 455.27 389.269 453.625C389.269 453.122 388.849 453.038 387.389 453.038C385.845 453.038 384.838 453.038 384.838 454.129H380.474C380.474 450.117 383.227 449.345 387.221 449.345C391.266 449.345 393.632 450.117 393.632 453.038ZM400.856 461.429C396.191 461.429 393.975 459.465 393.975 455.37C393.975 451.292 396.191 449.345 400.856 449.345C405.505 449.345 407.737 451.309 407.737 455.37C407.737 459.449 405.505 461.429 400.856 461.429ZM400.856 457.737C402.921 457.737 403.374 456.612 403.374 455.37C403.374 454.145 402.937 453.038 400.856 453.038C398.775 453.038 398.339 454.129 398.339 455.37C398.339 456.629 398.792 457.737 400.856 457.737Z" fill="#90EAF2"/>
<path d="M476.781 452.215C476.781 456.025 471.025 455.438 470.186 456.747H476.614V460.439H463.456V458.425C463.456 454.028 472.418 454.448 472.418 452.803C472.418 452.299 471.998 452.215 470.538 452.215C468.994 452.215 467.987 452.215 467.987 453.306H463.624C463.624 449.295 466.376 448.523 470.37 448.523C474.415 448.523 476.781 449.295 476.781 452.215ZM490.79 455.404V459.096H489.112V460.439H484.748V459.096H477.129V455.404L484.748 448.691H489.112V455.404H490.79ZM481.157 455.404H484.748V452.383L481.157 455.404Z" fill="#90EAF2"/>
<path d="M398.453 473.97H395.197V473.385L396.767 471.89C397.209 471.461 397.521 471.115 397.521 470.686C397.521 470.36 397.331 470.081 396.889 470.081C396.216 470.081 395.795 470.51 395.836 471.387L395.19 470.924C395.169 470.013 395.91 469.347 396.957 469.347C397.875 469.347 398.324 469.891 398.324 470.639C398.324 471.373 397.671 472.005 397.188 472.406L396.556 472.964L396.026 473.358L396.706 473.29H398.453V473.97ZM400.866 474.031C399.595 474.031 398.949 473.025 398.949 471.686C398.949 470.353 399.595 469.347 400.866 469.347C402.138 469.347 402.777 470.353 402.777 471.686C402.777 473.025 402.138 474.031 400.866 474.031ZM400.866 473.297C401.682 473.297 401.974 472.644 401.974 471.686C401.974 470.734 401.682 470.075 400.866 470.075C400.057 470.075 399.758 470.734 399.758 471.686C399.758 472.644 400.057 473.297 400.866 473.297ZM406.671 473.97H403.415V473.385L404.985 471.89C405.427 471.461 405.74 471.115 405.74 470.686C405.74 470.36 405.55 470.081 405.108 470.081C404.435 470.081 404.013 470.51 404.054 471.387L403.408 470.924C403.388 470.013 404.129 469.347 405.176 469.347C406.093 469.347 406.542 469.891 406.542 470.639C406.542 471.373 405.889 472.005 405.407 472.406L404.775 472.964L404.244 473.358L404.924 473.29H406.671V473.97ZM410.106 473.97H409.345V472.943H407.067V472.352L409.297 469.415H410.106V472.277H410.874V472.943H410.106V473.97ZM407.91 472.277H409.345V470.408L407.91 472.277ZM413.294 473.97H412.485L414.266 469.415H415.15L416.931 473.97H416.088L415.653 472.821H413.729L413.294 473.97ZM414.45 470.924L413.981 472.155H415.402L414.939 470.924L414.695 470.102L414.45 470.924ZM418.003 473.97H417.235V469.415H419.098C420.056 469.415 420.804 469.905 420.804 470.992C420.804 472.032 420.063 472.529 419.098 472.529H418.003V473.97ZM419.023 470.095H418.003V471.849H419.023C419.546 471.849 420.008 471.652 420.008 470.992C420.008 470.285 419.546 470.095 419.023 470.095ZM422.145 473.97H421.377V469.415H422.145V473.97ZM426.497 474.024C425.097 474.024 424.308 472.998 424.308 471.686C424.308 470.374 425.097 469.347 426.497 469.347C427.503 469.347 428.196 469.864 428.516 470.754L427.85 471.244C427.707 470.557 427.285 470.075 426.504 470.075C425.566 470.075 425.124 470.741 425.124 471.686C425.124 472.624 425.566 473.297 426.504 473.297C427.285 473.297 427.707 472.807 427.85 472.128L428.516 472.617C428.196 473.501 427.503 474.024 426.497 474.024ZM430.517 474.038C429.565 474.038 428.913 473.344 428.913 472.318C428.913 471.285 429.565 470.591 430.517 470.591C431.482 470.591 432.135 471.285 432.135 472.318C432.135 473.344 431.482 474.038 430.517 474.038ZM430.524 473.406C431.02 473.406 431.36 473.079 431.36 472.318C431.36 471.55 431.02 471.223 430.524 471.223C430.034 471.223 429.694 471.55 429.694 472.318C429.694 473.079 430.034 473.406 430.524 473.406ZM433.549 473.97H432.788V470.659H433.549V471.563C433.671 471.04 434.011 470.591 434.671 470.591C435.316 470.591 435.711 470.979 435.711 471.665V473.97H434.943V471.896C434.943 471.489 434.807 471.21 434.297 471.21C433.739 471.21 433.549 471.57 433.549 472.114V473.97ZM437.419 473.97H436.657V471.251H436.147V470.659H436.657V470.455C436.657 469.769 437.079 469.347 437.779 469.347C438.261 469.347 438.581 469.585 438.717 469.762L438.384 470.306C438.261 470.109 438.064 469.959 437.813 469.959C437.534 469.959 437.419 470.109 437.419 470.38V470.659H438.384V471.251H437.419V473.97ZM440.224 474.038C439.238 474.038 438.593 473.351 438.593 472.318C438.593 471.278 439.238 470.591 440.17 470.591C441.162 470.591 441.713 471.251 441.713 472.168C441.713 472.291 441.699 472.433 441.686 472.501H439.32C439.361 473.093 439.707 473.412 440.231 473.412C440.809 473.412 441.067 473.113 441.189 472.834L441.658 473.324C441.407 473.705 440.958 474.038 440.224 474.038ZM440.17 471.203C439.701 471.203 439.388 471.475 439.327 472.012H441.026C440.972 471.489 440.673 471.203 440.17 471.203ZM443.142 473.97H442.38V470.659H443.142V471.597C443.264 471.067 443.597 470.591 444.189 470.591C444.603 470.591 444.909 470.863 444.909 471.353C444.909 471.672 444.821 471.91 444.76 472.012H443.978C444.087 471.903 444.189 471.686 444.189 471.495C444.189 471.312 444.1 471.162 443.876 471.162C443.495 471.162 443.142 471.597 443.142 472.148V473.97ZM446.803 474.038C445.817 474.038 445.171 473.351 445.171 472.318C445.171 471.278 445.817 470.591 446.748 470.591C447.741 470.591 448.291 471.251 448.291 472.168C448.291 472.291 448.278 472.433 448.264 472.501H445.899C445.939 473.093 446.286 473.412 446.81 473.412C447.387 473.412 447.646 473.113 447.768 472.834L448.237 473.324C447.986 473.705 447.537 474.038 446.803 474.038ZM446.748 471.203C446.279 471.203 445.967 471.475 445.905 472.012H447.605C447.55 471.489 447.251 471.203 446.748 471.203ZM449.72 473.97H448.959V470.659H449.72V471.563C449.843 471.04 450.183 470.591 450.842 470.591C451.488 470.591 451.882 470.979 451.882 471.665V473.97H451.114V471.896C451.114 471.489 450.978 471.21 450.468 471.21C449.911 471.21 449.72 471.57 449.72 472.114V473.97ZM454.084 474.038C453.099 474.038 452.48 473.344 452.48 472.318C452.48 471.285 453.099 470.591 454.084 470.591C454.914 470.591 455.437 471.06 455.614 471.686L454.927 472.026C454.852 471.55 454.608 471.23 454.098 471.23C453.575 471.23 453.255 471.618 453.255 472.318C453.255 473.011 453.575 473.399 454.098 473.399C454.615 473.399 454.852 473.079 454.927 472.603L455.614 472.943C455.437 473.569 454.914 474.038 454.084 474.038ZM457.61 474.038C456.624 474.038 455.979 473.351 455.979 472.318C455.979 471.278 456.624 470.591 457.556 470.591C458.548 470.591 459.099 471.251 459.099 472.168C459.099 472.291 459.085 472.433 459.072 472.501H456.706C456.747 473.093 457.094 473.412 457.617 473.412C458.195 473.412 458.453 473.113 458.575 472.834L459.044 473.324C458.793 473.705 458.344 474.038 457.61 474.038ZM457.556 471.203C457.087 471.203 456.774 471.475 456.713 472.012H458.412C458.358 471.489 458.059 471.203 457.556 471.203ZM464.341 473.97H461.241V469.415H462.009V473.29H464.341V473.97ZM465.492 474.038C464.948 474.038 464.622 473.732 464.622 473.256C464.622 472.787 464.948 472.501 465.485 472.291L466.593 471.822C466.566 471.489 466.416 471.264 465.961 471.264C465.519 471.264 465.172 471.523 464.982 471.869L464.527 471.325C464.785 470.972 465.302 470.591 466.036 470.591C466.858 470.591 467.321 471.06 467.321 471.876V473.12C467.321 473.27 467.375 473.317 467.497 473.317H467.708V473.97H467.239C466.885 473.97 466.607 473.807 466.607 473.331V473.086C466.505 473.521 466.185 474.038 465.492 474.038ZM465.356 473.14C465.356 473.331 465.485 473.446 465.764 473.446C466.267 473.446 466.607 473.147 466.607 472.699V472.345L465.757 472.726C465.472 472.855 465.356 472.97 465.356 473.14ZM469.61 472.977C469.352 472.977 469.114 472.93 468.917 472.834C468.856 472.936 468.781 473.066 468.781 473.181C468.781 473.351 468.869 473.439 469.175 473.439H470.242C470.902 473.439 471.262 473.705 471.262 474.201C471.262 474.826 470.65 475.302 469.447 475.302C468.522 475.302 467.985 475.01 467.985 474.595C467.985 474.282 468.285 474.112 468.604 474.038C468.366 473.97 468.21 473.813 468.21 473.562C468.21 473.263 468.468 472.97 468.774 472.76C468.441 472.556 468.237 472.209 468.237 471.788C468.237 471.087 468.794 470.591 469.61 470.591C469.821 470.591 470.011 470.625 470.181 470.686L470.344 469.891L471.078 470.143L470.46 470.822C470.786 471.033 470.976 471.373 470.976 471.788C470.976 472.488 470.426 472.977 469.61 472.977ZM469.61 472.433C469.97 472.433 470.256 472.202 470.256 471.788C470.256 471.373 469.97 471.142 469.61 471.142C469.25 471.142 468.964 471.373 468.964 471.788C468.964 472.202 469.25 472.433 469.61 472.433ZM469.481 474.731C470.195 474.731 470.575 474.575 470.575 474.296C470.575 474.119 470.433 474.045 470.14 474.045H468.76C468.686 474.119 468.604 474.228 468.604 474.344C468.604 474.588 468.876 474.731 469.481 474.731ZM473.069 474.038C472.118 474.038 471.465 473.344 471.465 472.318C471.465 471.285 472.118 470.591 473.069 470.591C474.035 470.591 474.687 471.285 474.687 472.318C474.687 473.344 474.035 474.038 473.069 474.038ZM473.076 473.406C473.572 473.406 473.912 473.079 473.912 472.318C473.912 471.55 473.572 471.223 473.076 471.223C472.587 471.223 472.247 471.55 472.247 472.318C472.247 473.079 472.587 473.406 473.076 473.406ZM476.647 474.038C475.94 474.038 475.294 473.752 475.043 473.229L475.491 472.753C475.675 473.086 476.083 473.426 476.674 473.426C477 473.426 477.211 473.31 477.211 473.072C477.211 472.828 476.96 472.746 476.593 472.658L476.151 472.549C475.627 472.427 475.145 472.196 475.145 471.591C475.145 470.972 475.641 470.598 476.402 470.598C477.109 470.598 477.605 470.938 477.809 471.312L477.361 471.788C477.13 471.421 476.776 471.203 476.348 471.203C476.055 471.203 475.858 471.325 475.858 471.55C475.858 471.788 476.035 471.876 476.484 471.992L476.885 472.094C477.626 472.284 477.898 472.583 477.898 473.059C477.898 473.711 477.347 474.038 476.647 474.038Z" fill="white"/>
<path d="M83.8393 457H82.922V449.853H83.8393V457ZM89.7504 457H88.8331V453.661C88.8331 453.327 88.7513 453.053 88.5877 452.84C88.4313 452.627 88.1326 452.52 87.6917 452.52C87.3575 452.52 87.0909 452.591 86.8917 452.733C86.6926 452.868 86.5469 453.053 86.4544 453.288C86.3691 453.523 86.3264 453.786 86.3264 454.077L86.2624 453.64C86.298 453.32 86.3833 453.014 86.5184 452.723C86.6606 452.424 86.8597 452.186 87.1157 452.008C87.3789 451.823 87.7095 451.731 88.1077 451.731C88.6126 451.731 89.0109 451.88 89.3024 452.179C89.6011 452.47 89.7504 452.89 89.7504 453.437V457ZM86.3264 457H85.4091V451.837H86.3264V457ZM93.2987 457H92.1253L90.2587 451.837H91.2613L92.2853 454.899L92.7333 456.317L93.1707 454.899L94.184 451.837H95.176L93.2987 457ZM96.8577 451.005H95.9403V449.853H96.8577V451.005ZM96.8577 457H95.9403V451.837H96.8577V457ZM99.9912 457.117C99.7068 457.117 99.4579 457.06 99.2446 456.947C99.0312 456.826 98.8641 456.659 98.7432 456.445C98.6224 456.232 98.5619 455.976 98.5619 455.677V451.176L99.4792 450.493V455.4C99.4792 455.727 99.5468 455.948 99.6819 456.061C99.817 456.168 99.9877 456.221 100.194 456.221C100.421 456.221 100.613 456.147 100.77 455.997C100.926 455.841 101.04 455.681 101.111 455.517L101.421 456.435C101.307 456.612 101.129 456.772 100.887 456.915C100.645 457.05 100.347 457.117 99.9912 457.117ZM101.175 452.563H97.7192V451.837H101.175V452.563ZM104.158 457.107C103.675 457.107 103.245 456.996 102.868 456.776C102.498 456.556 102.206 456.246 101.993 455.848C101.787 455.443 101.684 454.966 101.684 454.419C101.684 453.871 101.787 453.398 101.993 453C102.199 452.595 102.484 452.282 102.846 452.061C103.216 451.841 103.636 451.731 104.105 451.731C104.589 451.731 105.005 451.834 105.353 452.04C105.709 452.239 105.979 452.524 106.164 452.893C106.356 453.263 106.452 453.704 106.452 454.216C106.452 454.294 106.448 454.372 106.441 454.451C106.434 454.522 106.423 454.582 106.409 454.632H102.388V453.96H105.854L105.63 454.28C105.63 453.697 105.495 453.256 105.225 452.957C104.955 452.659 104.582 452.509 104.105 452.509C103.636 452.509 103.262 452.666 102.985 452.979C102.715 453.284 102.58 453.747 102.58 454.365V454.483C102.58 454.874 102.644 455.208 102.772 455.485C102.9 455.763 103.081 455.976 103.316 456.125C103.558 456.268 103.838 456.339 104.158 456.339C104.507 456.339 104.788 456.285 105.001 456.179C105.222 456.072 105.396 455.94 105.524 455.784C105.652 455.62 105.748 455.468 105.812 455.325L106.377 455.965C106.185 456.271 105.908 456.538 105.545 456.765C105.182 456.993 104.72 457.107 104.158 457.107ZM109.55 457.107C109.194 457.107 108.853 457.053 108.526 456.947C108.199 456.84 107.914 456.684 107.672 456.477C107.438 456.264 107.26 455.997 107.139 455.677L107.811 455.155C107.875 455.347 107.978 455.535 108.12 455.72C108.27 455.898 108.465 456.044 108.707 456.157C108.949 456.271 109.24 456.328 109.582 456.328C109.888 456.328 110.133 456.271 110.318 456.157C110.503 456.036 110.595 455.862 110.595 455.635C110.595 455.4 110.488 455.233 110.275 455.133C110.069 455.034 109.816 454.948 109.518 454.877L108.835 454.717C108.593 454.66 108.355 454.579 108.12 454.472C107.886 454.358 107.69 454.205 107.534 454.013C107.377 453.814 107.299 453.558 107.299 453.245C107.299 452.776 107.466 452.406 107.8 452.136C108.135 451.866 108.583 451.731 109.144 451.731C109.692 451.731 110.147 451.855 110.51 452.104C110.88 452.353 111.136 452.648 111.278 452.989L110.574 453.512C110.446 453.206 110.257 452.964 110.008 452.787C109.767 452.609 109.461 452.52 109.091 452.52C108.821 452.52 108.6 452.577 108.43 452.691C108.259 452.804 108.174 452.972 108.174 453.192C108.174 453.42 108.259 453.587 108.43 453.693C108.608 453.8 108.871 453.896 109.219 453.981L109.88 454.152C110.464 454.287 110.865 454.479 111.086 454.728C111.313 454.97 111.427 455.268 111.427 455.624C111.427 455.965 111.338 456.246 111.16 456.467C110.99 456.68 110.762 456.84 110.478 456.947C110.2 457.053 109.891 457.107 109.55 457.107ZM115.615 458.696C115.373 458.696 115.152 458.653 114.953 458.568C114.754 458.49 114.583 458.387 114.441 458.259C114.306 458.131 114.199 457.996 114.121 457.853L114.623 457.16C114.743 457.359 114.879 457.526 115.028 457.661C115.184 457.804 115.383 457.875 115.625 457.875C115.831 457.875 116.006 457.814 116.148 457.693C116.297 457.572 116.422 457.356 116.521 457.043L116.724 456.413L116.948 456.712L116.052 456.723L114.313 451.837H115.305L116.415 455.155L116.777 456.264L117.14 455.155L118.239 451.837H119.231L117.247 457.427C117.076 457.896 116.852 458.223 116.575 458.408C116.297 458.6 115.977 458.696 115.615 458.696ZM121.885 457.107C121.408 457.107 120.985 456.996 120.615 456.776C120.253 456.556 119.968 456.243 119.762 455.837C119.556 455.432 119.453 454.959 119.453 454.419C119.453 453.871 119.556 453.398 119.762 453C119.968 452.595 120.253 452.282 120.615 452.061C120.985 451.841 121.408 451.731 121.885 451.731C122.361 451.731 122.781 451.841 123.143 452.061C123.513 452.282 123.801 452.595 124.007 453C124.221 453.398 124.327 453.871 124.327 454.419C124.327 454.959 124.221 455.432 124.007 455.837C123.801 456.243 123.513 456.556 123.143 456.776C122.781 456.996 122.361 457.107 121.885 457.107ZM121.885 456.328C122.183 456.328 122.443 456.26 122.663 456.125C122.891 455.983 123.069 455.773 123.197 455.496C123.325 455.212 123.389 454.852 123.389 454.419C123.389 453.985 123.325 453.629 123.197 453.352C123.069 453.068 122.891 452.858 122.663 452.723C122.443 452.58 122.183 452.509 121.885 452.509C121.593 452.509 121.334 452.58 121.106 452.723C120.886 452.858 120.711 453.068 120.583 453.352C120.462 453.629 120.402 453.985 120.402 454.419C120.402 454.852 120.462 455.212 120.583 455.496C120.711 455.773 120.886 455.983 121.106 456.125C121.334 456.26 121.593 456.328 121.885 456.328ZM127.103 457.107C126.769 457.107 126.477 457.043 126.228 456.915C125.98 456.78 125.788 456.584 125.652 456.328C125.524 456.072 125.46 455.766 125.46 455.411V451.837H126.378V455.187C126.378 455.521 126.46 455.795 126.623 456.008C126.787 456.221 127.085 456.328 127.519 456.328C127.853 456.328 128.12 456.257 128.319 456.115C128.518 455.972 128.66 455.784 128.746 455.549C128.838 455.315 128.884 455.055 128.884 454.771L128.948 455.208C128.913 455.528 128.824 455.834 128.682 456.125C128.547 456.41 128.348 456.644 128.084 456.829C127.828 457.014 127.501 457.107 127.103 457.107ZM129.802 457H128.884V451.837H129.802V457ZM135.283 457.117C134.998 457.117 134.75 457.06 134.536 456.947C134.323 456.826 134.156 456.659 134.035 456.445C133.914 456.232 133.854 455.976 133.854 455.677V451.176L134.771 450.493V455.4C134.771 455.727 134.838 455.948 134.974 456.061C135.109 456.168 135.279 456.221 135.486 456.221C135.713 456.221 135.905 456.147 136.062 455.997C136.218 455.841 136.332 455.681 136.403 455.517L136.712 456.435C136.598 456.612 136.421 456.772 136.179 456.915C135.937 457.05 135.638 457.117 135.283 457.117ZM136.467 452.563H133.011V451.837H136.467V452.563ZM139.322 457.107C138.846 457.107 138.423 456.996 138.053 456.776C137.69 456.556 137.406 456.243 137.199 455.837C136.993 455.432 136.89 454.959 136.89 454.419C136.89 453.871 136.993 453.398 137.199 453C137.406 452.595 137.69 452.282 138.053 452.061C138.423 451.841 138.846 451.731 139.322 451.731C139.799 451.731 140.218 451.841 140.581 452.061C140.951 452.282 141.239 452.595 141.445 453C141.658 453.398 141.765 453.871 141.765 454.419C141.765 454.959 141.658 455.432 141.445 455.837C141.239 456.243 140.951 456.556 140.581 456.776C140.218 456.996 139.799 457.107 139.322 457.107ZM139.322 456.328C139.621 456.328 139.88 456.26 140.101 456.125C140.328 455.983 140.506 455.773 140.634 455.496C140.762 455.212 140.826 454.852 140.826 454.419C140.826 453.985 140.762 453.629 140.634 453.352C140.506 453.068 140.328 452.858 140.101 452.723C139.88 452.58 139.621 452.509 139.322 452.509C139.031 452.509 138.771 452.58 138.543 452.723C138.323 452.858 138.149 453.068 138.021 453.352C137.9 453.629 137.839 453.985 137.839 454.419C137.839 454.852 137.9 455.212 138.021 455.496C138.149 455.773 138.323 455.983 138.543 456.125C138.771 456.26 139.031 456.328 139.322 456.328ZM149.668 457H149.07C148.893 457 148.733 456.968 148.59 456.904C148.455 456.84 148.349 456.737 148.27 456.595C148.192 456.452 148.153 456.26 148.153 456.019V453.875L148.121 453.725C148.121 453.398 148.039 453.124 147.876 452.904C147.719 452.684 147.424 452.573 146.99 452.573C146.621 452.573 146.311 452.669 146.062 452.861C145.821 453.046 145.632 453.281 145.497 453.565L144.868 452.915C144.974 452.737 145.127 452.559 145.326 452.381C145.533 452.196 145.785 452.044 146.084 451.923C146.382 451.795 146.72 451.731 147.097 451.731C147.73 451.731 148.214 451.908 148.548 452.264C148.882 452.612 149.049 453.096 149.049 453.715V455.837C149.049 455.958 149.074 456.044 149.124 456.093C149.174 456.136 149.245 456.157 149.337 456.157H149.668V457ZM146.361 457.107C145.927 457.107 145.59 456.996 145.348 456.776C145.113 456.548 144.996 456.264 144.996 455.923C144.996 455.574 145.113 455.286 145.348 455.059C145.582 454.824 145.885 454.625 146.254 454.461L148.281 453.555L148.42 454.173L146.638 455.005C146.397 455.126 146.219 455.247 146.105 455.368C145.991 455.482 145.934 455.617 145.934 455.773C145.934 455.951 145.995 456.09 146.116 456.189C146.237 456.289 146.418 456.339 146.66 456.339C146.88 456.339 147.079 456.307 147.257 456.243C147.442 456.172 147.598 456.076 147.726 455.955C147.862 455.834 147.965 455.695 148.036 455.539C148.114 455.382 148.153 455.208 148.153 455.016L148.185 455.507C148.142 455.748 148.05 455.994 147.908 456.243C147.766 456.484 147.566 456.691 147.31 456.861C147.054 457.025 146.738 457.107 146.361 457.107ZM152.325 457.117C152.04 457.117 151.791 457.06 151.578 456.947C151.365 456.826 151.197 456.659 151.077 456.445C150.956 456.232 150.895 455.976 150.895 455.677V451.176L151.813 450.493V455.4C151.813 455.727 151.88 455.948 152.015 456.061C152.15 456.168 152.321 456.221 152.527 456.221C152.755 456.221 152.947 456.147 153.103 455.997C153.26 455.841 153.373 455.681 153.445 455.517L153.754 456.435C153.64 456.612 153.462 456.772 153.221 456.915C152.979 457.05 152.68 457.117 152.325 457.117ZM153.509 452.563H150.053V451.837H153.509V452.563ZM155.95 457.117C155.665 457.117 155.416 457.06 155.203 456.947C154.99 456.826 154.822 456.659 154.702 456.445C154.581 456.232 154.52 455.976 154.52 455.677V451.176L155.438 450.493V455.4C155.438 455.727 155.505 455.948 155.64 456.061C155.775 456.168 155.946 456.221 156.152 456.221C156.38 456.221 156.572 456.147 156.728 455.997C156.885 455.841 156.998 455.681 157.07 455.517L157.379 456.435C157.265 456.612 157.087 456.772 156.846 456.915C156.604 457.05 156.305 457.117 155.95 457.117ZM157.134 452.563H153.678V451.837H157.134V452.563ZM160.117 457.107C159.633 457.107 159.203 456.996 158.826 456.776C158.456 456.556 158.165 456.246 157.951 455.848C157.745 455.443 157.642 454.966 157.642 454.419C157.642 453.871 157.745 453.398 157.951 453C158.158 452.595 158.442 452.282 158.805 452.061C159.175 451.841 159.594 451.731 160.064 451.731C160.547 451.731 160.963 451.834 161.312 452.04C161.667 452.239 161.937 452.524 162.122 452.893C162.314 453.263 162.41 453.704 162.41 454.216C162.41 454.294 162.407 454.372 162.4 454.451C162.392 454.522 162.382 454.582 162.368 454.632H158.346V453.96H161.813L161.589 454.28C161.589 453.697 161.454 453.256 161.184 452.957C160.913 452.659 160.54 452.509 160.064 452.509C159.594 452.509 159.221 452.666 158.943 452.979C158.673 453.284 158.538 453.747 158.538 454.365V454.483C158.538 454.874 158.602 455.208 158.73 455.485C158.858 455.763 159.04 455.976 159.274 456.125C159.516 456.268 159.797 456.339 160.117 456.339C160.465 456.339 160.746 456.285 160.96 456.179C161.18 456.072 161.354 455.94 161.482 455.784C161.61 455.62 161.706 455.468 161.77 455.325L162.336 455.965C162.144 456.271 161.866 456.538 161.504 456.765C161.141 456.993 160.679 457.107 160.117 457.107ZM167.927 457H167.01V453.661C167.01 453.327 166.928 453.053 166.765 452.84C166.608 452.627 166.31 452.52 165.869 452.52C165.535 452.52 165.268 452.591 165.069 452.733C164.87 452.868 164.724 453.053 164.631 453.288C164.546 453.523 164.503 453.786 164.503 454.077L164.439 453.64C164.475 453.32 164.56 453.014 164.695 452.723C164.838 452.424 165.037 452.186 165.293 452.008C165.556 451.823 165.887 451.731 166.285 451.731C166.79 451.731 167.188 451.88 167.479 452.179C167.778 452.47 167.927 452.89 167.927 453.437V457ZM164.503 457H163.586V451.837H164.503V457ZM171.108 457.128C170.681 457.128 170.308 457.018 169.988 456.797C169.668 456.57 169.423 456.253 169.252 455.848C169.081 455.443 168.996 454.97 168.996 454.429C168.996 453.882 169.081 453.409 169.252 453.011C169.423 452.605 169.668 452.292 169.988 452.072C170.308 451.844 170.681 451.731 171.108 451.731C171.506 451.731 171.826 451.823 172.068 452.008C172.31 452.186 172.491 452.42 172.612 452.712C172.733 453.004 172.811 453.309 172.847 453.629L172.772 454.067C172.772 453.782 172.729 453.523 172.644 453.288C172.559 453.053 172.417 452.868 172.217 452.733C172.018 452.591 171.752 452.52 171.417 452.52C171.012 452.52 170.664 452.673 170.372 452.979C170.081 453.284 169.935 453.768 169.935 454.429C169.935 455.084 170.081 455.567 170.372 455.88C170.664 456.193 171.012 456.349 171.417 456.349C171.752 456.349 172.018 456.278 172.217 456.136C172.417 455.994 172.559 455.809 172.644 455.581C172.729 455.347 172.772 455.087 172.772 454.803L172.847 455.24C172.811 455.553 172.733 455.855 172.612 456.147C172.491 456.431 172.31 456.666 172.068 456.851C171.826 457.036 171.506 457.128 171.108 457.128ZM173.7 457H172.772V449.853H173.7V457ZM177.781 457H176.8L179.68 449.853H180.608L183.488 457H182.464L180.48 451.923L180.128 450.803L179.765 451.923L177.781 457ZM182.059 455.005H178.176V454.184H182.059V455.005ZM186.937 454.579H184.388V453.757H186.788C187.072 453.757 187.346 453.715 187.609 453.629C187.872 453.544 188.085 453.395 188.249 453.181C188.412 452.961 188.494 452.659 188.494 452.275C188.494 451.841 188.412 451.51 188.249 451.283C188.085 451.055 187.872 450.899 187.609 450.813C187.346 450.721 187.072 450.675 186.788 450.675H184.388V449.853H186.937C187.406 449.853 187.829 449.942 188.206 450.12C188.59 450.291 188.892 450.557 189.113 450.92C189.34 451.276 189.454 451.727 189.454 452.275C189.454 452.78 189.34 453.203 189.113 453.544C188.892 453.885 188.59 454.145 188.206 454.323C187.829 454.493 187.406 454.579 186.937 454.579ZM184.996 457H184.078V449.853H184.996V457ZM191.381 457H190.464V449.853H191.381V457ZM84.9593 469.107C84.4616 469.107 84.0313 468.996 83.6687 468.776C83.306 468.556 83.0251 468.243 82.826 467.837C82.6269 467.432 82.5273 466.959 82.5273 466.419C82.5273 465.871 82.6269 465.398 82.826 465C83.0251 464.595 83.306 464.282 83.6687 464.061C84.0313 463.841 84.4616 463.731 84.9593 463.731C85.6278 463.731 86.1611 463.905 86.5593 464.253C86.9576 464.595 87.2171 465.025 87.338 465.544L86.4313 465.917C86.3816 465.505 86.2393 465.167 86.0047 464.904C85.7771 464.641 85.4322 464.509 84.97 464.509C84.6571 464.509 84.3869 464.584 84.1593 464.733C83.9389 464.883 83.7682 465.1 83.6473 465.384C83.5264 465.668 83.466 466.013 83.466 466.419C83.466 466.824 83.5264 467.169 83.6473 467.453C83.7682 467.738 83.9389 467.958 84.1593 468.115C84.3869 468.264 84.6571 468.339 84.97 468.339C85.4322 468.339 85.7771 468.207 86.0047 467.944C86.2393 467.674 86.3816 467.336 86.4313 466.931L87.338 467.293C87.2171 467.812 86.9576 468.246 86.5593 468.595C86.1611 468.936 85.6278 469.107 84.9593 469.107ZM90.4263 469.107C89.9499 469.107 89.5268 468.996 89.157 468.776C88.7943 468.556 88.5099 468.243 88.3037 467.837C88.0974 467.432 87.9943 466.959 87.9943 466.419C87.9943 465.871 88.0974 465.398 88.3037 465C88.5099 464.595 88.7943 464.282 89.157 464.061C89.5268 463.841 89.9499 463.731 90.4263 463.731C90.9028 463.731 91.3223 463.841 91.685 464.061C92.0548 464.282 92.3428 464.595 92.549 465C92.7623 465.398 92.869 465.871 92.869 466.419C92.869 466.959 92.7623 467.432 92.549 467.837C92.3428 468.243 92.0548 468.556 91.685 468.776C91.3223 468.996 90.9028 469.107 90.4263 469.107ZM90.4263 468.328C90.725 468.328 90.9846 468.26 91.205 468.125C91.4326 467.983 91.6103 467.773 91.7383 467.496C91.8663 467.212 91.9303 466.852 91.9303 466.419C91.9303 465.985 91.8663 465.629 91.7383 465.352C91.6103 465.068 91.4326 464.858 91.205 464.723C90.9846 464.58 90.725 464.509 90.4263 464.509C90.1348 464.509 89.8752 464.58 89.6477 464.723C89.4272 464.858 89.253 465.068 89.125 465.352C89.0041 465.629 88.9437 465.985 88.9437 466.419C88.9437 466.852 89.0041 467.212 89.125 467.496C89.253 467.773 89.4272 467.983 89.6477 468.125C89.8752 468.26 90.1348 468.328 90.4263 468.328ZM98.3754 469H97.4581V465.661C97.4581 465.327 97.3763 465.053 97.2127 464.84C97.0563 464.627 96.7576 464.52 96.3167 464.52C95.9825 464.52 95.7159 464.591 95.5167 464.733C95.3176 464.868 95.1719 465.053 95.0794 465.288C94.9941 465.523 94.9514 465.786 94.9514 466.077L94.8874 465.64C94.923 465.32 95.0083 465.014 95.1434 464.723C95.2856 464.424 95.4847 464.186 95.7407 464.008C96.0039 463.823 96.3345 463.731 96.7327 463.731C97.2376 463.731 97.6359 463.88 97.9274 464.179C98.2261 464.47 98.3754 464.89 98.3754 465.437V469ZM94.9514 469H94.0341V463.837H94.9514V469ZM100.94 469H100.012V463.357C100.012 463.009 100.08 462.717 100.215 462.483C100.357 462.241 100.549 462.06 100.791 461.939C101.04 461.811 101.324 461.747 101.644 461.747C102.043 461.747 102.363 461.832 102.604 462.003C102.853 462.173 103.031 462.34 103.138 462.504L102.626 463.165C102.526 462.98 102.391 462.828 102.22 462.707C102.057 462.579 101.861 462.515 101.634 462.515C101.392 462.515 101.214 462.582 101.1 462.717C100.994 462.845 100.94 463.034 100.94 463.283V463.944V469ZM102.604 464.563H99.1697V463.837H102.604V464.563ZM105.45 469.107C104.967 469.107 104.536 468.996 104.159 468.776C103.79 468.556 103.498 468.246 103.285 467.848C103.079 467.443 102.975 466.966 102.975 466.419C102.975 465.871 103.079 465.398 103.285 465C103.491 464.595 103.775 464.282 104.138 464.061C104.508 463.841 104.927 463.731 105.397 463.731C105.88 463.731 106.296 463.834 106.645 464.04C107 464.239 107.271 464.524 107.455 464.893C107.647 465.263 107.743 465.704 107.743 466.216C107.743 466.294 107.74 466.372 107.733 466.451C107.726 466.522 107.715 466.582 107.701 466.632H103.679V465.96H107.146L106.922 466.28C106.922 465.697 106.787 465.256 106.517 464.957C106.247 464.659 105.873 464.509 105.397 464.509C104.927 464.509 104.554 464.666 104.277 464.979C104.007 465.284 103.871 465.747 103.871 466.365V466.483C103.871 466.874 103.935 467.208 104.063 467.485C104.191 467.763 104.373 467.976 104.607 468.125C104.849 468.268 105.13 468.339 105.45 468.339C105.799 468.339 106.079 468.285 106.293 468.179C106.513 468.072 106.687 467.94 106.815 467.784C106.943 467.62 107.039 467.468 107.103 467.325L107.669 467.965C107.477 468.271 107.199 468.538 106.837 468.765C106.474 468.993 106.012 469.107 105.45 469.107ZM109.837 469H108.919V463.837H109.837V469ZM109.837 466.077L109.773 465.64C109.801 465.398 109.855 465.164 109.933 464.936C110.018 464.708 110.128 464.506 110.263 464.328C110.406 464.143 110.576 463.997 110.775 463.891C110.975 463.784 111.202 463.731 111.458 463.731C111.735 463.731 111.984 463.823 112.205 464.008C112.432 464.193 112.546 464.47 112.546 464.84C112.546 465.06 112.521 465.249 112.471 465.405C112.429 465.555 112.386 465.661 112.343 465.725H111.33C111.415 465.647 111.487 465.537 111.543 465.395C111.607 465.252 111.639 465.11 111.639 464.968C111.639 464.819 111.597 464.691 111.511 464.584C111.433 464.47 111.298 464.413 111.106 464.413C110.886 464.413 110.679 464.492 110.487 464.648C110.295 464.804 110.139 465.007 110.018 465.256C109.897 465.505 109.837 465.779 109.837 466.077ZM115.461 469.107C114.977 469.107 114.547 468.996 114.17 468.776C113.8 468.556 113.509 468.246 113.295 467.848C113.089 467.443 112.986 466.966 112.986 466.419C112.986 465.871 113.089 465.398 113.295 465C113.501 464.595 113.786 464.282 114.149 464.061C114.518 463.841 114.938 463.731 115.407 463.731C115.891 463.731 116.307 463.834 116.655 464.04C117.011 464.239 117.281 464.524 117.466 464.893C117.658 465.263 117.754 465.704 117.754 466.216C117.754 466.294 117.75 466.372 117.743 466.451C117.736 466.522 117.725 466.582 117.711 466.632H113.69V465.96H117.157L116.933 466.28C116.933 465.697 116.797 465.256 116.527 464.957C116.257 464.659 115.884 464.509 115.407 464.509C114.938 464.509 114.565 464.666 114.287 464.979C114.017 465.284 113.882 465.747 113.882 466.365V466.483C113.882 466.874 113.946 467.208 114.074 467.485C114.202 467.763 114.383 467.976 114.618 468.125C114.86 468.268 115.141 468.339 115.461 468.339C115.809 468.339 116.09 468.285 116.303 468.179C116.524 468.072 116.698 467.94 116.826 467.784C116.954 467.62 117.05 467.468 117.114 467.325L117.679 467.965C117.487 468.271 117.21 468.538 116.847 468.765C116.485 468.993 116.022 469.107 115.461 469.107ZM123.271 469H122.354V465.661C122.354 465.327 122.272 465.053 122.109 464.84C121.952 464.627 121.653 464.52 121.213 464.52C120.878 464.52 120.612 464.591 120.413 464.733C120.213 464.868 120.068 465.053 119.975 465.288C119.89 465.523 119.847 465.786 119.847 466.077L119.783 465.64C119.819 465.32 119.904 465.014 120.039 464.723C120.181 464.424 120.381 464.186 120.637 464.008C120.9 463.823 121.23 463.731 121.629 463.731C122.133 463.731 122.532 463.88 122.823 464.179C123.122 464.47 123.271 464.89 123.271 465.437V469ZM119.847 469H118.93V463.837H119.847V469ZM126.772 469.107C126.274 469.107 125.844 468.996 125.481 468.776C125.118 468.556 124.838 468.243 124.638 467.837C124.439 467.432 124.34 466.959 124.34 466.419C124.34 465.871 124.439 465.398 124.638 465C124.838 464.595 125.118 464.282 125.481 464.061C125.844 463.841 126.274 463.731 126.772 463.731C127.44 463.731 127.974 463.905 128.372 464.253C128.77 464.595 129.03 465.025 129.15 465.544L128.244 465.917C128.194 465.505 128.052 465.167 127.817 464.904C127.59 464.641 127.245 464.509 126.782 464.509C126.47 464.509 126.199 464.584 125.972 464.733C125.751 464.883 125.581 465.1 125.46 465.384C125.339 465.668 125.278 466.013 125.278 466.419C125.278 466.824 125.339 467.169 125.46 467.453C125.581 467.738 125.751 467.958 125.972 468.115C126.199 468.264 126.47 468.339 126.782 468.339C127.245 468.339 127.59 468.207 127.817 467.944C128.052 467.674 128.194 467.336 128.244 466.931L129.15 467.293C129.03 467.812 128.77 468.246 128.372 468.595C127.974 468.936 127.44 469.107 126.772 469.107ZM132.367 469.107C131.883 469.107 131.453 468.996 131.076 468.776C130.706 468.556 130.415 468.246 130.201 467.848C129.995 467.443 129.892 466.966 129.892 466.419C129.892 465.871 129.995 465.398 130.201 465C130.408 464.595 130.692 464.282 131.055 464.061C131.425 463.841 131.844 463.731 132.313 463.731C132.797 463.731 133.213 463.834 133.561 464.04C133.917 464.239 134.187 464.524 134.372 464.893C134.564 465.263 134.66 465.704 134.66 466.216C134.66 466.294 134.657 466.372 134.649 466.451C134.642 466.522 134.632 466.582 134.617 466.632H130.596V465.96H134.063L133.839 466.28C133.839 465.697 133.704 465.256 133.433 464.957C133.163 464.659 132.79 464.509 132.313 464.509C131.844 464.509 131.471 464.666 131.193 464.979C130.923 465.284 130.788 465.747 130.788 466.365V466.483C130.788 466.874 130.852 467.208 130.98 467.485C131.108 467.763 131.289 467.976 131.524 468.125C131.766 468.268 132.047 468.339 132.367 468.339C132.715 468.339 132.996 468.285 133.209 468.179C133.43 468.072 133.604 467.94 133.732 467.784C133.86 467.62 133.956 467.468 134.02 467.325L134.585 467.965C134.393 468.271 134.116 468.538 133.753 468.765C133.391 468.993 132.929 469.107 132.367 469.107ZM139.225 469H138.307V461.853H139.225V469ZM142.979 469H138.617V468.179H142.979V469ZM148.126 469H147.529C147.351 469 147.191 468.968 147.049 468.904C146.914 468.84 146.807 468.737 146.729 468.595C146.651 468.452 146.611 468.26 146.611 468.019V465.875L146.579 465.725C146.579 465.398 146.498 465.124 146.334 464.904C146.178 464.684 145.883 464.573 145.449 464.573C145.079 464.573 144.77 464.669 144.521 464.861C144.279 465.046 144.091 465.281 143.955 465.565L143.326 464.915C143.433 464.737 143.586 464.559 143.785 464.381C143.991 464.196 144.243 464.044 144.542 463.923C144.841 463.795 145.179 463.731 145.555 463.731C146.188 463.731 146.672 463.908 147.006 464.264C147.34 464.612 147.507 465.096 147.507 465.715V467.837C147.507 467.958 147.532 468.044 147.582 468.093C147.632 468.136 147.703 468.157 147.795 468.157H148.126V469ZM144.819 469.107C144.386 469.107 144.048 468.996 143.806 468.776C143.571 468.548 143.454 468.264 143.454 467.923C143.454 467.574 143.571 467.286 143.806 467.059C144.041 466.824 144.343 466.625 144.713 466.461L146.739 465.555L146.878 466.173L145.097 467.005C144.855 467.126 144.677 467.247 144.563 467.368C144.45 467.482 144.393 467.617 144.393 467.773C144.393 467.951 144.453 468.09 144.574 468.189C144.695 468.289 144.876 468.339 145.118 468.339C145.339 468.339 145.538 468.307 145.715 468.243C145.9 468.172 146.057 468.076 146.185 467.955C146.32 467.834 146.423 467.695 146.494 467.539C146.572 467.382 146.611 467.208 146.611 467.016L146.643 467.507C146.601 467.748 146.508 467.994 146.366 468.243C146.224 468.484 146.025 468.691 145.769 468.861C145.513 469.025 145.196 469.107 144.819 469.107ZM150.941 471.091C150.28 471.091 149.753 470.988 149.362 470.781C148.978 470.582 148.786 470.312 148.786 469.971C148.786 469.807 148.825 469.665 148.904 469.544C148.989 469.43 149.096 469.331 149.224 469.245C149.359 469.16 149.49 469.092 149.618 469.043C149.462 468.993 149.337 468.908 149.245 468.787C149.16 468.666 149.117 468.52 149.117 468.349C149.117 468.214 149.149 468.076 149.213 467.933C149.284 467.791 149.38 467.649 149.501 467.507C149.629 467.357 149.782 467.215 149.96 467.08L150.173 467.176C150.109 467.261 150.041 467.364 149.97 467.485C149.906 467.606 149.874 467.727 149.874 467.848C149.874 467.983 149.92 468.086 150.013 468.157C150.105 468.228 150.287 468.264 150.557 468.264H152.114C152.584 468.264 152.953 468.36 153.224 468.552C153.501 468.737 153.64 469.028 153.64 469.427C153.64 469.747 153.533 470.031 153.32 470.28C153.113 470.536 152.808 470.735 152.402 470.877C152.004 471.02 151.517 471.091 150.941 471.091ZM150.941 470.355C151.531 470.355 151.983 470.284 152.296 470.141C152.616 469.999 152.776 469.8 152.776 469.544C152.776 469.373 152.712 469.249 152.584 469.171C152.456 469.1 152.26 469.064 151.997 469.064H149.885C149.807 469.142 149.728 469.231 149.65 469.331C149.572 469.437 149.533 469.555 149.533 469.683C149.533 469.889 149.65 470.052 149.885 470.173C150.127 470.294 150.479 470.355 150.941 470.355ZM151.154 467.421C150.749 467.421 150.393 467.343 150.088 467.187C149.789 467.03 149.551 466.813 149.373 466.536C149.202 466.252 149.117 465.932 149.117 465.576C149.117 465.213 149.202 464.893 149.373 464.616C149.551 464.339 149.789 464.122 150.088 463.965C150.393 463.809 150.749 463.731 151.154 463.731C151.56 463.731 151.915 463.809 152.221 463.965C152.534 464.122 152.772 464.339 152.936 464.616C153.106 464.893 153.192 465.213 153.192 465.576C153.192 465.932 153.106 466.252 152.936 466.536C152.772 466.813 152.534 467.03 152.221 467.187C151.915 467.343 151.56 467.421 151.154 467.421ZM151.154 466.707C151.474 466.707 151.744 466.607 151.965 466.408C152.185 466.209 152.296 465.932 152.296 465.576C152.296 465.22 152.185 464.943 151.965 464.744C151.744 464.545 151.474 464.445 151.154 464.445C150.834 464.445 150.564 464.545 150.344 464.744C150.123 464.943 150.013 465.22 150.013 465.576C150.013 465.932 150.123 466.209 150.344 466.408C150.564 466.607 150.834 466.707 151.154 466.707ZM153.352 463.005L152.285 464.2L152.061 463.965L152.392 462.664L153.352 463.005ZM156.51 469.107C156.033 469.107 155.61 468.996 155.24 468.776C154.878 468.556 154.593 468.243 154.387 467.837C154.181 467.432 154.078 466.959 154.078 466.419C154.078 465.871 154.181 465.398 154.387 465C154.593 464.595 154.878 464.282 155.24 464.061C155.61 463.841 156.033 463.731 156.51 463.731C156.986 463.731 157.406 463.841 157.768 464.061C158.138 464.282 158.426 464.595 158.632 465C158.846 465.398 158.952 465.871 158.952 466.419C158.952 466.959 158.846 467.432 158.632 467.837C158.426 468.243 158.138 468.556 157.768 468.776C157.406 468.996 156.986 469.107 156.51 469.107ZM156.51 468.328C156.808 468.328 157.068 468.26 157.288 468.125C157.516 467.983 157.694 467.773 157.822 467.496C157.95 467.212 158.014 466.852 158.014 466.419C158.014 465.985 157.95 465.629 157.822 465.352C157.694 465.068 157.516 464.858 157.288 464.723C157.068 464.58 156.808 464.509 156.51 464.509C156.218 464.509 155.959 464.58 155.731 464.723C155.511 464.858 155.336 465.068 155.208 465.352C155.087 465.629 155.027 465.985 155.027 466.419C155.027 466.852 155.087 467.212 155.208 467.496C155.336 467.773 155.511 467.983 155.731 468.125C155.959 468.26 156.218 468.328 156.51 468.328ZM162.039 469.107C161.684 469.107 161.343 469.053 161.015 468.947C160.688 468.84 160.404 468.684 160.162 468.477C159.927 468.264 159.75 467.997 159.629 467.677L160.301 467.155C160.365 467.347 160.468 467.535 160.61 467.72C160.759 467.898 160.955 468.044 161.197 468.157C161.439 468.271 161.73 468.328 162.071 468.328C162.377 468.328 162.623 468.271 162.807 468.157C162.992 468.036 163.085 467.862 163.085 467.635C163.085 467.4 162.978 467.233 162.765 467.133C162.559 467.034 162.306 466.948 162.007 466.877L161.325 466.717C161.083 466.66 160.845 466.579 160.61 466.472C160.375 466.358 160.18 466.205 160.023 466.013C159.867 465.814 159.789 465.558 159.789 465.245C159.789 464.776 159.956 464.406 160.29 464.136C160.624 463.866 161.072 463.731 161.634 463.731C162.182 463.731 162.637 463.855 162.999 464.104C163.369 464.353 163.625 464.648 163.767 464.989L163.063 465.512C162.935 465.206 162.747 464.964 162.498 464.787C162.256 464.609 161.951 464.52 161.581 464.52C161.311 464.52 161.09 464.577 160.919 464.691C160.749 464.804 160.663 464.972 160.663 465.192C160.663 465.42 160.749 465.587 160.919 465.693C161.097 465.8 161.36 465.896 161.709 465.981L162.37 466.152C162.953 466.287 163.355 466.479 163.575 466.728C163.803 466.97 163.917 467.268 163.917 467.624C163.917 467.965 163.828 468.246 163.65 468.467C163.479 468.68 163.252 468.84 162.967 468.947C162.69 469.053 162.381 469.107 162.039 469.107ZM172.328 469H167.464V468.275L169.8 465.971C170.056 465.708 170.287 465.459 170.493 465.224C170.707 464.982 170.874 464.744 170.995 464.509C171.123 464.268 171.187 464.015 171.187 463.752C171.187 463.56 171.148 463.382 171.069 463.219C170.998 463.048 170.877 462.909 170.707 462.803C170.543 462.696 170.326 462.643 170.056 462.643C169.658 462.643 169.32 462.728 169.043 462.899C168.773 463.062 168.577 463.308 168.456 463.635C168.342 463.955 168.314 464.353 168.371 464.829L167.507 464.285C167.457 463.816 167.539 463.389 167.752 463.005C167.965 462.621 168.275 462.316 168.68 462.088C169.093 461.86 169.573 461.747 170.12 461.747C170.589 461.747 170.973 461.832 171.272 462.003C171.571 462.173 171.791 462.404 171.933 462.696C172.076 462.988 172.147 463.318 172.147 463.688C172.147 463.98 172.086 464.264 171.965 464.541C171.845 464.812 171.692 465.071 171.507 465.32C171.322 465.569 171.126 465.796 170.92 466.003C170.721 466.209 170.54 466.39 170.376 466.547L169.267 467.592L168.499 468.243L169.373 468.179H172.328V469ZM176.077 469.107C175.423 469.107 174.882 468.943 174.455 468.616C174.029 468.289 173.712 467.848 173.506 467.293C173.3 466.732 173.197 466.106 173.197 465.416C173.197 464.726 173.3 464.108 173.506 463.56C173.712 463.005 174.029 462.564 174.455 462.237C174.882 461.91 175.423 461.747 176.077 461.747C176.731 461.747 177.268 461.91 177.687 462.237C178.114 462.564 178.431 463.005 178.637 463.56C178.843 464.108 178.946 464.726 178.946 465.416C178.946 466.106 178.843 466.732 178.637 467.293C178.431 467.848 178.114 468.289 177.687 468.616C177.268 468.943 176.731 469.107 176.077 469.107ZM176.087 468.221C176.557 468.221 176.93 468.104 177.207 467.869C177.485 467.628 177.68 467.297 177.794 466.877C177.915 466.451 177.975 465.964 177.975 465.416C177.975 464.868 177.915 464.388 177.794 463.976C177.68 463.556 177.485 463.226 177.207 462.984C176.93 462.742 176.557 462.621 176.087 462.621C175.611 462.621 175.234 462.742 174.957 462.984C174.679 463.226 174.48 463.556 174.359 463.976C174.239 464.388 174.178 464.868 174.178 465.416C174.178 465.964 174.239 466.451 174.359 466.877C174.48 467.297 174.679 467.628 174.957 467.869C175.234 468.104 175.611 468.221 176.087 468.221ZM184.88 469H180.016V468.275L182.352 465.971C182.608 465.708 182.839 465.459 183.046 465.224C183.259 464.982 183.426 464.744 183.547 464.509C183.675 464.268 183.739 464.015 183.739 463.752C183.739 463.56 183.7 463.382 183.622 463.219C183.55 463.048 183.43 462.909 183.259 462.803C183.095 462.696 182.878 462.643 182.608 462.643C182.21 462.643 181.872 462.728 181.595 462.899C181.325 463.062 181.129 463.308 181.008 463.635C180.894 463.955 180.866 464.353 180.923 464.829L180.059 464.285C180.009 463.816 180.091 463.389 180.304 463.005C180.518 462.621 180.827 462.316 181.232 462.088C181.645 461.86 182.125 461.747 182.672 461.747C183.142 461.747 183.526 461.832 183.824 462.003C184.123 462.173 184.343 462.404 184.486 462.696C184.628 462.988 184.699 463.318 184.699 463.688C184.699 463.98 184.638 464.264 184.518 464.541C184.397 464.812 184.244 465.071 184.059 465.32C183.874 465.569 183.678 465.796 183.472 466.003C183.273 466.209 183.092 466.39 182.928 466.547L181.819 467.592L181.051 468.243L181.926 468.179H184.88V469ZM191.416 467.293H185.613V466.568L189.208 461.853H189.581V462.92H189.421L186.669 466.472H191.416V467.293ZM190.136 469H189.208V461.853H190.136V469Z" fill="white"/>
<g clip-path="url(#clip1_919_476)">
<path d="M52.8114 77.0142H41.5112V34.952H52.8114V77.0142ZM98.8718 35.3915L96.0468 44.7456L105.464 75.5075L117.706 35.3915C118.082 34.1987 117.517 33.3825 116.262 33.3825H114.253V33.0686H123.293V33.3825H121.096C119.84 33.3825 118.773 34.1987 118.396 35.3915L105.778 76.6375L105.903 77.0142H102.639L94.4145 50.0818L86.2532 76.6375L86.3788 77.0142H83.1142L70.37 35.3915C69.9934 34.1987 68.9261 33.3825 67.6705 33.3825H66.6033V33.0686H76.2713V33.3825H75.0785C73.8229 33.3825 73.2579 34.1987 73.6346 35.3915L85.9393 75.5075L94.0378 48.9518L89.8944 35.3915C89.5177 34.1987 88.4505 33.3825 87.1949 33.3825H86.1276V33.0686H103.769V33.3825H101.571C100.316 33.3825 99.2485 34.1987 98.8718 35.3915ZM95.6701 43.6156L98.1813 35.3915C98.5579 34.1987 97.9929 33.3825 96.7373 33.3825H94.6028C93.3473 33.3825 92.7822 34.1987 93.1589 35.3915L95.6701 43.6156ZM137.723 77.0142H126.423V34.952H137.723V77.0142ZM175.535 77.0142H143.957V34.952H155.257V66.9695H175.535V77.0142ZM209.622 77.0142H178.044V34.952H189.344V66.9695H209.622V77.0142ZM245.698 77.0142H223.412V34.952H245.887C256.12 34.952 259.384 39.9744 259.384 45.6245C259.384 54.6019 250.658 55.6692 244.443 55.6692C256.434 55.6692 260.64 59.9382 260.64 66.2789C260.64 74.5658 254.55 77.0142 245.698 77.0142ZM243.187 44.9967H234.712V51.2746H243.187C245.887 51.2746 247.456 50.3957 247.456 48.1985C247.456 45.9384 245.887 44.9967 243.187 44.9967ZM244.129 60.0637H234.712V66.9695H244.129C247.645 66.9695 249.088 65.7767 249.088 63.5166C249.088 61.1938 247.645 60.0637 244.129 60.0637ZM296.633 77.0142H264.427V34.952H296.633V44.9967H275.727V50.9607H293.494V61.0054H275.727V66.9695H296.633V77.0142ZM333.228 77.0142H321.928V44.9967H309.812V34.952H345.345V44.9967H333.228V77.0142ZM358.799 77.0142H347.499V34.952H358.799V50.9607H373.866V34.952H385.167V77.0142H373.866V61.0054H358.799V77.0142ZM405.739 77.3281C396.51 77.3281 389.416 70.234 389.416 61.3821C389.416 52.4675 396.636 45.3106 405.487 45.3106C410.949 45.3106 416.034 48.0729 419.048 52.7813H406.869C415.281 54.2253 420.554 58.7454 420.554 65.5255C420.554 71.4896 415.281 77.3281 405.739 77.3281ZM402.411 46.4406C398.896 46.4406 396.949 48.5751 396.51 52.2791H409.505C408.501 49.0146 405.676 46.4406 402.411 46.4406ZM396.447 52.7813C395.568 62.8888 401.909 73.6869 410.949 73.6869C416.097 73.6869 419.801 69.2923 419.801 64.5211C419.801 57.3642 411.263 52.7813 402.16 52.7813H396.447ZM435.986 77.0142H424.686V34.952H444.838C454.631 34.952 461.663 38.8443 461.663 48.1357C461.663 56.2342 456.201 59.8126 449.044 60.4404C453.376 61.5077 455.259 64.2072 457.394 67.5345L463.42 77.0142H450.551L443.582 65.7767C441.887 63.0144 440.318 61.9471 436.865 61.9471H435.986V77.0142ZM444.963 44.9967H435.986V52.9069H444.963C448.165 52.9069 449.735 51.5258 449.735 48.9518C449.735 46.3151 448.165 44.9967 444.963 44.9967ZM498.029 77.0142H465.823V34.952H498.029V44.9967H477.124V50.9607H494.89V61.0054H477.124V66.9695H498.029V77.0142ZM514.352 62.3866H504.307C504.307 54.6019 501.796 45.1223 501.796 34.952H516.863C516.863 45.0595 514.352 54.6019 514.352 62.3866ZM514.98 77.0142H503.68V66.2789H514.98V77.0142Z" fill="white"/>
</g>
<g style="mix-blend-mode:difference" clip-path="url(#clip2_919_476)">
<path d="M52.8114 77.0142H41.5112V34.952H52.8114V77.0142ZM98.8718 35.3915L96.0468 44.7456L105.464 75.5075L117.706 35.3915C118.082 34.1987 117.517 33.3825 116.262 33.3825H114.253V33.0686H123.293V33.3825H121.096C119.84 33.3825 118.773 34.1987 118.396 35.3915L105.778 76.6375L105.903 77.0142H102.639L94.4145 50.0818L86.2532 76.6375L86.3788 77.0142H83.1142L70.37 35.3915C69.9934 34.1987 68.9261 33.3825 67.6705 33.3825H66.6033V33.0686H76.2713V33.3825H75.0785C73.8229 33.3825 73.2579 34.1987 73.6346 35.3915L85.9393 75.5075L94.0378 48.9518L89.8944 35.3915C89.5177 34.1987 88.4505 33.3825 87.1949 33.3825H86.1276V33.0686H103.769V33.3825H101.571C100.316 33.3825 99.2485 34.1987 98.8718 35.3915ZM95.6701 43.6156L98.1813 35.3915C98.5579 34.1987 97.9929 33.3825 96.7373 33.3825H94.6028C93.3473 33.3825 92.7822 34.1987 93.1589 35.3915L95.6701 43.6156ZM137.723 77.0142H126.423V34.952H137.723V77.0142ZM175.535 77.0142H143.957V34.952H155.257V66.9695H175.535V77.0142ZM209.622 77.0142H178.044V34.952H189.344V66.9695H209.622V77.0142ZM245.698 77.0142H223.412V34.952H245.887C256.12 34.952 259.384 39.9744 259.384 45.6245C259.384 54.6019 250.658 55.6692 244.443 55.6692C256.434 55.6692 260.64 59.9382 260.64 66.2789C260.64 74.5658 254.55 77.0142 245.698 77.0142ZM243.187 44.9967H234.712V51.2746H243.187C245.887 51.2746 247.456 50.3957 247.456 48.1985C247.456 45.9384 245.887 44.9967 243.187 44.9967ZM244.129 60.0637H234.712V66.9695H244.129C247.645 66.9695 249.088 65.7767 249.088 63.5166C249.088 61.1938 247.645 60.0637 244.129 60.0637ZM296.633 77.0142H264.427V34.952H296.633V44.9967H275.727V50.9607H293.494V61.0054H275.727V66.9695H296.633V77.0142ZM333.228 77.0142H321.928V44.9967H309.812V34.952H345.345V44.9967H333.228V77.0142ZM358.799 77.0142H347.499V34.952H358.799V50.9607H373.866V34.952H385.167V77.0142H373.866V61.0054H358.799V77.0142ZM405.739 77.3281C396.51 77.3281 389.416 70.234 389.416 61.3821C389.416 52.4675 396.636 45.3106 405.487 45.3106C410.949 45.3106 416.034 48.0729 419.048 52.7813H406.869C415.281 54.2253 420.554 58.7454 420.554 65.5255C420.554 71.4896 415.281 77.3281 405.739 77.3281ZM402.411 46.4406C398.896 46.4406 396.949 48.5751 396.51 52.2791H409.505C408.501 49.0146 405.676 46.4406 402.411 46.4406ZM396.447 52.7813C395.568 62.8888 401.909 73.6869 410.949 73.6869C416.097 73.6869 419.801 69.2923 419.801 64.5211C419.801 57.3642 411.263 52.7813 402.16 52.7813H396.447ZM435.986 77.0142H424.686V34.952H444.838C454.631 34.952 461.663 38.8443 461.663 48.1357C461.663 56.2342 456.201 59.8126 449.044 60.4404C453.376 61.5077 455.259 64.2072 457.394 67.5345L463.42 77.0142H450.551L443.582 65.7767C441.887 63.0144 440.318 61.9471 436.865 61.9471H435.986V77.0142ZM444.963 44.9967H435.986V52.9069H444.963C448.165 52.9069 449.735 51.5258 449.735 48.9518C449.735 46.3151 448.165 44.9967 444.963 44.9967ZM498.029 77.0142H465.823V34.952H498.029V44.9967H477.124V50.9607H494.89V61.0054H477.124V66.9695H498.029V77.0142ZM514.352 62.3866H504.307C504.307 54.6019 501.796 45.1223 501.796 34.952H516.863C516.863 45.0595 514.352 54.6019 514.352 62.3866ZM514.98 77.0142H503.68V66.2789H514.98V77.0142Z" fill="white"/>
</g>
</g>
<rect x="29.4" y="10.4" width="499.2" height="499.2" rx="23.8222" stroke="white" stroke-width="19.2"/>
</g>
<defs>
<filter id="filter0_d_919_476" x="0.599804" y="0.799805" width="556.8" height="563.2" filterUnits="userSpaceOnUse" color-interpolation-filters="sRGB">
<feFlood flood-opacity="0" result="BackgroundImageFix"/>
<feColorMatrix in="SourceAlpha" type="matrix" values="0 0 0 0 0 0 0 0 0 0 0 0 0 0 0 0 0 0 127 0" result="hardAlpha"/>
<feMorphology radius="19.2" operator="erode" in="SourceAlpha" result="effect1_dropShadow_919_476"/>
<feOffset dy="25.6"/>
<feGaussianBlur stdDeviation="19.2"/>
<feComposite in2="hardAlpha" operator="out"/>
<feColorMatrix type="matrix" values="0 0 0 0 0 0 0 0 0 0 0 0 0 0 0 0 0 0 0.45 0"/>
<feBlend mode="normal" in2="BackgroundImageFix" result="effect1_dropShadow_919_476"/>
<feBlend mode="normal" in="SourceGraphic" in2="effect1_dropShadow_919_476" result="shape"/>
</filter>
<filter id="filter1_f_919_476" x="44.6189" y="120.285" width="626.895" height="525.862" filterUnits="userSpaceOnUse" color-interpolation-filters="sRGB">
<feFlood flood-opacity="0" result="BackgroundImageFix"/>
<feBlend mode="normal" in="SourceGraphic" in2="BackgroundImageFix" result="shape"/>
<feGaussianBlur stdDeviation="72.9684" result="effect1_foregroundBlur_919_476"/>
</filter>
<filter id="filter2_f_919_476" x="141.91" y="292.946" width="257.893" height="255.91" filterUnits="userSpaceOnUse" color-interpolation-filters="sRGB">
<feFlood flood-opacity="0" result="BackgroundImageFix"/>
<feBlend mode="normal" in="SourceGraphic" in2="BackgroundImageFix" result="shape"/>
<feGaussianBlur stdDeviation="24.3228" result="effect1_foregroundBlur_919_476"/>
</filter>
<filter id="filter3_bf_919_476" x="334.019" y="235.266" width="222.514" height="220.532" filterUnits="userSpaceOnUse" color-interpolation-filters="sRGB">
<feFlood flood-opacity="0" result="BackgroundImageFix"/>
<feGaussianBlur in="BackgroundImageFix" stdDeviation="15.4781"/>
<feComposite in2="SourceAlpha" operator="in" result="effect1_backgroundBlur_919_476"/>
<feBlend mode="normal" in="SourceGraphic" in2="effect1_backgroundBlur_919_476" result="shape"/>
<feGaussianBlur stdDeviation="15.4781" result="effect2_foregroundBlur_919_476"/>
</filter>
<filter id="filter4_d_919_476" x="440.582" y="262.472" width="53.8832" height="53.8837" filterUnits="userSpaceOnUse" color-interpolation-filters="sRGB">
<feFlood flood-opacity="0" result="BackgroundImageFix"/>
<feColorMatrix in="SourceAlpha" type="matrix" values="0 0 0 0 0 0 0 0 0 0 0 0 0 0 0 0 0 0 127 0" result="hardAlpha"/>
<feOffset dy="1.77778"/>
<feGaussianBlur stdDeviation="4.44445"/>
<feComposite in2="hardAlpha" operator="out"/>
<feColorMatrix type="matrix" values="0 0 0 0 0.258824 0 0 0 0 0.137255 0 0 0 0 0.835294 0 0 0 1 0"/>
<feBlend mode="normal" in2="BackgroundImageFix" result="effect1_dropShadow_919_476"/>
<feBlend mode="normal" in="SourceGraphic" in2="effect1_dropShadow_919_476" result="shape"/>
</filter>
<filter id="filter5_d_919_476" x="414.804" y="183.361" width="53.8832" height="53.8837" filterUnits="userSpaceOnUse" color-interpolation-filters="sRGB">
<feFlood flood-opacity="0" result="BackgroundImageFix"/>
<feColorMatrix in="SourceAlpha" type="matrix" values="0 0 0 0 0 0 0 0 0 0 0 0 0 0 0 0 0 0 127 0" result="hardAlpha"/>
<feOffset dy="1.77778"/>
<feGaussianBlur stdDeviation="4.44445"/>
<feComposite in2="hardAlpha" operator="out"/>
<feColorMatrix type="matrix" values="0 0 0 0 0.258824 0 0 0 0 0.137255 0 0 0 0 0.835294 0 0 0 1 0"/>
<feBlend mode="normal" in2="BackgroundImageFix" result="effect1_dropShadow_919_476"/>
<feBlend mode="normal" in="SourceGraphic" in2="effect1_dropShadow_919_476" result="shape"/>
</filter>
<filter id="filter6_d_919_476" x="422.6" y="236.045" width="31.3442" height="31.3442" filterUnits="userSpaceOnUse" color-interpolation-filters="sRGB">
<feFlood flood-opacity="0" result="BackgroundImageFix"/>
<feColorMatrix in="SourceAlpha" type="matrix" values="0 0 0 0 0 0 0 0 0 0 0 0 0 0 0 0 0 0 127 0" result="hardAlpha"/>
<feOffset dy="1.77778"/>
<feGaussianBlur stdDeviation="4.44445"/>
<feComposite in2="hardAlpha" operator="out"/>
<feColorMatrix type="matrix" values="0 0 0 0 0.258824 0 0 0 0 0.137255 0 0 0 0 0.835294 0 0 0 1 0"/>
<feBlend mode="normal" in2="BackgroundImageFix" result="effect1_dropShadow_919_476"/>
<feBlend mode="normal" in="SourceGraphic" in2="effect1_dropShadow_919_476" result="shape"/>
</filter>
<filter id="filter7_f_919_476" x="256.195" y="-157.028" width="217.521" height="208.6" filterUnits="userSpaceOnUse" color-interpolation-filters="sRGB">
<feFlood flood-opacity="0" result="BackgroundImageFix"/>
<feBlend mode="normal" in="SourceGraphic" in2="BackgroundImageFix" result="shape"/>
<feGaussianBlur stdDeviation="29.847" result="effect1_foregroundBlur_919_476"/>
</filter>
<filter id="filter8_f_919_476" x="-28.2497" y="21.1946" width="217.521" height="208.6" filterUnits="userSpaceOnUse" color-interpolation-filters="sRGB">
<feFlood flood-opacity="0" result="BackgroundImageFix"/>
<feBlend mode="normal" in="SourceGraphic" in2="BackgroundImageFix" result="shape"/>
<feGaussianBlur stdDeviation="29.847" result="effect1_foregroundBlur_919_476"/>
</filter>
<filter id="filter9_f_919_476" x="11.5463" y="60.9907" width="105.488" height="104.677" filterUnits="userSpaceOnUse" color-interpolation-filters="sRGB">
<feFlood flood-opacity="0" result="BackgroundImageFix"/>
<feBlend mode="normal" in="SourceGraphic" in2="BackgroundImageFix" result="shape"/>
<feGaussianBlur stdDeviation="9.94901" result="effect1_foregroundBlur_919_476"/>
</filter>
<filter id="filter10_bf_919_476" x="51.2229" y="92.5569" width="91.0171" height="90.2061" filterUnits="userSpaceOnUse" color-interpolation-filters="sRGB">
<feFlood flood-opacity="0" result="BackgroundImageFix"/>
<feGaussianBlur in="BackgroundImageFix" stdDeviation="6.33118"/>
<feComposite in2="SourceAlpha" operator="in" result="effect1_backgroundBlur_919_476"/>
<feBlend mode="normal" in="SourceGraphic" in2="effect1_backgroundBlur_919_476" result="shape"/>
<feGaussianBlur stdDeviation="6.33118" result="effect2_foregroundBlur_919_476"/>
</filter>
<filter id="filter11_bf_919_476" x="64.8796" y="100.469" width="59.5074" height="49.7217" filterUnits="userSpaceOnUse" color-interpolation-filters="sRGB">
<feFlood flood-opacity="0" result="BackgroundImageFix"/>
<feGaussianBlur in="BackgroundImageFix" stdDeviation="6.33118"/>
<feComposite in2="SourceAlpha" operator="in" result="effect1_backgroundBlur_919_476"/>
<feBlend mode="normal" in="SourceGraphic" in2="effect1_backgroundBlur_919_476" result="shape"/>
<feGaussianBlur stdDeviation="5.42673" result="effect2_foregroundBlur_919_476"/>
</filter>
<filter id="filter12_bf_919_476" x="80.6487" y="109.674" width="37.9605" height="34.3433" filterUnits="userSpaceOnUse" color-interpolation-filters="sRGB">
<feFlood flood-opacity="0" result="BackgroundImageFix"/>
<feGaussianBlur in="BackgroundImageFix" stdDeviation="6.33118"/>
<feComposite in2="SourceAlpha" operator="in" result="effect1_backgroundBlur_919_476"/>
<feBlend mode="normal" in="SourceGraphic" in2="effect1_backgroundBlur_919_476" result="shape"/>
<feGaussianBlur stdDeviation="1.5828" result="effect2_foregroundBlur_919_476"/>
</filter>
<filter id="filter13_bf_919_476" x="70.282" y="105.692" width="35.1783" height="32.3575" filterUnits="userSpaceOnUse" color-interpolation-filters="sRGB">
<feFlood flood-opacity="0" result="BackgroundImageFix"/>
<feGaussianBlur in="BackgroundImageFix" stdDeviation="6.33118"/>
<feComposite in2="SourceAlpha" operator="in" result="effect1_backgroundBlur_919_476"/>
<feBlend mode="normal" in="SourceGraphic" in2="effect1_backgroundBlur_919_476" result="shape"/>
<feGaussianBlur stdDeviation="1.5828" result="effect2_foregroundBlur_919_476"/>
</filter>
<linearGradient id="paint0_linear_919_476" x1="189.687" y1="291.237" x2="189.687" y2="567.584" gradientUnits="userSpaceOnUse">
<stop stop-color="#4223D5"/>
<stop offset="1" stop-color="#3819CB"/>
</linearGradient>
<radialGradient id="paint1_radial_919_476" cx="0" cy="0" r="1" gradientUnits="userSpaceOnUse" gradientTransform="translate(189.445 353.294) rotate(90) scale(274.65 325.555)">
<stop offset="0.42" stop-color="#9677F8" stop-opacity="0"/>
<stop offset="1" stop-color="#9677F8"/>
</radialGradient>
<clipPath id="clip0_919_476">
<rect x="39" y="20" width="480" height="480" rx="14.2222" fill="white"/>
</clipPath>
<clipPath id="clip1_919_476">
<rect width="384.444" height="68.8889" fill="white" transform="translate(39 19.1113)"/>
</clipPath>
<clipPath id="clip2_919_476">
<rect width="95.5556" height="68.8889" fill="white" transform="translate(423.444 19.1113)"/>
</clipPath>
</defs>
</svg>
