<svg width="25" height="25" viewBox="0 0 25 25" fill="none" xmlns="http://www.w3.org/2000/svg">
<rect x="0.5" y="0.0375977" width="24" height="24" rx="3.33333" fill="#4334D3"/>
<path d="M16.4375 7.875H8.5625C8.21452 7.87537 7.88089 8.01377 7.63483 8.25983C7.38877 8.50589 7.25037 8.83952 7.25 9.1875V14.8125C7.25037 15.1605 7.38877 15.4941 7.63483 15.7402C7.88089 15.9862 8.21452 16.1246 8.5625 16.125H16.4375C16.7855 16.1246 17.1191 15.9862 17.3652 15.7402C17.6112 15.4941 17.7496 15.1605 17.75 14.8125V9.1875C17.7496 8.83952 17.6112 8.50589 17.3652 8.25983C17.1191 8.01377 16.7855 7.87537 16.4375 7.875ZM16.1052 10.046L12.7302 12.671C12.6643 12.7222 12.5834 12.75 12.5 12.75C12.4166 12.75 12.3357 12.7222 12.2698 12.671L8.89484 10.046C8.85519 10.0161 8.82188 9.97854 8.79686 9.93562C8.77184 9.89269 8.75559 9.84521 8.74907 9.79595C8.74256 9.74669 8.74589 9.69663 8.75889 9.64867C8.77189 9.60071 8.79429 9.55581 8.82479 9.51658C8.85529 9.47735 8.89328 9.44458 8.93656 9.42016C8.97983 9.39574 9.02753 9.38017 9.07688 9.37435C9.12623 9.36852 9.17624 9.37256 9.22401 9.38623C9.27178 9.39991 9.31636 9.42294 9.35516 9.45398L12.5 11.8999L15.6448 9.45398C15.7235 9.3946 15.8223 9.36855 15.92 9.38148C16.0177 9.39441 16.1064 9.44527 16.1669 9.52306C16.2274 9.60085 16.2548 9.69933 16.2432 9.79719C16.2317 9.89506 16.1821 9.98444 16.1052 10.046Z" fill="white"/>
</svg>
