<svg width="12" height="12" viewBox="0 0 12 12" fill="none" xmlns="http://www.w3.org/2000/svg">
<g id="ion:ticket" clip-path="url(#clip0_60_22607)">
<path id="Vector" d="M11.4886 4.25152L10.4543 3.21722C10.3708 3.1349 10.2596 3.08683 10.1424 3.08249C10.0253 3.07815 9.91079 3.11786 9.82148 3.19378C9.6836 3.31114 9.50667 3.37242 9.32574 3.36548C9.1448 3.35853 8.97309 3.28387 8.84461 3.15628C8.71709 3.02782 8.64247 2.85615 8.63552 2.67527C8.62858 2.49439 8.68982 2.31751 8.80711 2.17964C8.88303 2.09033 8.92274 1.97582 8.9184 1.85868C8.91406 1.74154 8.86599 1.63028 8.78367 1.54683L7.74844 0.51136C7.66095 0.424041 7.54239 0.375 7.41879 0.375C7.29518 0.375 7.17663 0.424041 7.08914 0.51136L5.44031 2.15995C5.33851 2.26212 5.26174 2.38645 5.21601 2.52323C5.20711 2.54953 5.19227 2.57342 5.17263 2.59306C5.153 2.61269 5.12911 2.62753 5.10281 2.63644C4.96598 2.68217 4.84162 2.75903 4.73953 2.86097L0.511406 7.08909C0.424087 7.17658 0.375046 7.29514 0.375046 7.41874C0.375046 7.54235 0.424087 7.6609 0.511406 7.74839L1.54687 8.78269C1.63032 8.86501 1.74159 8.91308 1.85872 8.91742C1.97586 8.92176 2.09038 8.88205 2.17969 8.80613C2.31724 8.68782 2.49442 8.62586 2.67572 8.63266C2.85703 8.63947 3.02906 8.71454 3.15735 8.84284C3.28564 8.97113 3.36071 9.14316 3.36752 9.32447C3.37433 9.50577 3.31237 9.68295 3.19406 9.8205C3.11814 9.90981 3.07843 10.0243 3.08277 10.1415C3.08711 10.2586 3.13518 10.3699 3.2175 10.4533L4.2518 11.4876C4.33928 11.5749 4.45784 11.624 4.58144 11.624C4.70505 11.624 4.82361 11.5749 4.91109 11.4876L9.13922 7.25948C9.2411 7.15744 9.31796 7.03317 9.36375 6.89644C9.37261 6.87005 9.38747 6.84608 9.40715 6.8264C9.42683 6.80672 9.4508 6.79187 9.47719 6.783C9.61389 6.73726 9.73815 6.66049 9.84023 6.5587L11.4888 4.90988C11.5758 4.8224 11.6246 4.70402 11.6246 4.58065C11.6246 4.45727 11.5757 4.33893 11.4886 4.25152ZM6.13617 3.55659C6.10135 3.59143 6.06 3.61906 6.0145 3.63791C5.969 3.65676 5.92023 3.66646 5.87098 3.66646C5.82172 3.66646 5.77295 3.65676 5.72745 3.63791C5.68195 3.61906 5.6406 3.59143 5.60578 3.55659L5.33601 3.28683C5.2674 3.21615 5.22935 3.12131 5.23009 3.0228C5.23084 2.9243 5.27031 2.83004 5.33998 2.7604C5.40965 2.69076 5.50392 2.65133 5.60243 2.65064C5.70093 2.64994 5.79576 2.68803 5.86641 2.75667L6.13617 3.0262C6.171 3.06103 6.19863 3.10237 6.21748 3.14787C6.23633 3.19338 6.24604 3.24215 6.24604 3.2914C6.24604 3.34065 6.23633 3.38942 6.21748 3.43492C6.19863 3.48043 6.171 3.52177 6.13617 3.55659ZM7.16742 4.58784C7.0971 4.65812 7.00176 4.69759 6.90234 4.69759C6.80293 4.69759 6.70758 4.65812 6.63727 4.58784L6.37945 4.33003C6.34463 4.29521 6.317 4.25386 6.29815 4.20836C6.27931 4.16286 6.2696 4.11409 6.2696 4.06484C6.2696 4.01558 6.27931 3.96682 6.29815 3.92131C6.317 3.87581 6.34463 3.83447 6.37945 3.79964C6.44979 3.72931 6.54518 3.68979 6.64465 3.68979C6.6939 3.68979 6.74267 3.69949 6.78817 3.71834C6.83367 3.73719 6.87502 3.76481 6.90984 3.79964L7.16766 4.05745C7.20261 4.09227 7.23034 4.13365 7.24928 4.17921C7.26821 4.22477 7.27797 4.27362 7.27799 4.32295C7.27801 4.37229 7.2683 4.42114 7.2494 4.46672C7.23051 4.5123 7.20281 4.5537 7.16789 4.58855L7.16742 4.58784ZM8.19867 5.61909C8.16385 5.65392 8.1225 5.68155 8.077 5.70041C8.0315 5.71926 7.98273 5.72896 7.93348 5.72896C7.88422 5.72896 7.83545 5.71926 7.78995 5.70041C7.74445 5.68155 7.7031 5.65392 7.66828 5.61909L7.41047 5.36128C7.34185 5.2906 7.30381 5.19576 7.30455 5.09726C7.30529 4.99875 7.34476 4.9045 7.41443 4.83486C7.4841 4.76522 7.57838 4.72579 7.67688 4.72509C7.77538 4.72439 7.87021 4.76248 7.94086 4.83113L8.19867 5.08894C8.23372 5.1237 8.26156 5.16504 8.28059 5.21059C8.29963 5.25614 8.30948 5.30499 8.30959 5.35436C8.3097 5.40372 8.30006 5.45262 8.28123 5.49825C8.2624 5.54389 8.23474 5.58535 8.19984 5.62027L8.19867 5.61909ZM9.24 6.663C9.20518 6.69783 9.16383 6.72546 9.11833 6.74431C9.07283 6.76316 9.02406 6.77287 8.9748 6.77287C8.92555 6.77287 8.87678 6.76316 8.83128 6.74431C8.78578 6.72546 8.74443 6.69783 8.70961 6.663L8.44148 6.39347C8.40592 6.35875 8.37762 6.31731 8.35821 6.27155C8.33881 6.22579 8.32869 6.17664 8.32846 6.12694C8.32822 6.07724 8.33786 6.02799 8.35683 5.98205C8.3758 5.93611 8.4037 5.8944 8.43893 5.85934C8.47416 5.82428 8.51601 5.79657 8.56204 5.77783C8.60807 5.75909 8.65737 5.74968 8.70707 5.75016C8.75676 5.75064 8.80587 5.761 8.85153 5.78062C8.89719 5.80025 8.9385 5.82875 8.97305 5.86448L9.24141 6.13378C9.27622 6.16862 9.30383 6.20998 9.32266 6.25549C9.34149 6.301 9.35118 6.34977 9.35115 6.39903C9.35113 6.44828 9.34141 6.49704 9.32254 6.54254C9.30367 6.58803 9.27602 6.62936 9.24117 6.66417L9.24 6.663Z" fill="#4334D3"/>
</g>
<defs>
<clipPath id="clip0_60_22607">
<rect width="12" height="12" fill="white"/>
</clipPath>
</defs>
</svg>
