<svg width="17" height="16" viewBox="0 0 17 16" fill="none" xmlns="http://www.w3.org/2000/svg">
<rect x="0.5" width="16" height="16" rx="4" fill="#4334D3"/>
<g clip-path="url(#clip0_60_24810)">
<path d="M12.035 8.005C12.1001 8.0142 12.1627 8.03614 12.2193 8.06958C12.276 8.10301 12.3254 8.14729 12.3649 8.19986C12.4044 8.25243 12.4331 8.31227 12.4494 8.37596C12.4657 8.43964 12.4693 8.50592 12.46 8.571C12.3347 9.43801 11.9283 10.24 11.3033 10.8538C10.6783 11.4676 9.86914 11.8594 9 11.969V12.5C9 12.6326 8.94732 12.7598 8.85355 12.8536C8.75978 12.9473 8.63261 13 8.5 13C8.36739 13 8.24021 12.9473 8.14645 12.8536C8.05268 12.7598 8 12.6326 8 12.5V11.969C7.13098 11.8592 6.32199 11.4673 5.69708 10.8535C5.07218 10.2397 4.66588 9.43791 4.5405 8.571C4.52167 8.43972 4.55576 8.30633 4.63528 8.20019C4.71479 8.09404 4.83322 8.02383 4.9645 8.005C5.09578 7.98617 5.22917 8.02026 5.33531 8.09978C5.44146 8.17929 5.51167 8.29772 5.5305 8.429C5.63391 9.14279 5.99097 9.79546 6.5363 10.2675C7.08164 10.7395 7.77875 10.9993 8.5 10.9993C9.22125 10.9993 9.91836 10.7395 10.4637 10.2675C11.009 9.79546 11.3661 9.14279 11.4695 8.429C11.4788 8.36399 11.5008 8.30146 11.5343 8.24496C11.5678 8.18847 11.6121 8.13913 11.6647 8.09976C11.7172 8.06038 11.777 8.03175 11.8407 8.01549C11.9043 7.99923 11.97 7.99567 12.035 8.005ZM8.5 3C9.16304 3 9.79892 3.26339 10.2678 3.73223C10.7366 4.20107 11 4.83696 11 5.5V8C11 8.66304 10.7366 9.29893 10.2678 9.76777C9.79892 10.2366 9.16304 10.5 8.5 10.5C7.83696 10.5 7.20107 10.2366 6.73223 9.76777C6.26339 9.29893 6 8.66304 6 8V5.5C6 4.83696 6.26339 4.20107 6.73223 3.73223C7.20107 3.26339 7.83696 3 8.5 3Z" fill="white"/>
</g>
<defs>
<clipPath id="clip0_60_24810">
<rect width="12" height="12" fill="white" transform="translate(2.5 2)"/>
</clipPath>
</defs>
</svg>
