<svg width="12" height="12" viewBox="0 0 12 12" fill="none" xmlns="http://www.w3.org/2000/svg">
<g id="mingcute:mic-fill" clip-path="url(#clip0_60_24752)">
<g id="Group">
<path id="Vector" d="M9.535 6.005C9.6001 6.0142 9.66274 6.03614 9.71935 6.06958C9.77595 6.10301 9.82541 6.14729 9.86488 6.19986C9.90436 6.25243 9.93308 6.31227 9.9494 6.37596C9.96572 6.43964 9.96932 6.50592 9.96 6.571C9.83467 7.43801 9.42833 8.23995 8.80331 8.85377C8.17829 9.46759 7.36914 9.85937 6.5 9.969V10.5C6.5 10.6326 6.44732 10.7598 6.35355 10.8536C6.25978 10.9473 6.13261 11 6 11C5.86739 11 5.74021 10.9473 5.64645 10.8536C5.55268 10.7598 5.5 10.6326 5.5 10.5V9.969C4.63098 9.85919 3.82199 9.46733 3.19708 8.85354C2.57218 8.23975 2.16588 7.43791 2.0405 6.571C2.02167 6.43972 2.05576 6.30633 2.13528 6.20019C2.21479 6.09404 2.33322 6.02383 2.4645 6.005C2.59578 5.98617 2.72917 6.02026 2.83531 6.09978C2.94146 6.17929 3.01167 6.29772 3.0305 6.429C3.13391 7.14279 3.49097 7.79546 4.0363 8.26748C4.58164 8.7395 5.27875 8.9993 6 8.9993C6.72125 8.9993 7.41836 8.7395 7.96369 8.26748C8.50903 7.79546 8.86609 7.14279 8.9695 6.429C8.97881 6.36399 9.00085 6.30146 9.03433 6.24496C9.06782 6.18847 9.11211 6.13913 9.16467 6.09976C9.21723 6.06038 9.27703 6.03175 9.34066 6.01549C9.40429 5.99923 9.46999 5.99567 9.535 6.005ZM6 1C6.66304 1 7.29892 1.26339 7.76777 1.73223C8.23661 2.20107 8.5 2.83696 8.5 3.5V6C8.5 6.66304 8.23661 7.29893 7.76777 7.76777C7.29892 8.23661 6.66304 8.5 6 8.5C5.33696 8.5 4.70107 8.23661 4.23223 7.76777C3.76339 7.29893 3.5 6.66304 3.5 6V3.5C3.5 2.83696 3.76339 2.20107 4.23223 1.73223C4.70107 1.26339 5.33696 1 6 1Z" fill="white"/>
</g>
</g>
<defs>
<clipPath id="clip0_60_24752">
<rect width="12" height="12" fill="white"/>
</clipPath>
</defs>
</svg>
