<svg width="24" height="24" viewBox="0 0 24 24" fill="none" xmlns="http://www.w3.org/2000/svg">
<rect width="24" height="24" rx="8" fill="white"/>
<path d="M12.514 6.9629C12.8788 6.9615 13.2437 6.96516 13.6085 6.9739L13.7055 6.9774C13.8175 6.9814 13.928 6.9864 14.0615 6.9924C14.5935 7.0174 14.9565 7.1014 15.275 7.2249C15.605 7.3519 15.883 7.5239 16.161 7.8019C16.4152 8.0517 16.6119 8.35387 16.7375 8.6874C16.861 9.0059 16.945 9.3694 16.97 9.9014C16.976 10.0344 16.981 10.1454 16.985 10.2574L16.988 10.3544C16.9969 10.719 17.0007 11.0837 16.9995 11.4484L17 11.8214V12.4764C17.0012 12.8413 16.9974 13.2061 16.9885 13.5709L16.9855 13.6679C16.9815 13.7799 16.9765 13.8904 16.9705 14.0239C16.9455 14.5559 16.8605 14.9189 16.7375 15.2374C16.6123 15.5713 16.4155 15.8737 16.161 16.1234C15.911 16.3776 15.6086 16.5743 15.275 16.6999C14.9565 16.8234 14.5935 16.9074 14.0615 16.9324C13.928 16.9384 13.8175 16.9434 13.7055 16.9474L13.6085 16.9504C13.2437 16.9593 12.8789 16.9631 12.514 16.9619L12.141 16.9624H11.4865C11.1216 16.9636 10.7567 16.9598 10.392 16.9509L10.295 16.9479C10.1763 16.9436 10.0576 16.9386 9.93898 16.9329C9.40698 16.9079 9.04398 16.8229 8.72498 16.6999C8.39133 16.5746 8.0891 16.3778 7.83948 16.1234C7.58501 15.8735 7.3881 15.5712 7.26248 15.2374C7.13898 14.9189 7.05498 14.5559 7.02998 14.0239C7.02441 13.9053 7.01941 13.7866 7.01498 13.6679L7.01248 13.5709C7.00327 13.2061 6.9991 12.8413 6.99998 12.4764V11.4484C6.99859 11.0837 7.00225 10.719 7.01098 10.3544L7.01448 10.2574C7.01848 10.1454 7.02348 10.0344 7.02948 9.9014C7.05448 9.3689 7.13848 9.0064 7.26198 8.6874C7.38767 8.35371 7.58497 8.05162 7.83998 7.8024C8.08943 7.54777 8.39146 7.35068 8.72498 7.2249C9.04398 7.1014 9.40648 7.0174 9.93898 6.9924L10.295 6.9774L10.392 6.9749C10.7566 6.96568 11.1213 6.96151 11.486 6.9624L12.514 6.9629ZM12 9.4629C11.6687 9.45821 11.3399 9.51941 11.0325 9.64293C10.7251 9.76645 10.4453 9.94983 10.2094 10.1824C9.97351 10.415 9.78618 10.6922 9.65833 10.9978C9.53047 11.3034 9.46463 11.6314 9.46463 11.9626C9.46463 12.2939 9.53047 12.6219 9.65833 12.9275C9.78618 13.2331 9.97351 13.5103 10.2094 13.7429C10.4453 13.9755 10.7251 14.1588 11.0325 14.2824C11.3399 14.4059 11.6687 14.4671 12 14.4624C12.663 14.4624 13.2989 14.199 13.7678 13.7302C14.2366 13.2613 14.5 12.6254 14.5 11.9624C14.5 11.2994 14.2366 10.6635 13.7678 10.1946C13.2989 9.72579 12.663 9.4629 12 9.4629ZM12 10.4629C12.1992 10.4592 12.3972 10.4953 12.5824 10.569C12.7675 10.6427 12.9362 10.7526 13.0784 10.8922C13.2206 11.0318 13.3336 11.1983 13.4107 11.3821C13.4878 11.5658 13.5276 11.7631 13.5276 11.9624C13.5277 12.1617 13.488 12.359 13.4109 12.5428C13.3338 12.7265 13.2209 12.8931 13.0787 13.0328C12.9366 13.1724 12.768 13.2823 12.5828 13.3561C12.3977 13.4299 12.1997 13.466 12.0005 13.4624C11.6027 13.4624 11.2211 13.3044 10.9398 13.0231C10.6585 12.7418 10.5005 12.3602 10.5005 11.9624C10.5005 11.5646 10.6585 11.183 10.9398 10.9017C11.2211 10.6204 11.6027 10.4624 12.0005 10.4624L12 10.4629ZM14.625 8.7129C14.4637 8.71935 14.3111 8.78797 14.1993 8.90438C14.0874 9.02079 14.025 9.17596 14.025 9.3374C14.025 9.49883 14.0874 9.654 14.1993 9.77041C14.3111 9.88682 14.4637 9.95544 14.625 9.9619C14.7907 9.9619 14.9497 9.89605 15.0669 9.77884C15.1841 9.66163 15.25 9.50266 15.25 9.3369C15.25 9.17114 15.1841 9.01216 15.0669 8.89495C14.9497 8.77774 14.7907 8.7119 14.625 8.7119V8.7129Z" fill="#2F1C81"/>
</svg>
