<svg width="25" height="25" viewBox="0 0 25 25" fill="none" xmlns="http://www.w3.org/2000/svg">
<rect x="0.5" y="0.0375977" width="24" height="24" rx="3.33333" fill="#4334D3"/>
<path d="M13.014 7.00049C13.3789 6.99909 13.7438 7.00276 14.1085 7.01149L14.2055 7.01499C14.3175 7.01899 14.428 7.02399 14.5615 7.02999C15.0935 7.05499 15.4565 7.13899 15.775 7.26249C16.105 7.38949 16.383 7.56149 16.661 7.83949C16.9152 8.0893 17.112 8.39147 17.2375 8.72499C17.361 9.04349 17.445 9.40699 17.47 9.93899C17.476 10.072 17.481 10.183 17.485 10.295L17.488 10.392C17.4969 10.7566 17.5008 11.1213 17.4995 11.486L17.5 11.859V12.514C17.5013 12.8789 17.4974 13.2437 17.4885 13.6085L17.4855 13.7055C17.4815 13.8175 17.4765 13.928 17.4705 14.0615C17.4455 14.5935 17.3605 14.9565 17.2375 15.275C17.1124 15.6089 16.9156 15.9113 16.661 16.161C16.411 16.4152 16.1087 16.6119 15.775 16.7375C15.4565 16.861 15.0935 16.945 14.5615 16.97C14.428 16.976 14.3175 16.981 14.2055 16.985L14.1085 16.988C13.7438 16.9969 13.3789 17.0007 13.014 16.9995L12.641 17H11.9865C11.6217 17.0012 11.2568 16.9974 10.892 16.9885L10.795 16.9855C10.6763 16.9812 10.5577 16.9762 10.439 16.9705C9.90704 16.9455 9.54404 16.8605 9.22504 16.7375C8.89139 16.6122 8.58916 16.4154 8.33954 16.161C8.08507 15.9111 7.88816 15.6088 7.76254 15.275C7.63904 14.9565 7.55504 14.5935 7.53004 14.0615C7.52448 13.9429 7.51948 13.8242 7.51504 13.7055L7.51254 13.6085C7.50333 13.2437 7.49916 12.8789 7.50004 12.514V11.486C7.49865 11.1213 7.50232 10.7566 7.51104 10.392L7.51454 10.295C7.51854 10.183 7.52354 10.072 7.52954 9.93899C7.55454 9.40649 7.63854 9.04399 7.76204 8.72499C7.88773 8.3913 8.08503 8.08922 8.34004 7.83999C8.58949 7.58537 8.89153 7.38828 9.22504 7.26249C9.54404 7.13899 9.90654 7.05499 10.439 7.02999L10.795 7.01499L10.892 7.01249C11.2566 7.00328 11.6213 6.99911 11.986 6.99999L13.014 7.00049ZM12.5 9.50049C12.1688 9.49581 11.8399 9.55701 11.5325 9.68053C11.2251 9.80405 10.9454 9.98743 10.7095 10.22C10.4736 10.4526 10.2862 10.7298 10.1584 11.0354C10.0305 11.341 9.96469 11.669 9.96469 12.0002C9.96469 12.3315 10.0305 12.6595 10.1584 12.9651C10.2862 13.2707 10.4736 13.5479 10.7095 13.7805C10.9454 14.0131 11.2251 14.1964 11.5325 14.32C11.8399 14.4435 12.1688 14.5047 12.5 14.5C13.1631 14.5 13.799 14.2366 14.2678 13.7678C14.7367 13.2989 15 12.663 15 12C15 11.337 14.7367 10.7011 14.2678 10.2322C13.799 9.76339 13.1631 9.50049 12.5 9.50049ZM12.5 10.5005C12.6993 10.4968 12.8973 10.5329 13.0824 10.6066C13.2676 10.6803 13.4362 10.7902 13.5784 10.9298C13.7207 11.0694 13.8336 11.2359 13.9108 11.4197C13.9879 11.6034 14.0276 11.8007 14.0277 12C14.0277 12.1993 13.988 12.3966 13.911 12.5804C13.8339 12.7641 13.721 12.9307 13.5788 13.0704C13.4366 13.21 13.268 13.3199 13.0829 13.3937C12.8978 13.4675 12.6998 13.5036 12.5005 13.5C12.1027 13.5 11.7212 13.342 11.4399 13.0607C11.1586 12.7793 11.0005 12.3978 11.0005 12C11.0005 11.6022 11.1586 11.2206 11.4399 10.9393C11.7212 10.658 12.1027 10.5 12.5005 10.5L12.5 10.5005ZM15.125 8.75049C14.9637 8.75695 14.8112 8.82557 14.6993 8.94198C14.5875 9.05839 14.525 9.21356 14.525 9.37499C14.525 9.53643 14.5875 9.6916 14.6993 9.80801C14.8112 9.92442 14.9637 9.99304 15.125 9.99949C15.2908 9.99949 15.4498 9.93365 15.567 9.81643C15.6842 9.69922 15.75 9.54025 15.75 9.37449C15.75 9.20873 15.6842 9.04976 15.567 8.93255C15.4498 8.81534 15.2908 8.74949 15.125 8.74949V8.75049Z" fill="white"/>
</svg>
