<svg width="25" height="25" viewBox="0 0 25 25" fill="none" xmlns="http://www.w3.org/2000/svg">
<rect x="0.5" y="0.0375977" width="24" height="24" rx="3.33333" fill="#4334D3"/>
<path d="M13.014 7C16.1836 7 16.4662 7.11706 16.6746 7.32544C16.8829 7.53381 17 7.81643 17 8.11111V15.8889C17 16.1836 16.8829 16.4662 16.6746 16.6746C16.4662 16.8829 16.1836 17 15.8889 17H8.11111C7.81643 17 7.53381 16.8829 7.32544 16.6746C7.11706 16.4662 7 16.1836 7 15.8889V8.11111C7 7.81643 7.11706 7.53381 7.32544 7.32544C7.53381 7.11706 7.81643 7 8.11111 7H15.8889ZM15.6111 15.6111V12.6667C15.6111 12.1863 15.4203 11.7257 15.0806 11.386C14.741 11.0464 14.2803 10.8556 13.8 10.8556C13.3278 10.8556 12.7778 11.1444 12.5111 11.5778V10.9611H10.9611V15.6111H12.5111V12.8722C12.5111 12.4444 12.8556 12.0944 13.2833 12.0944C13.4896 12.0944 13.6874 12.1764 13.8333 12.3223C13.9792 12.4681 14.0611 12.6659 14.0611 12.8722V15.6111H15.6111ZM9.15556 10.0889C9.40309 10.0889 9.64049 9.99056 9.81552 9.81552C9.99056 9.64049 10.0889 9.40309 10.0889 9.15556C10.0889 8.63889 9.67222 8.21667 9.15556 8.21667C8.90655 8.21667 8.66774 8.31559 8.49166 8.49166C8.31559 8.66774 8.21667 8.90655 8.21667 9.15556C8.21667 9.67222 8.63889 10.0889 9.15556 10.0889ZM9.92778 15.6111V10.9611H8.38889V15.6111H9.92778Z" fill="#FFFFFF"/>
</svg>

