<svg width="310" height="96" viewBox="0 0 310 96" fill="none" xmlns="http://www.w3.org/2000/svg">
<path d="M79.6516 2.82544C88.4525 2.82544 94.4859 9.02484 94.4859 17.6597C94.4859 26.2946 88.4525 32.494 79.6516 32.494H66.0686C64.705 32.494 63.5995 33.5994 63.5995 34.9631V39.1025C63.5995 40.4662 62.494 41.5717 61.1303 41.5717H51.6771C50.3134 41.5717 49.208 40.4662 49.208 39.1025V5.29459C49.208 3.93091 50.3134 2.82544 51.6771 2.82544H79.6516ZM76.884 20.3166C78.3231 20.3166 80.0944 20.3166 80.0944 17.6597C80.0944 15.0028 78.3231 15.0028 76.884 15.0028H66.0686C64.705 15.0028 63.5995 16.1083 63.5995 17.472V17.8474C63.5995 19.2111 64.705 20.3166 66.0686 20.3166H76.884Z" fill="white"/>
<path d="M108.05 2.82544C109.413 2.82544 110.519 3.93092 110.519 5.29459V39.1025C110.519 40.4662 109.413 41.5717 108.05 41.5717H98.5966C97.2329 41.5717 96.1274 40.4662 96.1274 39.1025V5.29459C96.1274 3.93091 97.2329 2.82544 98.5966 2.82544H108.05Z" fill="white"/>
<path fill-rule="evenodd" clip-rule="evenodd" d="M1.14119 28.2737C0.309928 29.3792 0.112829 30.8416 0.63974 32.1205L2.94081 37.7052C3.60219 39.3104 5.24932 40.2779 6.97556 40.0931C8.22144 39.9598 9.42236 39.8391 10.5872 39.7314C12.6074 39.5447 14.0873 37.7726 15.0347 35.9786C15.0792 35.8944 15.1255 35.8107 15.1735 35.7275L17.5324 31.6418C19.5962 28.0672 24.167 26.8425 27.7416 28.9062C31.3161 30.97 32.5409 35.5408 30.4771 39.1154C30.4306 39.1959 30.4849 39.2972 30.5778 39.303C33.2931 39.4708 36.1387 39.7331 39.2624 40.0939C40.897 40.2827 42.482 39.4409 43.2198 37.9702L46.1085 32.2124C46.7695 30.8949 46.6237 29.3176 45.7488 28.1314C39.574 19.7593 35.9926 13.6609 31.0339 3.20287C30.3877 1.84012 29.0178 0.964084 27.5097 0.963853L19.6362 0.962647C18.1248 0.962415 16.7527 1.84123 16.1077 3.20813C11.3431 13.3051 7.77404 19.4531 1.14119 28.2737Z" fill="white"/>
<path fill-rule="evenodd" clip-rule="evenodd" d="M127.78 2.80158C126.314 3.32215 126.195 5.61546 125.921 7.14728C125.207 11.1417 125.201 14.2713 125.916 18.2698C126.238 20.0675 124.907 21.7756 123.08 21.7756H117.477C117.372 21.7756 117.269 21.7699 117.167 21.7588C116.825 21.7215 116.477 21.9725 116.492 22.3163C116.505 22.6387 116.831 22.8449 117.152 22.8081C117.258 22.7958 117.367 22.7895 117.477 22.7895H123.088C124.912 22.7895 126.242 24.4937 125.921 26.2893C125.207 30.2837 125.201 33.4133 125.916 37.4118C126.001 37.8879 126.244 38.3528 126.69 38.5395C130.332 40.0641 135.009 40.8154 140.816 40.8154C155.233 40.8154 163.183 36.1071 164.752 25.6325C164.962 24.2364 163.822 23.0475 162.41 23.0475H152.409C151.186 23.0475 150.214 23.9837 149.658 25.0732C148.452 27.4404 145.673 28.638 140.816 28.638C132.347 28.638 130.852 24.9848 130.852 20.8334C130.852 16.7374 132.292 13.1395 140.816 13.1395C145.656 13.1395 148.433 14.2941 149.646 16.6031C150.214 17.6839 151.183 18.6194 152.404 18.6194H162.409C163.821 18.6194 164.961 17.4299 164.75 16.034C163.169 5.61919 155.176 0.962158 140.816 0.962158C135.573 0.962158 131.251 1.56939 127.78 2.80158ZM166.137 20.8334C166.137 34.3392 173.444 40.8154 190.492 40.8154C207.485 40.8154 214.847 34.2839 214.847 20.8334C214.847 7.4383 207.485 0.962158 190.492 0.962158C173.444 0.962158 166.137 7.38295 166.137 20.8334ZM200.455 20.8334C200.455 24.9294 198.961 28.638 190.492 28.638C182.023 28.638 180.529 24.9848 180.529 20.8334C180.529 16.7374 181.968 13.1395 190.492 13.1395C199.016 13.1395 200.455 16.7927 200.455 20.8334ZM252.065 3.98483C252.065 2.62115 253.171 1.51567 254.534 1.51567H263.987C265.351 1.51567 266.457 2.62115 266.457 3.98483V37.7927C266.457 39.1564 265.351 40.2619 263.987 40.2619H248.89C248.103 40.2619 247.362 39.886 246.897 39.2502L232.833 20.0169C232.229 19.1908 230.921 19.6181 230.921 20.6415V37.7927C230.921 39.1564 229.815 40.2619 228.451 40.2619H218.998C217.635 40.2619 216.529 39.1564 216.529 37.7927V3.98482C216.529 2.62115 217.635 1.51567 218.998 1.51567H234.095C234.883 1.51567 235.624 1.89152 236.089 2.52738L250.153 21.7606C250.757 22.5868 252.065 22.1595 252.065 21.136V3.98483ZM307.183 13.693C308.547 13.693 309.652 12.5876 309.652 11.2239V3.98483C309.652 2.62115 308.547 1.51567 307.183 1.51567H271.161C269.797 1.51567 268.692 2.62115 268.692 3.98482V37.7927C268.692 39.1564 269.797 40.2619 271.161 40.2619H280.614C281.978 40.2619 283.083 39.1564 283.083 37.7927V32.491C283.083 31.1273 284.189 30.0218 285.553 30.0218H303.862C305.226 30.0218 306.331 28.9163 306.331 27.5527V20.3136C306.331 18.9499 305.226 17.8444 303.862 17.8444H285.159C284.013 17.8444 283.083 16.9151 283.083 15.7687C283.083 14.6224 284.013 13.693 285.159 13.693H307.183Z" fill="white"/>
<rect x="113.619" y="5.98962" width="8.64205" height="14.2858" rx="2.82189" fill="white"/>
<rect x="113.619" y="23.8029" width="8.64205" height="14.2858" rx="2.82189" fill="white"/>
<path fill-rule="evenodd" clip-rule="evenodd" d="M111.896 57.5041C100.847 56.5468 91.2054 65.1396 91.2054 76.2299C91.2054 87.3158 100.839 95.9074 111.884 94.9505C142.766 92.2746 166.168 92.2831 197.286 94.9653C208.345 95.9185 217.986 87.3111 217.986 76.2108C217.986 65.1197 208.361 56.5147 197.31 57.4632C166.29 60.1259 142.919 60.1918 111.896 57.5041ZM128.334 77.8987H118.819V67.9697H113.44V82.4496H128.334V77.8987ZM145.255 76.306C145.213 71.569 142.317 69.8314 137.229 69.8314C134.933 69.8314 132.244 70.2864 129.761 71.0932L131.375 74.6097C133.65 74.1133 135.471 73.9685 137.063 73.9685C138.718 73.9685 140.29 74.0305 140.29 75.5199C139.153 75.1062 137.829 74.8786 136.091 74.8786C132.471 74.8786 128.748 75.7268 128.748 78.9537C128.748 81.6428 131.23 82.6564 134.064 82.6564C136.215 82.6564 138.367 82.3461 140.29 80.9395V82.4496H145.255V76.306ZM140.29 77.8781V78.3952C139.049 78.933 137.229 79.3467 135.553 79.3467C134.291 79.3467 133.712 79.2433 133.712 78.5607C133.712 77.7746 134.705 77.5678 137.001 77.5678C138.429 77.5678 139.504 77.6712 140.29 77.8781ZM162.555 70.0382H157.591V71.8999C156.515 70.5967 154.757 69.8314 152.254 69.8314C148.427 69.8314 145.676 71.6517 145.676 75.8302C145.676 80.0087 148.427 81.829 152.254 81.829C154.757 81.829 156.515 81.0636 157.591 79.7604C157.55 82.9046 156.246 83.4838 153.826 83.4838C151.448 83.4838 149.037 83.0145 147.524 82.7201C147.326 82.6816 147.144 82.6461 146.979 82.6151V86.6487C148.158 86.959 151.199 87.621 154.736 87.621C158.997 87.621 162.555 85.8213 162.555 80.8568V70.0382ZM157.591 75.8302C157.591 77.2368 156.743 77.6919 154.116 77.6919C151.489 77.6919 150.641 77.2368 150.641 75.8302C150.641 74.4236 151.489 73.9685 154.116 73.9685C156.743 73.9685 157.591 74.4236 157.591 75.8302ZM163.17 76.2439C163.17 80.8361 166.335 82.6564 171.61 82.6564C176.884 82.6564 180.049 80.8361 180.049 76.2439C180.049 71.6517 176.884 69.8314 171.61 69.8314C166.335 69.8314 163.17 71.6517 163.17 76.2439ZM175.085 76.2439C175.085 78.0642 173.823 78.5193 171.61 78.5193C169.396 78.5193 168.134 78.0642 168.134 76.2439C168.134 74.4236 169.396 73.9685 171.61 73.9685C173.823 73.9685 175.085 74.4236 175.085 76.2439ZM185.224 78.1677H180.26C180.26 82.0565 184.397 82.6564 189.092 82.6564C193.788 82.6564 197.098 82.0565 197.098 78.2711C197.098 75.0234 193.974 74.7338 189.092 74.4856C188.829 74.4718 188.585 74.4592 188.357 74.4476C185.865 74.3198 185.431 74.2976 185.431 73.8237C185.431 73.3479 186.155 73.3479 188.679 73.3479C190.892 73.3479 191.719 73.3479 191.719 74.0099H196.684C196.684 70.4312 193.478 69.8314 188.886 69.8314C184.293 69.8314 180.467 70.4312 180.467 73.9685C180.467 77.1334 182.969 77.5678 188.679 77.7953C189.02 77.8095 189.328 77.8213 189.606 77.8319C191.76 77.9142 192.133 77.9284 192.133 78.4779C192.133 79.0158 191.657 79.1399 188.886 79.1399C185.886 79.1399 185.224 78.871 185.224 78.1677Z" fill="white"/>
</svg>
