<svg width="156" height="50" viewBox="0 0 156 50" fill="none" xmlns="http://www.w3.org/2000/svg">
<path d="M39.8325 1.79169C44.2531 1.79169 47.2836 4.90558 47.2836 9.24278C47.2836 13.58 44.2531 16.6939 39.8325 16.6939H33.01C32.325 16.6939 31.7697 17.2491 31.7697 17.9341V20.0133C31.7697 20.6982 31.2145 21.2535 30.5295 21.2535H25.7813C25.0963 21.2535 24.5411 20.6982 24.5411 20.0133V3.03191C24.5411 2.34696 25.0963 1.79169 25.7813 1.79169H39.8325ZM38.4424 10.5773C39.1652 10.5773 40.0549 10.5773 40.0549 9.24278C40.0549 7.90826 39.1652 7.90826 38.4424 7.90826H33.01C32.325 7.90826 31.7697 8.46352 31.7697 9.14848V9.33708C31.7697 10.022 32.325 10.5773 33.01 10.5773H38.4424Z" fill="#2F20BF"/>
<path d="M54.0965 1.79169C54.7815 1.79169 55.3367 2.34695 55.3367 3.03191V20.0133C55.3367 20.6982 54.7815 21.2535 54.0965 21.2535H49.3483C48.6633 21.2535 48.1081 20.6982 48.1081 20.0133V3.03191C48.1081 2.34696 48.6633 1.79169 49.3483 1.79169H54.0965Z" fill="#2F20BF"/>
<path fill-rule="evenodd" clip-rule="evenodd" d="M0.398581 14.573C-0.0189504 15.1283 -0.11795 15.8628 0.146709 16.5052L1.30251 19.3103C1.63471 20.1166 2.46204 20.6026 3.32911 20.5098C3.95581 20.4427 4.55986 20.382 5.14573 20.3278C6.15993 20.2341 6.90312 19.3449 7.37908 18.4444C7.40122 18.4025 7.42424 18.3609 7.44812 18.3195L8.63298 16.2673C9.66959 14.4718 11.9654 13.8566 13.7609 14.8932C15.5564 15.9298 16.1715 18.2257 15.1349 20.0212C15.1122 20.0605 15.1387 20.1101 15.1841 20.1129C16.548 20.1971 17.9773 20.3289 19.5464 20.5101C20.3674 20.605 21.1635 20.1821 21.5341 19.4434L22.985 16.5513C23.317 15.8896 23.2438 15.0973 22.8044 14.5015C19.7029 10.2963 17.904 7.23311 15.4133 1.98016C15.0887 1.29567 14.4006 0.855641 13.6431 0.855525L9.6884 0.854919C8.92922 0.854803 8.24003 1.29622 7.91605 1.98281C5.52285 7.05442 3.73017 10.1425 0.398581 14.573Z" fill="#2F20BF"/>
<path fill-rule="evenodd" clip-rule="evenodd" d="M64.0079 1.77966C63.2713 2.04124 63.2119 3.19359 63.0744 3.96308C62.7157 5.96943 62.7125 7.54139 63.0718 9.5498C63.2334 10.4528 62.5647 11.3108 61.6474 11.3108H58.8328C58.781 11.3108 58.7298 11.308 58.6793 11.3025C58.5069 11.284 58.3316 11.4106 58.3389 11.5839C58.3458 11.7464 58.5099 11.8503 58.6715 11.832C58.7244 11.826 58.7783 11.8229 58.8328 11.8229H61.6509C62.5671 11.8229 63.2356 12.6789 63.0744 13.5808C62.7157 15.5871 62.7125 17.1591 63.0718 19.1675C63.1142 19.4043 63.2349 19.6353 63.4568 19.7282C65.2871 20.4952 67.6375 20.8732 70.5565 20.8732C77.7982 20.8732 81.7911 18.5083 82.5795 13.247C82.6846 12.5457 82.1121 11.9486 81.403 11.9486H76.3796C75.7654 11.9486 75.2769 12.4188 74.998 12.9661C74.392 14.1551 72.9962 14.7566 70.5565 14.7566C66.3027 14.7566 65.5521 12.9217 65.5521 10.8365C65.5521 8.77908 66.2749 6.97191 70.5565 6.97191C72.9879 6.97191 74.3825 7.55182 74.9918 8.71162C75.277 9.25449 75.764 9.72437 76.3772 9.72437H81.4027C82.1119 9.72437 82.6846 9.12695 82.5781 8.42581C81.7842 3.19453 77.7696 0.855347 70.5565 0.855347C67.9226 0.855347 65.7515 1.16048 64.0079 1.77966ZM83.2751 10.8365C83.2751 17.6203 86.945 20.8732 95.5082 20.8732C104.044 20.8732 107.741 17.5925 107.741 10.8365C107.741 4.10825 104.044 0.855347 95.5082 0.855347C86.945 0.855347 83.2751 4.08045 83.2751 10.8365ZM100.513 10.8365C100.513 12.8939 99.762 14.7566 95.5082 14.7566C91.2544 14.7566 90.5038 12.9217 90.5038 10.8365C90.5038 8.77908 91.2266 6.97191 95.5082 6.97191C99.7898 6.97191 100.513 8.80689 100.513 10.8365ZM126.436 2.3736C126.436 1.68864 126.991 1.13337 127.676 1.13337H132.424C133.109 1.13337 133.664 1.68864 133.664 2.3736V19.355C133.664 20.0399 133.109 20.5952 132.424 20.5952H124.841C124.445 20.5952 124.073 20.4064 123.84 20.087L116.776 10.4264C116.472 10.0114 115.815 10.226 115.815 10.7401V19.355C115.815 20.0399 115.26 20.5952 114.575 20.5952H109.827C109.142 20.5952 108.586 20.0399 108.586 19.355V2.3736C108.586 1.68864 109.142 1.13337 109.827 1.13337H117.41C117.805 1.13337 118.177 1.32216 118.411 1.64154L125.475 11.3022C125.778 11.7172 126.436 11.5025 126.436 10.9885V2.3736ZM154.121 7.24994C154.806 7.24994 155.361 6.69467 155.361 6.00971V2.3736C155.361 1.68864 154.806 1.13337 154.121 1.13337H136.027C135.342 1.13337 134.787 1.68864 134.787 2.3736V19.355C134.787 20.0399 135.342 20.5952 136.027 20.5952H140.775C141.46 20.5952 142.016 20.0399 142.016 19.355V16.6919C142.016 16.007 142.571 15.4517 143.256 15.4517H152.452C153.137 15.4517 153.693 14.8964 153.693 14.2115V10.5754C153.693 9.8904 153.137 9.33514 152.452 9.33514H143.058C142.482 9.33514 142.016 8.86835 142.016 8.29254C142.016 7.71673 142.482 7.24994 143.058 7.24994H154.121Z" fill="#2F20BF"/>
<rect x="56.8938" y="3.38464" width="4.34079" height="7.17559" rx="1.4174" fill="#2F20BF"/>
<rect x="56.8939" y="12.3317" width="4.34079" height="7.17559" rx="1.4174" fill="#2F20BF"/>
<path fill-rule="evenodd" clip-rule="evenodd" d="M56.0291 25.2389C50.4794 24.7581 45.6365 29.0741 45.6365 34.6446C45.6365 40.213 50.4755 44.5284 56.023 44.0478C71.5347 42.7037 83.2891 42.708 98.9191 44.0552C104.474 44.534 109.317 40.2106 109.317 34.635C109.317 29.0641 104.482 24.7419 98.9315 25.2184C83.3503 26.5558 71.6114 26.5889 56.0291 25.2389ZM64.286 34.9388H59.5066V29.9515H56.8051V37.2246H64.286V34.9388ZM72.7851 34.1388C72.7643 31.7594 71.3097 30.8867 68.7538 30.8867C67.6005 30.8867 66.2497 31.1152 65.0029 31.5204L65.8134 33.2868C66.9563 33.0374 67.8706 32.9647 68.6706 32.9647C69.5019 32.9647 70.2915 32.9958 70.2915 33.7439C69.72 33.5361 69.0551 33.4218 68.1823 33.4218C66.364 33.4218 64.4938 33.8478 64.4938 35.4687C64.4938 36.8194 65.7406 37.3285 67.1641 37.3285C68.2446 37.3285 69.3252 37.1727 70.2915 36.4661V37.2246H72.7851V34.1388ZM70.2915 34.9284V35.1882C69.6681 35.4583 68.7538 35.6661 67.9122 35.6661C67.2784 35.6661 66.9874 35.6142 66.9874 35.2713C66.9874 34.8765 67.4862 34.7726 68.6395 34.7726C69.3564 34.7726 69.8967 34.8245 70.2915 34.9284ZM81.475 30.9906H78.9814V31.9257C78.4411 31.2711 77.5579 30.8867 76.3007 30.8867C74.3785 30.8867 72.9967 31.801 72.9967 33.8998C72.9967 35.9986 74.3785 36.9129 76.3007 36.9129C77.5579 36.9129 78.4411 36.5285 78.9814 35.8739C78.9606 37.4532 78.306 37.7441 77.0904 37.7441C75.8957 37.7441 74.6847 37.5084 73.9248 37.3605C73.8256 37.3412 73.734 37.3233 73.6512 37.3077V39.3338C74.2435 39.4897 75.7708 39.8221 77.5475 39.8221C79.6879 39.8221 81.475 38.9182 81.475 36.4246V30.9906ZM78.9814 33.8998C78.9814 34.6063 78.5554 34.8349 77.2358 34.8349C75.9163 34.8349 75.4903 34.6063 75.4903 33.8998C75.4903 33.1933 75.9163 32.9647 77.2358 32.9647C78.5554 32.9647 78.9814 33.1933 78.9814 33.8998ZM81.7836 34.1076C81.7836 36.4142 83.3733 37.3285 86.0228 37.3285C88.6723 37.3285 90.2619 36.4142 90.2619 34.1076C90.2619 31.801 88.6723 30.8867 86.0228 30.8867C83.3733 30.8867 81.7836 31.801 81.7836 34.1076ZM87.7683 34.1076C87.7683 35.0219 87.1345 35.2505 86.0228 35.2505C84.911 35.2505 84.2772 35.0219 84.2772 34.1076C84.2772 33.1933 84.911 32.9647 86.0228 32.9647C87.1345 32.9647 87.7683 33.1933 87.7683 34.1076ZM92.8613 35.0739H90.3676C90.3676 37.0272 92.4457 37.3285 94.8042 37.3285C97.1628 37.3285 98.8252 37.0272 98.8252 35.1258C98.8252 33.4946 97.2563 33.3491 94.8042 33.2244C94.6721 33.2175 94.5493 33.2112 94.4351 33.2053C93.1833 33.1412 92.9652 33.13 92.9652 32.8919C92.9652 32.653 93.3288 32.653 94.5964 32.653C95.7081 32.653 96.1237 32.653 96.1237 32.9855H98.6174C98.6174 31.188 97.0069 30.8867 94.7003 30.8867C92.3937 30.8867 90.4715 31.188 90.4715 32.9647C90.4715 34.5544 91.7287 34.7726 94.5964 34.8868C94.7677 34.894 94.9225 34.8999 95.0623 34.9052C96.1442 34.9465 96.3316 34.9537 96.3316 35.2297C96.3316 35.4999 96.0926 35.5622 94.7003 35.5622C93.1937 35.5622 92.8613 35.4271 92.8613 35.0739Z" fill="#2F20BF"/>
<path d="M23.4375 32.5264C23.4375 37.4457 16.0044 36.6872 14.9209 38.3776H23.2208V43.1451H6.23087V40.5446C6.23087 34.8669 17.8031 35.4087 17.8031 33.2849C17.8031 32.6348 17.2613 32.5264 15.3759 32.5264C13.3822 32.5264 12.082 32.5264 12.082 33.9351H6.44758C6.44758 28.7557 10.0016 27.7589 15.1592 27.7589C20.3819 27.7589 23.4375 28.7557 23.4375 32.5264ZM32.7658 43.3618C26.7413 43.3618 23.8807 40.8264 23.8807 35.5387C23.8807 30.2727 26.7413 27.7589 32.7658 27.7589C38.7686 27.7589 41.6508 30.2944 41.6508 35.5387C41.6508 40.8047 38.7686 43.3618 32.7658 43.3618ZM32.7658 38.5943C35.4313 38.5943 36.0164 37.1423 36.0164 35.5387C36.0164 33.9567 35.4529 32.5264 32.7658 32.5264C30.0786 32.5264 29.5151 33.9351 29.5151 35.5387C29.5151 37.164 30.1002 38.5943 32.7658 38.5943Z" fill="#2F20BF"/>
<path d="M129.925 31.4658C129.925 36.3851 122.492 35.6266 121.408 37.317H129.708V42.0845H112.718V39.484C112.718 33.8063 124.29 34.3481 124.29 32.2243C124.29 31.5742 123.749 31.4658 121.863 31.4658C119.869 31.4658 118.569 31.4658 118.569 32.8744H112.935C112.935 27.6951 116.489 26.6983 121.646 26.6983C126.869 26.6983 129.925 27.6951 129.925 31.4658ZM148.013 35.5833V40.3509H145.846V42.0845H140.212V40.3509H130.373V35.5833L140.212 26.915H145.846V35.5833H148.013ZM135.574 35.5833H140.212V31.6825L135.574 35.5833Z" fill="#2F20BF"/>
</svg>
