<svg width="173" height="49" viewBox="0 0 173 49" fill="none" xmlns="http://www.w3.org/2000/svg">
<g id="Group 58">
<g id="PI CONF">
<path d="M44.5324 1.38501C49.4402 1.38501 52.8048 4.84211 52.8048 9.65735C52.8048 14.4726 49.4402 17.9297 44.5324 17.9297H36.9578C36.1974 17.9297 35.5809 18.5462 35.5809 19.3066V21.6149C35.5809 22.3754 34.9644 22.9919 34.204 22.9919H28.9324C28.1719 22.9919 27.5555 22.3754 27.5555 21.6149V2.76193C27.5555 2.00148 28.1719 1.38501 28.9324 1.38501H44.5324ZM42.989 11.139C43.7916 11.139 44.7793 11.139 44.7793 9.65735C44.7793 8.17574 43.7916 8.17574 42.989 8.17574H36.9578C36.1974 8.17574 35.5809 8.79221 35.5809 9.55266V9.76204C35.5809 10.5225 36.1974 11.139 36.9578 11.139H42.989Z" fill="#4121CF"/>
<path d="M60.3687 1.38501C61.1291 1.38501 61.7456 2.00148 61.7456 2.76193V21.6149C61.7456 22.3754 61.1291 22.9919 60.3687 22.9919H55.0971C54.3366 22.9919 53.7202 22.3754 53.7202 21.6149V2.76193C53.7202 2.00148 54.3366 1.38501 55.0971 1.38501H60.3687Z" fill="#4121CF"/>
</g>
<path id="Subtract" fill-rule="evenodd" clip-rule="evenodd" d="M0.75111 15.5763C0.287554 16.1927 0.177642 17.0082 0.471475 17.7214L1.75467 20.8357C2.12349 21.7308 3.04201 22.2704 4.00465 22.1674C4.69975 22.0929 5.36976 22.0256 6.01961 21.9656C7.14623 21.8614 7.97156 20.8732 8.4999 19.8727C8.52471 19.8257 8.55052 19.7789 8.57732 19.7325L9.89277 17.4541C11.0436 15.4608 13.5925 14.7778 15.5859 15.9286C17.5793 17.0795 18.2623 19.6284 17.1114 21.6218C17.0853 21.6669 17.1158 21.7236 17.1677 21.7268C18.6815 21.8204 20.268 21.9666 22.0095 22.1678C22.921 22.2731 23.8048 21.8036 24.2163 20.9835L25.8272 17.7727C26.1958 17.038 26.1145 16.1584 25.6266 15.4969C22.1832 10.8281 20.186 7.42737 17.4208 1.59546C17.0605 0.835518 16.2965 0.346993 15.4555 0.346864L11.0649 0.346191C10.222 0.346062 9.45688 0.836136 9.09719 1.59839C6.44021 7.22899 4.44992 10.6574 0.75111 15.5763Z" fill="#4121CF"/>
<path id="Subtract_2" fill-rule="evenodd" clip-rule="evenodd" d="M71.3713 1.37217C70.5537 1.66248 70.4876 2.94109 70.3349 3.79515C69.9367 6.02262 69.9332 7.76784 70.3321 9.99761C70.5115 11.0001 69.7691 11.9527 68.7507 11.9527H65.6259C65.5676 11.9527 65.5101 11.9495 65.4535 11.9433C65.2629 11.9226 65.069 12.0625 65.0771 12.2542C65.0847 12.4339 65.2662 12.5488 65.4449 12.5284C65.5043 12.5216 65.5647 12.5181 65.6259 12.5181H68.7546C69.7718 12.5181 70.5139 13.4684 70.3349 14.4697C69.9367 16.6972 69.9332 18.4424 70.3321 20.6722C70.3796 20.9375 70.5145 21.1967 70.7631 21.3008C72.7946 22.1512 75.4028 22.5703 78.6415 22.5703C86.6814 22.5703 91.1144 19.9447 91.9897 14.1035C92.1064 13.325 91.4708 12.662 90.6836 12.662H85.1064C84.4245 12.662 83.8822 13.184 83.5725 13.7916C82.8998 15.1117 81.3501 15.7795 78.6415 15.7795C73.9188 15.7795 73.0854 13.7423 73.0854 11.4273C73.0854 9.14315 73.888 7.13679 78.6415 7.13679C81.3409 7.13679 82.8892 7.78062 83.5657 9.06825C83.8823 9.67095 84.423 10.1926 85.1038 10.1926H90.6833C91.4706 10.1926 92.1064 9.52935 91.9882 8.75093C91.1067 2.94307 86.6496 0.346069 78.6415 0.346069C75.7173 0.346069 73.3071 0.684809 71.3713 1.37217ZM92.762 11.4273C92.762 18.9588 96.8365 22.5703 106.344 22.5703C115.82 22.5703 119.925 18.928 119.925 11.4273C119.925 3.9575 115.82 0.346069 106.344 0.346069C96.8365 0.346069 92.762 3.92663 92.762 11.4273ZM111.9 11.4273C111.9 13.7115 111.066 15.7795 106.344 15.7795C101.621 15.7795 100.787 13.7423 100.787 11.4273C100.787 9.14315 101.59 7.13679 106.344 7.13679C111.097 7.13679 111.9 9.17402 111.9 11.4273ZM140.68 2.03166C140.68 1.27121 141.296 0.654738 142.057 0.654738H147.328C148.089 0.654738 148.705 1.27121 148.705 2.03166V20.8847C148.705 21.6451 148.089 22.2616 147.328 22.2616H138.909C138.47 22.2616 138.057 22.052 137.798 21.6974L129.955 10.972C129.618 10.5113 128.889 10.7496 128.889 11.3203V20.8847C128.889 21.6451 128.272 22.2616 127.512 22.2616H122.24C121.48 22.2616 120.863 21.6451 120.863 20.8847V2.03166C120.863 1.27121 121.48 0.654738 122.24 0.654738H130.659C131.098 0.654738 131.511 0.86433 131.77 1.21892L139.613 11.9444C139.95 12.4051 140.68 12.1668 140.68 11.596V2.03166ZM171.416 7.44546C172.177 7.44546 172.793 6.82899 172.793 6.06854V2.03166C172.793 1.27121 172.177 0.654738 171.416 0.654738H151.329C150.568 0.654738 149.952 1.27121 149.952 2.03166V20.8847C149.952 21.6451 150.568 22.2616 151.329 22.2616H156.6C157.361 22.2616 157.977 21.6451 157.977 20.8847V17.9281C157.977 17.1677 158.594 16.5512 159.354 16.5512H169.564C170.325 16.5512 170.941 15.9348 170.941 15.1743V11.1374C170.941 10.377 170.325 9.76049 169.564 9.76049H159.135C158.495 9.76049 157.977 9.24225 157.977 8.60298C157.977 7.9637 158.495 7.44546 159.135 7.44546H171.416Z" fill="#4121CF"/>
<g id="Group 49">
<rect id="Rectangle 13" x="63.4747" y="3.14941" width="4.81925" height="7.96648" rx="1.57363" fill="#4121CF"/>
<rect id="Rectangle 14" x="63.4747" y="13.083" width="4.81925" height="7.96648" rx="1.57363" fill="#4121CF"/>
</g>
<path id="Subtract_3" fill-rule="evenodd" clip-rule="evenodd" d="M62.5144 27.4156C56.353 26.8818 50.9763 31.6735 50.9763 37.858C50.9763 44.0401 56.3486 48.8312 62.5076 48.2976C79.7292 46.8054 92.7792 46.8101 110.132 48.3058C116.299 48.8374 121.676 44.0375 121.676 37.8474C121.676 31.6624 116.308 26.8638 110.146 27.3928C92.8472 28.8776 79.8143 28.9144 62.5144 27.4156ZM71.6821 38.1934H66.3759V32.6564H63.3767V40.7311H71.6821V38.1934ZM81.118 37.3051C81.095 34.6635 79.48 33.6946 76.6423 33.6946C75.3619 33.6946 73.8623 33.9483 72.4781 34.3982L73.3778 36.3592C74.6467 36.0824 75.6618 36.0016 76.55 36.0016C77.4729 36.0016 78.3496 36.0362 78.3496 36.8668C77.7151 36.6361 76.9768 36.5092 76.0079 36.5092C73.9892 36.5092 71.9128 36.9821 71.9128 38.7817C71.9128 40.2812 73.2971 40.8465 74.8774 40.8465C76.0771 40.8465 77.2768 40.6734 78.3496 39.889V40.7311H81.118V37.3051ZM78.3496 38.1818V38.4702C77.6574 38.7701 76.6423 39.0008 75.708 39.0008C75.0043 39.0008 74.6813 38.9431 74.6813 38.5625C74.6813 38.1241 75.235 38.0088 76.5154 38.0088C77.3114 38.0088 77.9112 38.0665 78.3496 38.1818ZM90.7657 33.8099H87.9972V34.8481C87.3974 34.1214 86.4169 33.6946 85.0211 33.6946C82.8871 33.6946 81.3529 34.7097 81.3529 37.0398C81.3529 39.37 82.8871 40.3851 85.0211 40.3851C86.4169 40.3851 87.3974 39.9583 87.9972 39.2315C87.9742 40.9849 87.2474 41.3079 85.8978 41.3079C84.5714 41.3079 83.227 41.0462 82.3834 40.882C82.2732 40.8605 82.1715 40.8407 82.0796 40.8234V43.0728C82.7371 43.2458 84.4328 43.615 86.4054 43.615C88.7816 43.615 90.7657 42.6114 90.7657 39.8429V33.8099ZM87.9972 37.0398C87.9972 37.8242 87.5243 38.078 86.0593 38.078C84.5943 38.078 84.1214 37.8242 84.1214 37.0398C84.1214 36.2554 84.5943 36.0016 86.0593 36.0016C87.5243 36.0016 87.9972 36.2554 87.9972 37.0398ZM91.1083 37.2705C91.1083 39.8314 92.8733 40.8465 95.8148 40.8465C98.7563 40.8465 100.521 39.8314 100.521 37.2705C100.521 34.7097 98.7563 33.6946 95.8148 33.6946C92.8733 33.6946 91.1083 34.7097 91.1083 37.2705ZM97.7527 37.2705C97.7527 38.2856 97.049 38.5394 95.8148 38.5394C94.5805 38.5394 93.8768 38.2856 93.8768 37.2705C93.8768 36.2554 94.5805 36.0016 95.8148 36.0016C97.049 36.0016 97.7527 36.2554 97.7527 37.2705ZM103.407 38.3433H100.639C100.639 40.512 102.946 40.8465 105.564 40.8465C108.183 40.8465 110.028 40.512 110.028 38.401C110.028 36.5899 108.286 36.4284 105.564 36.29C105.417 36.2823 105.281 36.2753 105.154 36.2688C103.765 36.1976 103.522 36.1852 103.522 35.9209C103.522 35.6556 103.926 35.6556 105.333 35.6556C106.568 35.6556 107.029 35.6556 107.029 36.0247H109.798C109.798 34.0291 108.01 33.6946 105.449 33.6946C102.888 33.6946 100.754 34.0291 100.754 36.0016C100.754 37.7665 102.15 38.0088 105.333 38.1357C105.524 38.1436 105.695 38.1502 105.851 38.1561C107.052 38.202 107.26 38.2099 107.26 38.5163C107.26 38.8163 106.994 38.8855 105.449 38.8855C103.776 38.8855 103.407 38.7355 103.407 38.3433Z" fill="#4121CF"/>
</g>
</svg>
