<svg width="24" height="24" viewBox="0 0 24 24" fill="none" xmlns="http://www.w3.org/2000/svg">
<rect width="24" height="24" rx="8" fill="white"/>
<path d="M15.9375 7.8374H8.0625C7.71452 7.83777 7.38089 7.97618 7.13483 8.22224C6.88877 8.4683 6.75037 8.80192 6.75 9.1499V14.7749C6.75037 15.1229 6.88877 15.4565 7.13483 15.7026C7.38089 15.9486 7.71452 16.087 8.0625 16.0874H15.9375C16.2855 16.087 16.6191 15.9486 16.8652 15.7026C17.1112 15.4565 17.2496 15.1229 17.25 14.7749V9.1499C17.2496 8.80192 17.1112 8.4683 16.8652 8.22224C16.6191 7.97618 16.2855 7.83777 15.9375 7.8374ZM15.6052 10.0084L12.2302 12.6334C12.1643 12.6846 12.0834 12.7124 12 12.7124C11.9166 12.7124 11.8357 12.6846 11.7698 12.6334L8.39484 10.0084C8.35519 9.97847 8.32188 9.94095 8.29686 9.89802C8.27184 9.85509 8.25559 9.80761 8.24907 9.75835C8.24256 9.70909 8.24589 9.65903 8.25889 9.61107C8.27189 9.56311 8.29429 9.51821 8.32479 9.47898C8.35529 9.43976 8.39328 9.40698 8.43656 9.38256C8.47983 9.35815 8.52753 9.34257 8.57688 9.33675C8.62623 9.33092 8.67624 9.33496 8.72401 9.34864C8.77178 9.36231 8.81636 9.38534 8.85516 9.41639L12 11.8623L15.1448 9.41639C15.2235 9.357 15.3223 9.33096 15.42 9.34388C15.5177 9.35681 15.6064 9.40767 15.6669 9.48546C15.7274 9.56326 15.7548 9.66173 15.7432 9.7596C15.7317 9.85746 15.6821 9.94684 15.6052 10.0084Z" fill="#2F1C81"/>
</svg>
