<svg width="205" height="72" viewBox="0 0 205 72" fill="none" xmlns="http://www.w3.org/2000/svg">
<path d="M84.8632 36.0703H88.1458C89.2104 36.0703 89.9645 35.7598 90.4968 35.2275C91.0291 34.6065 91.3396 33.7637 91.3396 32.6104V32.2999C91.3396 31.1465 91.0291 30.2594 90.4968 29.6827C89.9645 29.0617 89.1217 28.8399 88.1458 28.8399H84.8632C84.8632 28.8842 84.8632 36.0703 84.8632 36.0703ZM82.8228 44.188V27.5979C82.8228 27.3761 82.9115 27.1986 83.0446 27.0655C83.1776 26.9325 83.4438 26.8438 83.6656 26.8438H88.3232C89.9201 26.8438 91.1622 27.2873 92.1381 28.1302C93.0696 28.973 93.6019 30.3481 93.6019 32.1668V32.4773C93.6019 34.296 93.1583 35.6711 92.1381 36.5139C91.1622 37.3567 89.8314 37.8003 88.2345 37.8003H84.952V44.1436C84.952 44.3654 84.8632 44.5428 84.6415 44.6759C84.4197 44.809 84.1979 44.8977 83.8874 44.8977C83.5769 44.8977 83.3551 44.809 83.222 44.6759C82.9558 44.5428 82.8228 44.4098 82.8228 44.188Z" fill="#A6A6A6"/>
<path d="M102.828 39.6626C102.828 41.9692 103.893 43.1669 106.022 43.1669C107.087 43.1669 107.841 42.8564 108.373 42.3241C108.906 41.7031 109.216 40.8602 109.216 39.7069V32.299C109.216 31.1457 108.906 30.2585 108.373 29.6819C107.841 29.0609 106.998 28.8391 106.022 28.8391C103.893 28.8391 102.828 29.9924 102.828 32.3434V39.6626ZM100.744 39.6626V32.2547C100.744 30.436 101.187 29.0609 102.207 28.218C103.228 27.3752 104.425 26.9316 106.022 26.9316C107.619 26.9316 108.906 27.3752 109.926 28.218C110.946 29.0609 111.39 30.436 111.39 32.2547V39.6626C111.39 41.4813 110.946 42.8564 109.926 43.6992C108.95 44.542 107.619 44.9856 106.022 44.9856C104.425 44.9856 103.139 44.542 102.207 43.6992C101.232 42.9007 100.744 41.5256 100.744 39.6626Z" fill="#A6A6A6"/>
<path d="M118.62 42.3245C118.62 42.1027 118.709 41.7922 118.931 41.5704C119.064 41.3486 119.33 41.1712 119.552 41.1712C119.685 41.1712 119.862 41.2599 120.084 41.4817C120.306 41.7035 120.528 41.9253 120.749 42.1471C120.971 42.3688 121.37 42.5906 121.903 42.8124C122.435 43.0342 123.056 43.123 123.677 43.123C124.742 43.123 125.585 42.9012 126.206 42.3688C126.827 41.8365 127.137 41.0825 127.137 40.0622C127.137 39.1307 126.827 38.4653 126.294 37.8443C125.762 37.312 125.052 36.8684 124.298 36.5579C123.544 36.2474 122.701 35.9369 121.947 35.6263C121.193 35.3158 120.483 34.7835 119.907 34.1182C119.374 33.4528 119.064 32.5212 119.064 31.4566C119.064 30.6138 119.197 29.8597 119.507 29.2387C119.818 28.6177 120.262 28.0854 120.794 27.7749C121.326 27.4644 121.947 27.2426 122.479 27.1095C123.1 26.9764 123.721 26.8877 124.387 26.8877C125.363 26.8877 126.383 27.0208 127.27 27.3313C128.202 27.6418 128.645 27.9967 128.645 28.5733C128.645 28.7951 128.557 29.0169 128.423 29.3274C128.29 29.5492 128.024 29.7266 127.802 29.7266C127.714 29.7266 127.359 29.5936 126.649 29.2831C125.984 28.9725 125.185 28.8395 124.342 28.8395C123.367 28.8395 122.524 29.0613 121.903 29.4605C121.282 29.8597 120.971 30.5251 120.971 31.3679C120.971 32.122 121.282 32.743 121.814 33.1866C122.346 33.6302 123.056 34.0294 123.855 34.3399C124.609 34.6505 125.451 34.961 126.206 35.3158C126.96 35.7151 127.669 36.2474 128.202 37.0902C128.734 37.8443 129.045 38.9089 129.045 40.1509C129.045 41.8365 128.601 43.1229 127.581 43.9658C126.605 44.8086 125.274 45.2522 123.677 45.2522C122.213 45.2522 121.016 44.9417 119.995 44.3206C119.153 43.5665 118.62 42.9455 118.62 42.3245Z" fill="#A6A6A6"/>
<path d="M135.432 27.8192C135.432 27.5974 135.521 27.3756 135.654 27.1982C135.787 27.0651 135.964 26.8877 136.186 26.8877H146.211C146.433 26.8877 146.61 26.9764 146.744 27.1982C146.877 27.3313 146.965 27.5974 146.965 27.8192C146.965 28.041 146.877 28.2628 146.744 28.4846C146.61 28.7064 146.433 28.7951 146.211 28.7951H142.219V44.1432C142.219 44.365 142.13 44.5424 141.908 44.6755C141.687 44.8086 141.465 44.8973 141.154 44.8973C140.844 44.8973 140.622 44.8086 140.4 44.6755C140.179 44.5424 140.09 44.365 140.09 44.1432V28.7951H136.098C135.876 28.7951 135.698 28.7064 135.565 28.4846C135.521 28.3515 135.432 28.1297 135.432 27.8192Z" fill="#A6A6A6"/>
<path d="M153.93 44.1871V27.9075C153.93 27.2421 154.329 26.9316 154.994 26.9316C155.66 26.9316 156.236 27.3752 156.68 28.218L160.583 35.6259L164.487 28.218C164.931 27.3752 165.463 26.9316 166.173 26.9316C166.882 26.9316 167.237 27.2421 167.237 27.9075V44.1871C167.237 44.4089 167.149 44.5864 166.927 44.7194C166.705 44.8525 166.483 44.9412 166.261 44.9412C165.951 44.9412 165.729 44.8525 165.507 44.7194C165.285 44.5864 165.197 44.4089 165.197 44.1871V31.2788L161.471 38.2431C161.249 38.6423 161.027 38.7754 160.628 38.7754C160.317 38.7754 160.096 38.6423 159.874 38.2431L156.192 31.1457V44.1428C156.192 44.3646 156.103 44.542 155.881 44.6751C155.66 44.8082 155.438 44.8969 155.127 44.8969C154.817 44.8969 154.595 44.8082 154.373 44.6751C154.018 44.542 153.93 44.4089 153.93 44.1871Z" fill="#A6A6A6"/>
<path d="M177.662 39.0422H183.162L180.412 29.8156L177.662 39.0422ZM174.069 44.0104C174.069 44.0104 174.069 43.9217 174.157 43.7886L179.214 27.4203C179.347 26.9767 179.747 26.7549 180.456 26.7549C181.122 26.7549 181.61 26.9767 181.698 27.4203L186.755 43.833V43.9217V44.0104C186.755 44.2322 186.622 44.4096 186.356 44.6314C186.045 44.7645 185.824 44.8532 185.513 44.8532C185.114 44.8532 184.892 44.7201 184.759 44.4096L183.694 40.7278H177.218L176.153 44.4096C176.065 44.7201 175.754 44.8532 175.399 44.8532C175.089 44.8532 174.867 44.7645 174.557 44.6314C174.246 44.4983 174.069 44.2765 174.069 44.0104Z" fill="#A6A6A6"/>
<path d="M193.897 44.1871V27.597C193.897 27.1534 194.296 26.9316 194.961 26.9316C195.361 26.9316 195.582 27.0204 195.804 27.2421C196.026 27.4639 196.248 27.7745 196.47 28.218L202.591 40.1949V27.597C202.591 27.3752 202.68 27.1978 202.902 27.0647C203.123 26.9316 203.345 26.9316 203.567 26.9316C203.877 26.9316 204.099 27.0204 204.321 27.0647C204.543 27.1978 204.632 27.3752 204.632 27.597V44.0984C204.632 44.3202 204.543 44.4977 204.321 44.6307C204.099 44.7638 203.877 44.8525 203.567 44.8525C203.035 44.8525 202.591 44.542 202.281 43.921L195.937 31.5449V44.1428C195.937 44.3646 195.849 44.542 195.627 44.6751C195.405 44.8082 195.183 44.8969 194.873 44.8969C194.562 44.8969 194.34 44.8082 194.119 44.6751C194.03 44.542 193.897 44.4089 193.897 44.1871Z" fill="#A6A6A6"/>
<path d="M30.8788 49.9987C42.8113 40.0623 45.0736 32.3439 45.0736 32.2552C45.0736 32.2552 45.1623 31.9447 45.2954 31.5898C44.7631 32.2552 44.3195 32.8319 44.2308 32.965L29.1045 48.2243L30.8788 49.9987Z" fill="#A6A6A6"/>
<path d="M45.9164 28.5731C45.9164 28.4844 45.9164 28.4844 45.9164 28.44C46.0051 27.4641 46.0051 26.4439 45.6946 25.5567L45.251 25.0244L27.685 42.9009L27.8181 42.8122L25.6888 44.8527L28.5278 47.603L44.0533 31.7226L45.4284 29.8151C45.6946 29.4159 45.9164 28.9723 45.9164 28.5731Z" fill="#A6A6A6"/>
<path d="M37.4883 24.715C37.3996 24.715 30.7458 27.2435 20.5433 39.8413L25.0679 44.2772L44.7188 24.3602C44.7188 24.3602 44.7188 24.2714 44.6301 24.2714C41.7024 23.0738 37.577 24.715 37.4883 24.715Z" fill="#A6A6A6"/>
<path d="M45.2067 23.5613C45.5172 24.0049 45.9608 24.4928 46.1826 24.7146C47.3359 25.7792 48.8441 26.5333 50.5297 26.7551C51.8161 26.8882 53.0582 26.6664 54.2115 26.2228C53.5461 25.5574 52.0823 24.0049 48.711 20.4118L48.4005 20.1013L55.8971 13.137C54.8325 12.2942 53.5461 11.7619 52.171 11.6288C48.0457 11.1852 44.3195 14.1572 43.8316 18.2826C43.6985 20.3231 44.2308 22.0974 45.2067 23.5613Z" fill="#A6A6A6"/>
<path d="M0.315796 71.6014L10.3852 71.2022L5.41704 66.3228L0.315796 71.6014Z" fill="#A6A6A6"/>
<path d="M41.0814 0.27231C22.4508 -2.0787 5.41705 11.0515 2.97732 29.6821C1.60221 40.2838 5.32833 50.3975 12.2039 57.5836L23.8259 45.6512L12.6031 48.0909L19.4787 39.8402L19.6118 39.6184C30.1692 26.577 36.8673 24.0485 37.1778 23.8711C37.3109 23.7824 40.8596 22.496 43.9647 23.117C43.2106 21.6532 42.8114 19.9675 43.0332 18.2375C43.5655 13.6686 47.6908 10.2974 52.2598 10.8297C54.0341 11.0515 55.631 11.7612 56.8287 12.8702C58.4256 14.0235 59.2684 16.2414 59.5789 17.1286C59.8894 18.1045 60.0225 21.4757 58.4256 23.7824C57.1392 25.6898 55.3649 26.6657 55.01 26.6657C53.8567 27.198 52.659 27.5085 51.3282 27.5085C51.0177 27.5085 50.7072 27.5085 50.3967 27.4198C49.0216 27.2867 47.7795 26.7988 46.7149 26.0447C46.848 26.6657 46.848 27.4198 46.7149 28.2626C46.5818 30.3031 45.7834 32.1661 45.739 32.2992C45.6503 32.6097 43.388 40.4612 30.9233 50.7081C29.8586 51.6396 28.7053 52.6155 27.5076 53.6801C24.6243 56.2085 21.2531 59.0918 17.3495 61.8421C21.6967 64.8141 26.7535 66.8989 32.3427 67.5643C50.9733 69.9153 68.0071 56.7852 70.4024 38.1546C72.8865 19.657 59.712 2.62332 41.0814 0.27231Z" fill="#A6A6A6"/>
<path d="M14.7324 46.717L24.2252 44.6322L20.0111 40.5068L14.7324 46.717Z" fill="#A6A6A6"/>
<path d="M27.6408 48.0016L25.068 45.4731L21.5193 49.1549L27.6408 48.0016Z" fill="#A6A6A6"/>
<path d="M5.72754 65.4348L12.3813 71.9999L10.7844 65.0356L11.0949 64.9026C17.66 61.5313 22.85 56.8736 27.1527 53.2362C28.2174 52.3047 29.282 51.4175 30.3022 50.5747L28.9271 49.2883L28.4835 48.8447L20.6764 50.2198L5.72754 65.4348Z" fill="#A6A6A6"/>
<path d="M58.6474 17.4394C58.4256 16.6853 57.8046 14.9109 56.6069 13.9351L49.8201 20.1896C51.6388 22.1858 54.3446 24.9804 55.1875 25.7788C55.3205 25.6901 55.4093 25.6457 55.5867 25.557C55.6754 25.4683 55.7198 25.4683 55.8085 25.4239L55.8972 25.3352C56.4295 24.936 57.1392 24.2706 57.7159 23.4278C59.0467 21.4317 58.9579 18.2822 58.6474 17.4394ZM56.2964 22.8511L55.631 22.4075C55.8528 22.097 56.0303 21.7422 56.1633 21.3429L56.5626 18.8145C56.5626 17.9717 56.4295 17.3507 56.4295 17.3507L57.2723 17.1289C57.228 17.3063 57.982 20.5001 56.2964 22.8511Z" fill="#A6A6A6"/>
</svg>
