<svg width="17" height="16" viewBox="0 0 17 16" fill="none" xmlns="http://www.w3.org/2000/svg">
<rect x="0.5" width="16" height="16" rx="4" fill="#4334D3"/>
<g clip-path="url(#clip0_60_24405)">
<path d="M13.9886 6.25158L12.9543 5.21728C12.8708 5.13496 12.7596 5.08689 12.6424 5.08255C12.5253 5.07821 12.4108 5.11792 12.3215 5.19384C12.1836 5.3112 12.0067 5.37248 11.8257 5.36554C11.6448 5.35859 11.4731 5.28393 11.3446 5.15634C11.2171 5.02788 11.1425 4.85621 11.1355 4.67533C11.1286 4.49445 11.1898 4.31757 11.3071 4.1797C11.383 4.09039 11.4227 3.97588 11.4184 3.85874C11.4141 3.7416 11.366 3.63034 11.2837 3.54689L10.2484 2.51142C10.161 2.4241 10.0424 2.37506 9.91879 2.37506C9.79518 2.37506 9.67663 2.4241 9.58914 2.51142L7.94031 4.16001C7.83851 4.26218 7.76174 4.38652 7.71601 4.5233C7.70711 4.54959 7.69227 4.57349 7.67263 4.59312C7.653 4.61275 7.62911 4.62759 7.60281 4.6365C7.46598 4.68223 7.34162 4.75909 7.23953 4.86103L3.01141 9.08916C2.92409 9.17664 2.87505 9.2952 2.87505 9.4188C2.87505 9.54241 2.92409 9.66097 3.01141 9.74845L4.04687 10.7827C4.13032 10.8651 4.24159 10.9131 4.35872 10.9175C4.47586 10.9218 4.59038 10.8821 4.67969 10.8062C4.81724 10.6879 4.99442 10.6259 5.17572 10.6327C5.35703 10.6395 5.52906 10.7146 5.65735 10.8429C5.78564 10.9712 5.86071 11.1432 5.86752 11.3245C5.87433 11.5058 5.81237 11.683 5.69406 11.8206C5.61814 11.9099 5.57843 12.0244 5.58277 12.1415C5.58711 12.2587 5.63518 12.3699 5.7175 12.4534L6.7518 13.4877C6.83928 13.575 6.95784 13.624 7.08144 13.624C7.20505 13.624 7.32361 13.575 7.41109 13.4877L11.6392 9.25955C11.7411 9.1575 11.818 9.03324 11.8637 8.8965C11.8726 8.87012 11.8875 8.84614 11.9072 8.82646C11.9268 8.80678 11.9508 8.79193 11.9772 8.78306C12.1139 8.73732 12.2382 8.66055 12.3402 8.55876L13.9888 6.90994C14.0758 6.82246 14.1246 6.70408 14.1246 6.58071C14.1246 6.45733 14.0757 6.33899 13.9886 6.25158ZM8.63617 5.55666C8.60135 5.59149 8.56 5.61912 8.5145 5.63797C8.469 5.65682 8.42023 5.66652 8.37098 5.66652C8.32172 5.66652 8.27295 5.65682 8.22745 5.63797C8.18195 5.61912 8.1406 5.59149 8.10578 5.55666L7.83601 5.28689C7.7674 5.21621 7.72935 5.12137 7.73009 5.02286C7.73084 4.92436 7.77031 4.8301 7.83998 4.76046C7.90965 4.69082 8.00392 4.65139 8.10243 4.6507C8.20093 4.65 8.29576 4.68809 8.36641 4.75673L8.63617 5.02626C8.671 5.06109 8.69863 5.10243 8.71748 5.14793C8.73633 5.19344 8.74604 5.24221 8.74604 5.29146C8.74604 5.34071 8.73633 5.38948 8.71748 5.43499C8.69863 5.48049 8.671 5.52183 8.63617 5.55666ZM9.66742 6.5879C9.5971 6.65818 9.50176 6.69765 9.40234 6.69765C9.30293 6.69765 9.20758 6.65818 9.13727 6.5879L8.87945 6.33009C8.84463 6.29527 8.817 6.25392 8.79815 6.20842C8.77931 6.16292 8.7696 6.11415 8.7696 6.0649C8.7696 6.01565 8.77931 5.96688 8.79815 5.92137C8.817 5.87587 8.84463 5.83453 8.87945 5.7997C8.94979 5.72937 9.04518 5.68985 9.14465 5.68985C9.1939 5.68985 9.24267 5.69956 9.28817 5.7184C9.33367 5.73725 9.37502 5.76488 9.40984 5.7997L9.66766 6.05751C9.70261 6.09233 9.73034 6.13371 9.74928 6.17927C9.76821 6.22483 9.77797 6.27368 9.77799 6.32301C9.77801 6.37235 9.7683 6.42121 9.7494 6.46678C9.73051 6.51236 9.70281 6.55376 9.66789 6.58861L9.66742 6.5879ZM10.6987 7.61915C10.6638 7.65399 10.6225 7.68162 10.577 7.70047C10.5315 7.71932 10.4827 7.72902 10.4335 7.72902C10.3842 7.72902 10.3355 7.71932 10.2899 7.70047C10.2444 7.68162 10.2031 7.65399 10.1683 7.61915L9.91047 7.36134C9.84185 7.29066 9.80381 7.19582 9.80455 7.09732C9.80529 6.99881 9.84476 6.90456 9.91443 6.83492C9.9841 6.76528 10.0784 6.72585 10.1769 6.72515C10.2754 6.72445 10.3702 6.76254 10.4409 6.83119L10.6987 7.089C10.7337 7.12376 10.7616 7.1651 10.7806 7.21065C10.7996 7.2562 10.8095 7.30506 10.8096 7.35442C10.8097 7.40378 10.8001 7.45268 10.7812 7.49832C10.7624 7.54395 10.7347 7.58541 10.6998 7.62033L10.6987 7.61915ZM11.74 8.66306C11.7052 8.69789 11.6638 8.72552 11.6183 8.74437C11.5728 8.76322 11.5241 8.77293 11.4748 8.77293C11.4256 8.77293 11.3768 8.76322 11.3313 8.74437C11.2858 8.72552 11.2444 8.69789 11.2096 8.66306L10.9415 8.39353C10.9059 8.35881 10.8776 8.31737 10.8582 8.27161C10.8388 8.22586 10.8287 8.1767 10.8285 8.127C10.8282 8.0773 10.8379 8.02805 10.8568 7.98211C10.8758 7.93617 10.9037 7.89446 10.9389 7.8594C10.9742 7.82434 11.016 7.79663 11.062 7.77789C11.1081 7.75915 11.1574 7.74975 11.2071 7.75022C11.2568 7.7507 11.3059 7.76106 11.3515 7.78068C11.3972 7.80031 11.4385 7.82882 11.473 7.86455L11.7414 8.13384C11.7762 8.16868 11.8038 8.21004 11.8227 8.25555C11.8415 8.30106 11.8512 8.34983 11.8512 8.39909C11.8511 8.44834 11.8414 8.49711 11.8225 8.5426C11.8037 8.58809 11.776 8.62943 11.7412 8.66423L11.74 8.66306Z" fill="white"/>
</g>
<defs>
<clipPath id="clip0_60_24405">
<rect width="12" height="12" fill="white" transform="translate(2.5 2)"/>
</clipPath>
</defs>
</svg>
